SplineFontDB: 3.0
FontName: ArchitectsDaughter
FullName: Architects Daughter
FamilyName: Architects Daughter
Weight: Book
Copyright: Copyright (c) 2010, Kimberly Geswein (kimberlygeswein.com)
Version: 1.002 2010
ItalicAngle: 0
UnderlinePosition: 0
UnderlineWidth: 0
Ascent: 819
Descent: 205
sfntRevision: 0x00010083
LayerCount: 2
Layer: 0 1 "Back"  1
Layer: 1 1 "Fore"  0
XUID: [1021 288 713564382 3419221]
FSType: 0
OS2Version: 3
OS2_WeightWidthSlopeOnly: 0
OS2_UseTypoMetrics: 1
CreationTime: 1291525898
ModificationTime: 1309530354
PfmFamily: 81
TTFWeight: 400
TTFWidth: 5
LineGap: 0
VLineGap: 0
Panose: 0 0 0 0 0 0 0 0 0 0
OS2TypoAscent: 191
OS2TypoAOffset: 1
OS2TypoDescent: -208
OS2TypoDOffset: 1
OS2TypoLinegap: 0
OS2WinAscent: 0
OS2WinAOffset: 1
OS2WinDescent: -18
OS2WinDOffset: 1
HheadAscent: 0
HheadAOffset: 1
HheadDescent: 18
HheadDOffset: 1
OS2SubXSize: 717
OS2SubYSize: 666
OS2SubXOff: 0
OS2SubYOff: 143
OS2SupXSize: 717
OS2SupYSize: 666
OS2SupXOff: 0
OS2SupYOff: 488
OS2StrikeYSize: 51
OS2StrikeYPos: 256
OS2Vendor: 'pyrs'
OS2CodePages: 00000011.00000000
OS2UnicodeRanges: a000002f.4000004a.00000000.00000000
DEI: 91125
TtTable: prep
PUSHW_1
 511
SCANCTRL
PUSHB_1
 4
SCANTYPE
EndTTInstrs
ShortTable: maxp 16
  1
  0
  352
  92
  5
  108
  5
  2
  0
  1
  1
  0
  64
  0
  3
  1
EndShort

StartChar: exclam
Encoding: 33 33 4
Width: 138
Flags: W
LayerCount: 2
Fore
SplineSet
63 67 m 1,0,1
 105 67 105 67 114.5 59 c 128,-1,2
 124 51 124 51 124 42 c 1,3,4
 113 2 113 2 76 -6 c 0,5,6
 70 -7 70 -7 63 -7 c 128,-1,7
 56 -7 56 -7 45.5 -3 c 128,-1,8
 35 1 35 1 30 11 c 0,9,10
 19 36 19 36 63 67 c 1,0,1
110 901 m 1,11,12
 104 875 104 875 104 576.5 c 128,-1,13
 104 278 104 278 89 233 c 1,14,-1
 22 233 l 1,15,16
 22 336 22 336 30 491 c 0,17,18
 44 792 44 792 44 897 c 1,19,-1
 110 901 l 1,11,12
EndSplineSet
EndChar

StartChar: quotedbl
Encoding: 34 34 5
Width: 242
Flags: W
LayerCount: 2
Fore
SplineSet
146 594 m 1,0,-1
 147 622 l 1,1,-1
 146 663 l 1,2,3
 146 746 146 746 182 763 c 1,4,-1
 199 747 l 1,5,-1
 199 548 l 1,6,-1
 215 514 l 1,7,8
 212 511 212 511 199.5 504.5 c 128,-1,9
 187 498 187 498 182 498 c 0,10,11
 146 498 146 498 146 594 c 1,0,-1
54 585 m 1,12,-1
 55 614 l 1,13,-1
 54 656 l 1,14,15
 54 739 54 739 90 756 c 1,16,-1
 106 740 l 1,17,-1
 106 541 l 1,18,-1
 123 507 l 1,19,20
 119 503 119 503 107 496.5 c 128,-1,21
 95 490 95 490 90 490 c 0,22,23
 54 490 54 490 54 585 c 1,12,-1
EndSplineSet
EndChar

StartChar: numbersign
Encoding: 35 35 6
Width: 653
Flags: W
LayerCount: 2
Fore
SplineSet
86 339 m 0,0,1
 86 368 86 368 128 368 c 0,2,3
 146 368 146 368 164.5 363.5 c 128,-1,4
 183 359 183 359 186 359 c 1,5,-1
 186 448 l 1,6,7
 172 448 172 448 141 453 c 128,-1,8
 110 458 110 458 93.5 460.5 c 128,-1,9
 77 463 77 463 70 465 c 1,10,11
 56 473 56 473 56 481.5 c 128,-1,12
 56 490 56 490 70 498 c 1,13,14
 77 499 77 499 93.5 502 c 128,-1,15
 110 505 110 505 128 508 c 0,16,17
 177 514 177 514 186 514 c 1,18,-1
 186 630 l 2,19,20
 186 644 186 644 199 646.5 c 128,-1,21
 212 649 212 649 220 649 c 256,22,23
 228 649 228 649 240.5 646.5 c 128,-1,24
 253 644 253 644 253 630 c 2,25,-1
 253 521 l 1,26,-1
 353 531 l 1,27,-1
 353 664 l 1,28,-1
 403 664 l 1,29,-1
 436 531 l 1,30,-1
 612 531 l 1,31,32
 612 477 612 477 539 477 c 0,33,34
 510 477 510 477 476.5 482.5 c 128,-1,35
 443 488 443 488 436 488 c 1,36,-1
 436 386 l 1,37,38
 496 386 496 386 552.5 394 c 128,-1,39
 609 402 609 402 669 402 c 1,40,-1
 669 382 l 2,41,42
 669 351 669 351 508 339 c 0,43,44
 482 337 482 337 462 335.5 c 128,-1,45
 442 334 442 334 436 332 c 1,46,47
 434 300 434 300 432.5 277 c 128,-1,48
 431 254 431 254 424 239 c 0,49,50
 409 210 409 210 353 210 c 1,51,-1
 353 309 l 1,52,53
 331 311 331 311 310.5 311 c 128,-1,54
 290 311 290 311 272.5 306 c 128,-1,55
 255 301 255 301 250.5 289 c 128,-1,56
 246 277 246 277 252 262 c 128,-1,57
 258 247 258 247 261.5 233.5 c 128,-1,58
 265 220 265 220 258 210 c 128,-1,59
 251 200 251 200 220 198 c 1,60,-1
 212 198 l 2,61,62
 205 198 205 198 203 199 c 1,63,64
 198 297 198 297 142 318 c 0,65,66
 120 326 120 326 103 327 c 128,-1,67
 86 328 86 328 86 339 c 0,0,1
355 480.5 m 128,-1,69
 349 482 349 482 340 482 c 128,-1,70
 331 482 331 482 316.5 480.5 c 128,-1,71
 302 479 302 479 288 477 c 0,72,73
 253 472 253 472 253 465 c 2,74,-1
 253 359 l 1,75,76
 314 359 314 359 332 366 c 0,77,78
 370 381 370 381 370 432 c 0,79,80
 370 466 370 466 365.5 472.5 c 128,-1,68
 361 479 361 479 355 480.5 c 128,-1,69
EndSplineSet
EndChar

StartChar: dollar
Encoding: 36 36 7
Width: 570
Flags: W
LayerCount: 2
Fore
SplineSet
343 199 m 1,0,-1
 361 34 l 1,1,-1
 361 23 l 2,2,3
 361 8 361 8 322 0 c 0,4,5
 301 -4 301 -4 269 -4 c 1,6,-1
 255 194 l 1,7,8
 262 174 262 174 184 174 c 1,9,-1
 156 175 l 1,10,11
 152 177 152 177 150 191 c 0,12,13
 145 215 145 215 142 221 c 1,14,15
 151 239 151 239 237 246 c 0,16,17
 255 248 255 248 261 249 c 1,18,-1
 261 382 l 1,19,-1
 237 382 l 2,20,21
 82 382 82 382 28 428 c 0,22,23
 11 443 11 443 11 466 c 1,24,25
 9 476 9 476 9 495 c 128,-1,26
 9 514 9 514 29 542.5 c 128,-1,27
 49 571 49 571 85 594 c 0,28,29
 151 636 151 636 228 648 c 1,30,-1
 228 880 l 1,31,-1
 277 880 l 1,32,-1
 310 681 l 1,33,-1
 510 681 l 1,34,-1
 510 639 l 1,35,-1
 328 614 l 1,36,-1
 327 423 l 1,37,-1
 554 423 l 1,38,39
 555 414 555 414 555 394 c 128,-1,40
 555 374 555 374 544.5 347 c 128,-1,41
 534 320 534 320 514 299.5 c 128,-1,42
 494 279 494 279 468 265.5 c 128,-1,43
 442 252 442 252 417.5 241.5 c 128,-1,44
 393 231 393 231 373 221.5 c 128,-1,45
 353 212 353 212 343 199 c 1,0,-1
478 373 m 1,46,47
 468 389 468 389 432 389 c 0,48,49
 407 389 407 389 378.5 382 c 128,-1,50
 350 375 350 375 337 369 c 1,51,-1
 343 282 l 1,52,53
 478 321 478 321 478 373 c 1,46,47
159 430 m 1,54,-1
 202 431 l 2,55,56
 216 431 216 431 228 431 c 128,-1,57
 240 431 240 431 248.5 431.5 c 128,-1,58
 257 432 257 432 261 432 c 1,59,-1
 244 581 l 2,60,61
 244 582 244 582 236.5 583.5 c 128,-1,62
 229 585 229 585 217 585 c 128,-1,63
 205 585 205 585 182 575 c 128,-1,64
 159 565 159 565 138 549 c 0,65,66
 91 512 91 512 91 472 c 0,67,68
 91 430 91 430 159 430 c 1,54,-1
EndSplineSet
EndChar

StartChar: percent
Encoding: 37 37 8
Width: 531
Flags: W
LayerCount: 2
Fore
SplineSet
312 87 m 128,-1,1
 303 102 303 102 303 128.5 c 128,-1,2
 303 155 303 155 315 175 c 0,3,4
 335 208 335 208 375 208 c 0,5,6
 401 208 401 208 424 196 c 0,7,8
 471 171 471 171 475 125 c 1,9,10
 475 75 475 75 454 58.5 c 128,-1,11
 433 42 433 42 393 42 c 0,12,13
 362 42 362 42 341.5 57 c 128,-1,0
 321 72 321 72 312 87 c 128,-1,1
428 142 m 1,14,15
 406 165 406 165 379 165 c 0,16,17
 348 165 348 165 342 136 c 0,18,19
 342 132 342 132 342 122.5 c 128,-1,20
 342 113 342 113 354 94 c 1,21,22
 372 79 372 79 390 77 c 0,23,24
 426 73 426 73 434 106 c 1,25,26
 434 111 434 111 434 119.5 c 128,-1,27
 434 128 434 128 428 142 c 1,14,15
40 466 m 128,-1,29
 31 481 31 481 31 507.5 c 128,-1,30
 31 534 31 534 43 554 c 0,31,32
 63 587 63 587 103 587 c 0,33,34
 129 587 129 587 152 575 c 0,35,36
 199 550 199 550 203 504 c 1,37,38
 203 454 203 454 182 437.5 c 128,-1,39
 161 421 161 421 121 421 c 0,40,41
 90 421 90 421 69.5 436 c 128,-1,28
 49 451 49 451 40 466 c 128,-1,29
156 521 m 1,42,43
 134 544 134 544 107 544 c 0,44,45
 76 544 76 544 70 514 c 0,46,47
 70 511 70 511 70 501.5 c 128,-1,48
 70 492 70 492 82 473 c 1,49,50
 100 458 100 458 117.5 456 c 128,-1,51
 135 454 135 454 146 462 c 0,52,53
 162 474 162 474 162 490.5 c 128,-1,54
 162 507 162 507 156 521 c 1,42,43
77 3 m 1,55,56
 62 3 62 3 62 30 c 2,57,-1
 62 39 l 2,58,59
 62 72 62 72 231 338 c 0,60,61
 332 497 332 497 371.5 548.5 c 128,-1,62
 411 600 411 600 415 600 c 1,63,64
 420 603 420 603 423.5 603 c 128,-1,65
 427 603 427 603 427 592.5 c 128,-1,66
 427 582 427 582 411.5 547 c 128,-1,67
 396 512 396 512 371.5 466.5 c 128,-1,68
 347 421 347 421 317.5 369 c 128,-1,69
 288 317 288 317 254.5 262.5 c 128,-1,70
 221 208 221 208 189 159 c 0,71,72
 116 48 116 48 77 3 c 1,55,56
EndSplineSet
EndChar

StartChar: ampersand
Encoding: 38 38 9
Width: 686
Flags: W
LayerCount: 2
Fore
SplineSet
622 76 m 0,0,1
 622 48 622 48 578 48 c 0,2,3
 549 48 549 48 503 75 c 0,4,5
 486 85 486 85 468.5 93.5 c 128,-1,6
 451 102 451 102 430 102 c 1,7,8
 399 86 399 86 362 66 c 0,9,10
 234 -2 234 -2 137 -2 c 1,11,-1
 105 0 l 2,12,13
 104 0 104 0 99.5 0 c 128,-1,14
 95 0 95 0 78 4 c 0,15,16
 34 15 34 15 12 35 c 0,17,18
 5 42 5 42 5 48.5 c 128,-1,19
 5 55 5 55 7 59 c 2,20,-1
 189 349 l 1,21,22
 145 425 145 425 134 456 c 0,23,24
 118 505 118 505 118 571 c 1,25,26
 126 673 126 673 186 740 c 0,27,28
 233 791 233 791 280 791 c 0,29,30
 316 791 316 791 335 756 c 0,31,32
 348 734 348 734 348 694 c 0,33,34
 348 577 348 577 238 366 c 1,35,36
 241 326 241 326 332 250 c 0,37,38
 376 213 376 213 407 195 c 128,-1,39
 438 177 438 177 446 177 c 1,40,41
 503 209 503 209 524 230 c 128,-1,42
 545 251 545 251 555 264 c 128,-1,43
 565 277 565 277 577 292 c 0,44,45
 607 331 607 331 649 370 c 1,46,47
 659 370 659 370 671 360.5 c 128,-1,48
 683 351 683 351 682 348.5 c 128,-1,49
 681 346 681 346 673 331 c 128,-1,50
 665 316 665 316 644 290 c 0,51,52
 590 224 590 224 487 149 c 1,53,54
 622 82 622 82 622 76 c 0,0,1
80 62 m 0,55,56
 80 44 80 44 97 44 c 0,57,58
 100 44 100 44 123.5 44.5 c 128,-1,59
 147 45 147 45 182.5 50.5 c 128,-1,60
 218 56 218 56 251 67 c 0,61,62
 308 86 308 86 387 133 c 1,63,-1
 221 299 l 1,64,65
 197 275 197 275 165 227 c 0,66,67
 80 103 80 103 80 62 c 0,55,56
205 415 m 1,68,69
 251 441 251 441 277 534 c 0,70,71
 297 605 297 605 297 677 c 1,72,-1
 298 703 l 2,73,74
 298 721 298 721 289.5 726 c 128,-1,75
 281 731 281 731 259.5 731 c 128,-1,76
 238 731 238 731 219 712.5 c 128,-1,77
 200 694 200 694 188 667 c 0,78,79
 166 618 166 618 166 546 c 128,-1,80
 166 474 166 474 205 415 c 1,68,69
EndSplineSet
EndChar

StartChar: quotesingle
Encoding: 39 39 10
Width: 166
Flags: W
LayerCount: 2
Fore
SplineSet
104 619 m 0,0,1
 128 619 128 619 128 584 c 0,2,3
 128 543 128 543 94 476 c 0,4,5
 84 456 84 456 75 442 c 1,6,-1
 27 438 l 1,7,-1
 83 614 l 1,8,9
 95 619 95 619 104 619 c 0,0,1
EndSplineSet
EndChar

StartChar: parenleft
Encoding: 40 40 11
Width: 305
Flags: W
LayerCount: 2
Fore
SplineSet
199 34 m 0,0,1
 199 14 199 14 168.5 14 c 128,-1,2
 138 14 138 14 116 35.5 c 128,-1,3
 94 57 94 57 77 90.5 c 128,-1,4
 60 124 60 124 48.5 164.5 c 128,-1,5
 37 205 37 205 30 244 c 0,6,7
 15 318 15 318 15 353.5 c 128,-1,8
 15 389 15 389 23 436.5 c 128,-1,9
 31 484 31 484 46 540 c 128,-1,10
 61 596 61 596 82.5 653.5 c 128,-1,11
 104 711 104 711 130 758 c 0,12,13
 189 864 189 864 249 864 c 0,14,15
 260 864 260 864 268.5 862 c 128,-1,16
 277 860 277 860 282 847 c 1,17,18
 188 714 188 714 157.5 649 c 128,-1,19
 127 584 127 584 112.5 525.5 c 128,-1,20
 98 467 98 467 98 407.5 c 128,-1,21
 98 348 98 348 114 301.5 c 128,-1,22
 130 255 130 255 148.5 211 c 128,-1,23
 167 167 167 167 183 123 c 128,-1,24
 199 79 199 79 199 34 c 0,0,1
EndSplineSet
EndChar

StartChar: parenright
Encoding: 41 41 12
Width: 360
Flags: W
LayerCount: 2
Fore
SplineSet
28 763 m 1,0,-1
 26 779 l 1,1,2
 26 802 26 802 38 808.5 c 128,-1,3
 50 815 50 815 70 815 c 0,4,5
 153 815 153 815 218 722 c 1,6,7
 296 607 296 607 323 422 c 0,8,9
 330 373 330 373 330 345.5 c 128,-1,10
 330 318 330 318 323.5 284.5 c 128,-1,11
 317 251 317 251 304.5 213.5 c 128,-1,12
 292 176 292 176 274.5 138 c 128,-1,13
 257 100 257 100 234 69 c 0,14,15
 184 0 184 0 128 0 c 0,16,17
 124 0 124 0 117.5 6 c 128,-1,18
 111 12 111 12 111 16 c 1,19,20
 128 58 128 58 154 94.5 c 128,-1,21
 180 131 180 131 204 167.5 c 128,-1,22
 228 204 228 204 245 243.5 c 128,-1,23
 262 283 262 283 262 347.5 c 128,-1,24
 262 412 262 412 243.5 472 c 128,-1,25
 225 532 225 532 193 581 c 128,-1,26
 161 630 161 630 118.5 673 c 128,-1,27
 76 716 76 716 28 763 c 1,0,-1
EndSplineSet
EndChar

StartChar: asterisk
Encoding: 42 42 13
Width: 520
Flags: W
LayerCount: 2
Fore
SplineSet
82 190 m 0,0,1
 153 319 153 319 159 371 c 1,2,3
 159 393 159 393 123 416 c 0,4,5
 108 425 108 425 92 434 c 0,6,7
 39 465 39 465 39 506 c 0,8,9
 39 516 39 516 42 528 c 1,10,11
 79 527 79 527 102 514 c 128,-1,12
 125 501 125 501 144 488 c 0,13,14
 183 460 183 460 205 460 c 0,15,16
 215 460 215 460 225 462 c 1,17,-1
 307 678 l 2,18,19
 315 699 315 699 363 699 c 1,20,21
 363 662 363 662 352.5 608.5 c 128,-1,22
 342 555 342 555 337 526 c 128,-1,23
 332 497 332 497 332 466 c 1,24,25
 363 466 363 466 408 477.5 c 128,-1,26
 453 489 453 489 476.5 494.5 c 128,-1,27
 500 500 500 500 526 500 c 1,28,29
 526 468 526 468 511 450.5 c 128,-1,30
 496 433 496 433 473 422.5 c 128,-1,31
 450 412 450 412 424 405.5 c 128,-1,32
 398 399 398 399 375 389 c 0,33,34
 322 366 322 366 322 314 c 0,35,36
 322 284 322 284 334 249 c 0,37,38
 358 183 358 183 358 159.5 c 128,-1,39
 358 136 358 136 343.5 129 c 128,-1,40
 329 122 329 122 307 113 c 1,41,42
 287 123 287 123 279 143.5 c 128,-1,43
 271 164 271 164 266 187.5 c 128,-1,44
 261 211 261 211 253 231.5 c 128,-1,45
 245 252 245 252 225 262 c 1,46,47
 207 247 207 247 191.5 224.5 c 128,-1,48
 176 202 176 202 158.5 181 c 128,-1,49
 141 160 141 160 121 145 c 128,-1,50
 101 130 101 130 75 130 c 0,51,52
 71 130 71 130 64.5 136 c 128,-1,53
 58 142 58 142 58 146 c 1,54,55
 67 164 67 164 82 190 c 0,0,1
EndSplineSet
EndChar

StartChar: plus
Encoding: 43 43 14
Width: 537
Flags: W
LayerCount: 2
Fore
SplineSet
210 482 m 2,0,1
 210 501 210 501 245 501 c 0,2,3
 262 501 262 501 267 494.5 c 128,-1,4
 272 488 272 488 275 473 c 128,-1,5
 278 458 278 458 281 439 c 128,-1,6
 284 420 284 420 286.5 399 c 128,-1,7
 289 378 289 378 291.5 359 c 128,-1,8
 294 340 294 340 294 333 c 1,9,-1
 514 333 l 1,10,11
 514 294 514 294 420 288 c 0,12,13
 394 287 394 287 370 286 c 0,14,15
 305 285 305 285 294 282 c 1,16,17
 292 268 292 268 292 254.5 c 128,-1,18
 292 241 292 241 294 220 c 128,-1,19
 296 199 296 199 301 168 c 0,20,21
 311 105 311 105 311 83.5 c 128,-1,22
 311 62 311 62 310 50 c 1,23,24
 290 34 290 34 266 34 c 0,25,26
 247 34 247 34 244 50 c 1,27,28
 242 71 242 71 240 98.5 c 128,-1,29
 238 126 238 126 234 156 c 0,30,31
 224 231 224 231 210 266 c 1,32,33
 183 266 183 266 146 255 c 0,34,35
 71 233 71 233 40.5 232.5 c 128,-1,36
 10 232 10 232 10 258 c 0,37,38
 10 285 10 285 110 290 c 0,39,40
 170 294 170 294 190 300 c 128,-1,41
 210 306 210 306 210 316 c 2,42,-1
 210 482 l 2,0,1
EndSplineSet
EndChar

StartChar: comma
Encoding: 44 44 15
Width: 182
Flags: W
LayerCount: 2
Fore
SplineSet
48 86 m 2,0,1
 54 99 54 99 62 101 c 128,-1,2
 70 103 70 103 79 103 c 128,-1,3
 88 103 88 103 96 101 c 0,4,5
 110 97 110 97 116 84 c 0,6,7
 116 82 116 82 116 78.5 c 128,-1,8
 116 75 116 75 112 65.5 c 128,-1,9
 108 56 108 56 99.5 40.5 c 128,-1,10
 91 25 91 25 81 8.5 c 128,-1,11
 71 -8 71 -8 61 -23 c 128,-1,12
 51 -38 51 -38 46.5 -46 c 128,-1,13
 42 -54 42 -54 35 -61 c 0,14,15
 11 -85 11 -85 -10 -85 c 0,16,17
 -16 -85 -16 -85 -22 -83 c 1,18,-1
 48 86 l 2,0,1
EndSplineSet
EndChar

StartChar: hyphen
Encoding: 45 45 16
Width: 318
Flags: W
LayerCount: 2
Fore
SplineSet
80 216 m 1,0,1
 30 216 30 216 30 242 c 0,2,3
 30 255 30 255 41.5 260 c 128,-1,4
 53 265 53 265 81.5 269 c 128,-1,5
 110 273 110 273 153.5 281 c 128,-1,6
 197 289 197 289 245 294 c 1,7,8
 265 294 265 294 279 287 c 0,9,10
 299 277 299 277 299 263 c 0,11,12
 299 258 299 258 294.5 250 c 128,-1,13
 290 242 290 242 272 236 c 1,14,-1
 80 216 l 1,0,1
EndSplineSet
EndChar

StartChar: period
Encoding: 46 46 17
Width: 144
Flags: W
LayerCount: 2
Fore
SplineSet
46 -1 m 1,0,1
 23 1 23 1 23 19 c 0,2,3
 23 41 23 41 48 60 c 0,4,5
 58 67 58 67 63.5 67 c 128,-1,6
 69 67 69 67 72 66 c 1,7,8
 93 66 93 66 100.5 57.5 c 128,-1,9
 108 49 108 49 108 35 c 128,-1,10
 108 21 108 21 102 14 c 128,-1,11
 96 7 96 7 87 4 c 0,12,13
 72 -1 72 -1 46 -1 c 1,0,1
EndSplineSet
EndChar

StartChar: slash
Encoding: 47 47 18
Width: 466
Flags: W
LayerCount: 2
Fore
SplineSet
39 0 m 1,0,1
 21 0 21 0 21 32 c 2,2,-1
 21 42 l 1,3,4
 36 86 36 86 416 656 c 0,5,6
 435 685 435 685 438 689 c 1,7,8
 443 686 443 686 443 675 c 128,-1,9
 443 664 443 664 431 629 c 128,-1,10
 419 594 419 594 387.5 528 c 128,-1,11
 356 462 356 462 311.5 383.5 c 128,-1,12
 267 305 267 305 219 230 c 0,13,14
 108 58 108 58 39 0 c 1,0,1
EndSplineSet
EndChar

StartChar: zero
Encoding: 48 48 19
Width: 646
Flags: W
LayerCount: 2
Fore
SplineSet
116 44 m 1,0,1
 80 67 80 67 59 101.5 c 128,-1,2
 38 136 38 136 38 176 c 128,-1,3
 38 216 38 216 50 271 c 128,-1,4
 62 326 62 326 80.5 373 c 128,-1,5
 99 420 99 420 125.5 464 c 128,-1,6
 152 508 152 508 186 542 c 0,7,8
 261 615 261 615 356 615 c 0,9,10
 484 615 484 615 552 521 c 1,11,12
 615 436 615 436 615 310 c 0,13,14
 615 161 615 161 520 78 c 0,15,16
 427 -2 427 -2 273 -2 c 0,17,18
 184 -2 184 -2 116 44 c 1,0,1
97 183 m 0,19,20
 97 48 97 48 289 48 c 0,21,22
 427 48 427 48 496.5 119 c 128,-1,23
 566 190 566 190 566 321 c 0,24,25
 566 325 566 325 566 329 c 0,26,27
 566 444 566 444 509 505 c 128,-1,28
 452 566 452 566 353 566 c 0,29,30
 342 566 342 566 333.5 566 c 128,-1,31
 325 566 325 566 318 566 c 0,32,33
 265 566 265 566 213 494 c 1,34,35
 164 428 164 428 129 325 c 0,36,37
 97 231 97 231 97 183 c 0,19,20
EndSplineSet
EndChar

StartChar: one
Encoding: 49 49 20
Width: 131
Flags: W
LayerCount: 2
Fore
SplineSet
28 16 m 1,0,1
 28 35 28 35 29.5 75.5 c 128,-1,2
 31 116 31 116 32.5 167 c 128,-1,3
 34 218 34 218 36 274 c 128,-1,4
 38 330 38 330 39.5 381 c 128,-1,5
 41 432 41 432 42 472 c 128,-1,6
 43 512 43 512 44 532 c 1,7,8
 42 554 42 554 52 560 c 128,-1,9
 62 566 62 566 74.5 566 c 128,-1,10
 87 566 87 566 96.5 564 c 128,-1,11
 106 562 106 562 110 548 c 1,12,-1
 94 34 l 1,13,14
 92 16 92 16 66 8.5 c 128,-1,15
 40 1 40 1 28 16 c 1,0,1
EndSplineSet
EndChar

StartChar: two
Encoding: 50 50 21
Width: 586
Flags: W
LayerCount: 2
Fore
SplineSet
538 167 m 0,0,1
 571 167 571 167 571 142 c 128,-1,2
 571 117 571 117 549 105.5 c 128,-1,3
 527 94 527 94 499.5 89 c 128,-1,4
 472 84 472 84 448 83.5 c 128,-1,5
 424 83 424 83 417.5 81.5 c 128,-1,6
 411 80 411 80 388.5 73.5 c 128,-1,7
 366 67 366 67 335 58.5 c 128,-1,8
 304 50 304 50 268 40 c 0,9,10
 155 10 155 10 88 10 c 0,11,12
 54 10 54 10 42.5 20.5 c 128,-1,13
 31 31 31 31 38 50 c 1,14,15
 113 116 113 116 194 220 c 0,16,17
 315 375 315 375 315 462 c 0,18,19
 315 479 315 479 310 494 c 0,20,21
 299 525 299 525 253 534 c 1,22,23
 209 534 209 534 181 516 c 128,-1,24
 153 498 153 498 128.5 476 c 128,-1,25
 104 454 104 454 78.5 436 c 128,-1,26
 53 418 53 418 16 418 c 1,27,28
 17 451 17 451 43 482 c 0,29,30
 95 546 95 546 190 574 c 0,31,32
 224 585 224 585 244 585 c 128,-1,33
 264 585 264 585 274 584 c 0,34,35
 313 580 313 580 341 556 c 128,-1,36
 369 532 369 532 374 482 c 1,37,38
 374 341 374 341 242 169 c 0,39,40
 206 122 206 122 171 82 c 1,41,42
 182 81 182 81 205.5 81 c 128,-1,43
 229 81 229 81 270 92.5 c 128,-1,44
 311 104 311 104 357 120.5 c 128,-1,45
 403 137 403 137 448 152 c 128,-1,46
 493 167 493 167 538 167 c 0,0,1
EndSplineSet
EndChar

StartChar: three
Encoding: 51 51 22
Width: 521
Flags: W
LayerCount: 2
Fore
SplineSet
482 507 m 1,0,1
 482 447 482 447 386 366 c 0,2,3
 362 347 362 347 345 332 c 1,4,5
 468 330 468 330 492 274 c 0,6,7
 497 261 497 261 497 247 c 128,-1,8
 497 233 497 233 489.5 209.5 c 128,-1,9
 482 186 482 186 458 154 c 128,-1,10
 434 122 434 122 400 92 c 0,11,12
 329 30 329 30 250 6 c 0,13,14
 223 -2 223 -2 206.5 -2 c 128,-1,15
 190 -2 190 -2 180 -1.5 c 128,-1,16
 170 -1 170 -1 159 5 c 128,-1,17
 148 11 148 11 148 25 c 1,18,19
 223 44 223 44 280 79 c 128,-1,20
 337 114 337 114 370 152 c 1,21,22
 409 199 409 199 409 230 c 128,-1,23
 409 261 409 261 390 272 c 128,-1,24
 371 283 371 283 341 283 c 0,25,26
 265 283 265 283 134 221 c 1,27,-1
 99 266 l 1,28,29
 402 406 402 406 402 467 c 0,30,31
 402 493 402 493 345 501 c 1,32,33
 286 501 286 501 210.5 481 c 128,-1,34
 135 461 135 461 94 452 c 128,-1,35
 53 443 53 443 10 443 c 1,36,37
 10 490 10 490 33 498 c 1,38,39
 75 508 75 508 122 520 c 0,40,41
 276 559 276 559 368.5 559 c 128,-1,42
 461 559 461 559 482 507 c 1,0,1
EndSplineSet
EndChar

StartChar: four
Encoding: 52 52 23
Width: 697
Flags: W
LayerCount: 2
Fore
SplineSet
397 -15 m 1,0,1
 376 -15 376 -15 373 -3 c 1,2,-1
 377 195 l 1,3,-1
 304 195 l 1,4,-1
 184 196 l 1,5,-1
 112 196 l 2,6,7
 99 196 99 196 86 200 c 128,-1,8
 73 204 73 204 73 221 c 1,9,10
 126 289 126 289 176 358 c 0,11,12
 335 575 335 575 394 575 c 0,13,14
 460 575 460 575 460 343 c 0,15,16
 460 313 460 313 459 279 c 1,17,-1
 680 282 l 1,18,19
 680 256 680 256 673.5 244 c 128,-1,20
 667 232 667 232 662 231 c 2,21,-1
 477 216 l 1,22,23
 463 177 463 177 460 128 c 0,24,25
 455 48 455 48 455 -6 c 1,26,-1
 397 -15 l 1,0,1
377 482 m 1,27,28
 355 452 355 452 323.5 423.5 c 128,-1,29
 292 395 292 395 262 366.5 c 128,-1,30
 232 338 232 338 208 309 c 128,-1,31
 184 280 184 280 178 249 c 1,32,33
 185 249 185 249 209 249 c 128,-1,34
 233 249 233 249 278 254.5 c 128,-1,35
 323 260 323 260 377 266 c 1,36,-1
 377 482 l 1,27,28
EndSplineSet
EndChar

StartChar: five
Encoding: 53 53 24
Width: 725
Flags: W
LayerCount: 2
Fore
SplineSet
27 289 m 1,0,-1
 34 358 l 1,1,2
 41 416 41 416 50 498 c 2,3,-1
 62 598 l 1,4,5
 66 611 66 611 74.5 613 c 128,-1,6
 83 615 83 615 98 615 c 128,-1,7
 113 615 113 615 120 607.5 c 128,-1,8
 127 600 127 600 127.5 589 c 128,-1,9
 128 578 128 578 125 564 c 128,-1,10
 122 550 122 550 122 537 c 1,11,12
 192 537 192 537 261.5 552 c 128,-1,13
 331 567 331 567 400 585 c 128,-1,14
 469 603 469 603 538 618 c 128,-1,15
 607 633 607 633 677 633 c 0,16,17
 687 633 687 633 695.5 630.5 c 128,-1,18
 704 628 704 628 709 614 c 1,19,20
 705 602 705 602 695 594 c 128,-1,21
 685 586 685 586 661.5 578 c 128,-1,22
 638 570 638 570 598 561.5 c 128,-1,23
 558 553 558 553 495 539.5 c 128,-1,24
 432 526 432 526 341.5 507 c 128,-1,25
 251 488 251 488 128 460 c 1,26,-1
 128 332 l 1,27,28
 160 335 160 335 201 342 c 0,29,30
 277 355 277 355 317 355 c 128,-1,31
 357 355 357 355 383.5 354 c 128,-1,32
 410 353 410 353 444 340 c 0,33,34
 517 312 517 312 526 225 c 1,35,36
 526 162 526 162 491.5 118.5 c 128,-1,37
 457 75 457 75 405 49 c 0,38,39
 307 0 307 0 177 0 c 0,40,41
 149 0 149 0 137 6 c 128,-1,42
 125 12 125 12 125 32 c 256,43,44
 125 52 125 52 141 70 c 128,-1,45
 157 88 157 88 177 88 c 1,46,-1
 177 70 l 1,47,48
 295 70 295 70 347 86.5 c 128,-1,49
 399 103 399 103 429.5 132.5 c 128,-1,50
 460 162 460 162 460 206 c 128,-1,51
 460 250 460 250 442 270 c 128,-1,52
 424 290 424 290 398 300 c 0,53,54
 358 316 358 316 307 316 c 128,-1,55
 256 316 256 316 230 308 c 128,-1,56
 204 300 204 300 179 290 c 0,57,58
 112 265 112 265 77 265 c 2,59,-1
 61 265 l 2,60,61
 27 265 27 265 27 289 c 1,0,-1
EndSplineSet
EndChar

StartChar: six
Encoding: 54 54 25
Width: 642
Flags: W
LayerCount: 2
Fore
SplineSet
22 282 m 0,0,1
 22 287 22 287 22 309.5 c 128,-1,2
 22 332 22 332 35 375 c 128,-1,3
 48 418 48 418 71.5 459.5 c 128,-1,4
 95 501 95 501 126.5 538 c 128,-1,5
 158 575 158 575 195 604 c 0,6,7
 275 665 275 665 355 665 c 0,8,9
 369 665 369 665 378 660 c 128,-1,10
 387 655 387 655 387 644.5 c 128,-1,11
 387 634 387 634 387 630 c 1,12,13
 267 608 267 608 186 506 c 0,14,15
 105 405 105 405 105 282 c 0,16,17
 105 242 105 242 124.5 199 c 128,-1,18
 144 156 144 156 160.5 135.5 c 128,-1,19
 177 115 177 115 197 115 c 1,20,21
 213 128 213 128 233.5 149 c 128,-1,22
 254 170 254 170 279.5 194.5 c 128,-1,23
 305 219 305 219 335 243.5 c 128,-1,24
 365 268 365 268 398 288 c 0,25,26
 472 332 472 332 547 334 c 0,27,28
 581 334 581 334 601 304 c 0,29,30
 620 275 620 275 620 240 c 1,31,32
 605 119 605 119 506 52 c 0,33,34
 425 -4 425 -4 320 -4 c 0,35,36
 255 -4 255 -4 200 18 c 0,37,38
 88 62 88 62 43 168 c 0,39,40
 22 218 22 218 22 282 c 0,0,1
554 233 m 1,41,42
 554 267 554 267 522 267 c 128,-1,43
 490 267 490 267 451.5 243 c 128,-1,44
 413 219 413 219 376 187 c 0,45,46
 328 147 328 147 262 76 c 1,47,48
 280 73 280 73 301.5 73 c 128,-1,49
 323 73 323 73 360 78 c 128,-1,50
 397 83 397 83 442 103 c 128,-1,51
 487 123 487 123 519 155.5 c 128,-1,52
 551 188 551 188 554 233 c 1,41,42
EndSplineSet
EndChar

StartChar: seven
Encoding: 55 55 26
Width: 630
Flags: W
LayerCount: 2
Fore
SplineSet
310 0 m 1,0,-1
 307 58 l 2,1,2
 307 64 307 64 307 69 c 0,3,4
 307 161 307 161 370 290 c 1,5,6
 397 343 397 343 422 391 c 128,-1,7
 447 439 447 439 456 478 c 1,8,9
 402 478 402 478 349 475 c 0,10,11
 155 464 155 464 109.5 464 c 128,-1,12
 64 464 64 464 28 466 c 1,13,14
 17 471 17 471 13.5 476 c 128,-1,15
 10 481 10 481 10 490 c 256,16,17
 10 499 10 499 13.5 504 c 128,-1,18
 17 509 17 509 28 514 c 1,19,20
 47 513 47 513 82 513 c 128,-1,21
 117 513 117 513 177 520 c 128,-1,22
 237 527 237 527 305.5 537.5 c 128,-1,23
 374 548 374 548 442 557 c 128,-1,24
 510 566 510 566 578 566 c 0,25,26
 594 566 594 566 602 558 c 128,-1,27
 610 550 610 550 610 542.5 c 128,-1,28
 610 535 610 535 610 532 c 1,29,30
 436 339 436 339 396 157 c 0,31,32
 388 118 388 118 388 83 c 128,-1,33
 388 48 388 48 394 16 c 1,34,-1
 310 0 l 1,0,-1
EndSplineSet
EndChar

StartChar: eight
Encoding: 56 56 27
Width: 664
Flags: W
LayerCount: 2
Fore
SplineSet
569.5 560.5 m 128,-1,1
 588 541 588 541 587 497 c 128,-1,2
 586 453 586 453 537 398 c 1,3,4
 595 375 595 375 611 356 c 128,-1,5
 627 337 627 337 632.5 316.5 c 128,-1,6
 638 296 638 296 638 266 c 0,7,8
 638 198 638 198 602.5 147.5 c 128,-1,9
 567 97 567 97 513 64 c 128,-1,10
 459 31 459 31 394.5 15 c 128,-1,11
 330 -1 330 -1 283 -1 c 128,-1,12
 236 -1 236 -1 192.5 5.5 c 128,-1,13
 149 12 149 12 111 29 c 0,14,15
 22 69 22 69 22 149 c 0,16,17
 22 174 22 174 38 198.5 c 128,-1,18
 54 223 54 223 72.5 245 c 128,-1,19
 91 267 91 267 107 286.5 c 128,-1,20
 123 306 123 306 123 320.5 c 128,-1,21
 123 335 123 335 117.5 344.5 c 128,-1,22
 112 354 112 354 105 363 c 0,23,24
 87 386 87 386 87 414 c 128,-1,25
 87 442 87 442 103 470 c 128,-1,26
 119 498 119 498 145.5 519.5 c 128,-1,27
 172 541 172 541 206 556.5 c 128,-1,28
 240 572 240 572 275 582 c 0,29,30
 343 600 343 600 405 600 c 0,31,32
 490 600 490 600 520.5 590 c 128,-1,0
 551 580 551 580 569.5 560.5 c 128,-1,1
103 160 m 1,33,34
 103 93 103 93 171 66 c 0,35,36
 218 48 218 48 284 48 c 128,-1,37
 350 48 350 48 400 62 c 128,-1,38
 450 76 450 76 488 104 c 0,39,40
 573 165 573 165 573 268 c 1,41,42
 549 349 549 349 422 349 c 0,43,44
 334 349 334 349 247 310 c 0,45,46
 164 272 164 272 126 219 c 0,47,48
 106 191 106 191 103 160 c 1,33,34
505 534 m 1,49,50
 462 553 462 553 398 553 c 0,51,52
 259 553 259 553 196 484 c 0,53,54
 174 460 174 460 170 426 c 1,55,56
 170 396 170 396 189 380.5 c 128,-1,57
 208 365 208 365 238 365 c 1,58,59
 243 364 243 364 253.5 364 c 128,-1,60
 264 364 264 364 288 368.5 c 128,-1,61
 312 373 312 373 344 382 c 128,-1,62
 376 391 376 391 408.5 403.5 c 128,-1,63
 441 416 441 416 468 430 c 0,64,65
 528 462 528 462 538 489 c 1,66,67
 538 506 538 506 530 520 c 128,-1,68
 522 534 522 534 505 534 c 1,49,50
EndSplineSet
EndChar

StartChar: nine
Encoding: 57 57 28
Width: 583
Flags: W
LayerCount: 2
Fore
SplineSet
247 0 m 1,0,1
 234 2 234 2 224.5 15 c 128,-1,2
 215 28 215 28 215 46 c 1,3,4
 311 103 311 103 352.5 146.5 c 128,-1,5
 394 190 394 190 416 233 c 128,-1,6
 438 276 438 276 442 331 c 1,7,8
 432 332 432 332 415 332 c 128,-1,9
 398 332 398 332 367.5 327.5 c 128,-1,10
 337 323 337 323 302 317 c 0,11,12
 222 304 222 304 199 304 c 128,-1,13
 176 304 176 304 153.5 305.5 c 128,-1,14
 131 307 131 307 100.5 319 c 128,-1,15
 70 331 70 331 44 358 c 1,16,17
 30 377 30 377 30 392 c 0,18,19
 30 466 30 466 131 538 c 0,20,21
 213 597 213 597 294 613 c 0,22,23
 314 617 314 617 331.5 617 c 128,-1,24
 349 617 349 617 365 612 c 0,25,26
 482 576 482 576 515 475 c 0,27,28
 527 438 527 438 527 412 c 128,-1,29
 527 386 527 386 525 355 c 128,-1,30
 523 324 523 324 506 271.5 c 128,-1,31
 489 219 489 219 460.5 171 c 128,-1,32
 432 123 432 123 397 86 c 0,33,34
 321 4 321 4 247 0 c 1,0,1
124 386 m 1,35,36
 170 366 170 366 238 366 c 0,37,38
 337 366 337 366 438 407 c 1,39,40
 442 424 442 424 442 437 c 128,-1,41
 442 450 442 450 440 466.5 c 128,-1,42
 438 483 438 483 426 502 c 0,43,44
 398 545 398 545 342 549 c 1,45,46
 195 549 195 549 143 464 c 0,47,48
 124 432 124 432 124 386 c 1,35,36
EndSplineSet
EndChar

StartChar: colon
Encoding: 58 58 29
Width: 171
Flags: W
LayerCount: 2
Fore
SplineSet
77 126 m 256,0,1
 77 141 77 141 90.5 155 c 128,-1,2
 104 169 104 169 121 169 c 128,-1,3
 138 169 138 169 147 158 c 128,-1,4
 156 147 156 147 156 134.5 c 128,-1,5
 156 122 156 122 146.5 111.5 c 128,-1,6
 137 101 137 101 129 101 c 128,-1,7
 121 101 121 101 114.5 101 c 128,-1,8
 108 101 108 101 92.5 106 c 128,-1,9
 77 111 77 111 77 126 c 256,0,1
45 318 m 1,10,11
 31 322 31 322 31 333 c 0,12,13
 31 348 31 348 46 358 c 128,-1,14
 61 368 61 368 70 369 c 1,15,16
 101 365 101 365 109.5 353.5 c 128,-1,17
 118 342 118 342 118 335 c 0,18,19
 118 314 118 314 92 308 c 1,20,21
 88 306 88 306 77.5 306 c 128,-1,22
 67 306 67 306 45 318 c 1,10,11
EndSplineSet
EndChar

StartChar: semicolon
Encoding: 59 59 30
Width: 127
Flags: W
LayerCount: 2
Fore
SplineSet
68 117 m 0,0,1
 96 117 96 117 96 85 c 128,-1,2
 96 53 96 53 92.5 16.5 c 128,-1,3
 89 -20 89 -20 77 -56 c 0,4,5
 49 -137 49 -137 -22 -166 c 1,6,7
 61 117 61 117 68 117 c 0,0,1
32 310 m 0,8,9
 26 314 26 314 27 327.5 c 128,-1,10
 28 341 28 341 39 350 c 128,-1,11
 50 359 50 359 62.5 359 c 128,-1,12
 75 359 75 359 85 350 c 128,-1,13
 95 341 95 341 96 328 c 0,14,15
 97 298 97 298 78 298 c 0,16,17
 47 298 47 298 32 310 c 0,8,9
EndSplineSet
EndChar

StartChar: less
Encoding: 60 60 31
Width: 487
Flags: W
LayerCount: 2
Fore
SplineSet
84 229 m 1,0,1
 116 254 116 254 159 288 c 128,-1,2
 202 322 202 322 246 356 c 0,3,4
 354 441 354 441 401 467 c 1,5,6
 414 467 414 467 420 445 c 0,7,8
 423 436 423 436 423 427 c 128,-1,9
 423 418 423 418 419 412 c 1,10,-1
 184 233 l 1,11,12
 199 225 199 225 227 212.5 c 128,-1,13
 255 200 255 200 289 183 c 0,14,15
 370 143 370 143 431 103 c 1,16,17
 430 102 430 102 427 95 c 128,-1,18
 424 88 424 88 420 80 c 0,19,20
 411 59 411 59 409 59 c 1,21,22
 379 78 379 78 323 97.5 c 128,-1,23
 267 117 267 117 233 130.5 c 128,-1,24
 199 144 199 144 170 158 c 0,25,26
 102 192 102 192 84 229 c 1,0,1
EndSplineSet
EndChar

StartChar: equal
Encoding: 61 61 32
Width: 504
Flags: W
LayerCount: 2
Fore
SplineSet
94 139 m 0,0,1
 70 139 70 139 70 174 c 0,2,3
 70 177 70 177 76.5 183.5 c 128,-1,4
 83 190 83 190 87 190 c 0,5,6
 164 203 164 203 229 210 c 0,7,8
 354 225 354 225 425 239 c 1,9,10
 459 239 459 239 459 203 c 0,11,12
 459 196 459 196 458 189 c 1,13,14
 401 189 401 189 357.5 181 c 128,-1,15
 314 173 314 173 274 164 c 0,16,17
 169 139 169 139 94 139 c 0,0,1
114 270 m 1,18,-1
 96 269 l 1,19,20
 66 269 66 269 64 287 c 1,21,-1
 84 323 l 1,22,23
 87 326 87 326 166 335 c 0,24,25
 330 352 330 352 362.5 358 c 128,-1,26
 395 364 395 364 401 364 c 128,-1,27
 407 364 407 364 414.5 359.5 c 128,-1,28
 422 355 422 355 422 345 c 0,29,30
 422 320 422 320 405 309 c 1,31,-1
 114 270 l 1,18,-1
EndSplineSet
EndChar

StartChar: greater
Encoding: 62 62 33
Width: 483
Flags: W
LayerCount: 2
Fore
SplineSet
118 48 m 1,0,1
 73 65 73 65 68 84 c 1,2,3
 68 88 68 88 68 91 c 0,4,5
 68 122 68 122 139 164 c 0,6,7
 244 225 244 225 276 249.5 c 128,-1,8
 308 274 308 274 314 297 c 1,9,-1
 50 396 l 1,10,-1
 100 445 l 1,11,12
 149 410 149 410 190.5 396 c 128,-1,13
 232 382 232 382 270.5 373.5 c 128,-1,14
 309 365 309 365 347 353.5 c 128,-1,15
 385 342 385 342 426 311 c 1,16,17
 400 280 400 280 360.5 248.5 c 128,-1,18
 321 217 321 217 277.5 184 c 128,-1,19
 234 151 234 151 191.5 117 c 128,-1,20
 149 83 149 83 118 48 c 1,0,1
EndSplineSet
EndChar

StartChar: question
Encoding: 63 63 34
Width: 518
Flags: W
LayerCount: 2
Fore
SplineSet
278 -2 m 1,0,1
 242 -2 242 -2 242 33 c 128,-1,2
 242 68 242 68 278 68 c 1,3,4
 285 70 285 70 293.5 70 c 128,-1,5
 302 70 302 70 311 59.5 c 128,-1,6
 320 49 320 49 320 33 c 128,-1,7
 320 17 320 17 311 6.5 c 128,-1,8
 302 -4 302 -4 293.5 -4 c 128,-1,9
 285 -4 285 -4 278 -2 c 1,0,1
280 273 m 0,10,11
 123 273 123 273 123 323 c 0,12,13
 123 331 123 331 127 341 c 1,14,15
 261 415 261 415 302 441 c 0,16,17
 432 523 432 523 432 576 c 0,18,19
 432 623 432 623 327 648 c 1,20,21
 284 648 284 648 219 636.5 c 128,-1,22
 154 625 154 625 120 619.5 c 128,-1,23
 86 614 86 614 52 614 c 0,24,25
 41 614 41 614 27.5 629 c 128,-1,26
 14 644 14 644 10 659 c 1,27,28
 136 700 136 700 251 700 c 0,29,30
 334 700 334 700 389 680 c 0,31,32
 498 642 498 642 498 569 c 0,33,34
 498 502 498 502 386 420 c 0,35,36
 326 376 326 376 228 332 c 1,37,-1
 343 299 l 1,38,-1
 343 276 l 1,39,40
 319 273 319 273 280 273 c 0,10,11
EndSplineSet
EndChar

StartChar: at
Encoding: 64 64 35
Width: 1068
Flags: W
LayerCount: 2
Fore
SplineSet
592 342 m 1,0,1
 485 251 485 251 408 251 c 0,2,3
 372 251 372 251 352 272 c 0,4,5
 329 295 329 295 329 323.5 c 128,-1,6
 329 352 329 352 343 381 c 0,7,8
 373 448 373 448 470 482 c 0,9,10
 518 498 518 498 584 498 c 0,11,12
 588 498 588 498 594 498.5 c 128,-1,13
 600 499 600 499 612.5 499 c 128,-1,14
 625 499 625 499 637.5 492.5 c 128,-1,15
 650 486 650 486 658 473 c 128,-1,16
 666 460 666 460 669.5 444 c 128,-1,17
 673 428 673 428 680 414 c 0,18,19
 695 381 695 381 729 381 c 0,20,21
 810 381 810 381 810 439 c 1,22,23
 801 519 801 519 711 576 c 0,24,25
 630 628 630 628 534 635 c 1,26,27
 450 635 450 635 373 604.5 c 128,-1,28
 296 574 296 574 237.5 519.5 c 128,-1,29
 179 465 179 465 144 390 c 128,-1,30
 109 315 109 315 109 226 c 1,31,32
 141 131 141 131 256 86 c 0,33,34
 321 61 321 61 432 48 c 1,35,36
 516 55 516 55 592.5 64.5 c 128,-1,37
 669 74 669 74 738 95 c 0,38,39
 887 140 887 140 991 249 c 1,40,41
 998 252 998 252 1005.5 252 c 128,-1,42
 1013 252 1013 252 1026.5 246.5 c 128,-1,43
 1040 241 1040 241 1042 225 c 1,44,45
 1040 144 1040 144 892 82 c 0,46,47
 774 32 774 32 604 8 c 0,48,49
 516 -5 516 -5 469.5 -5 c 128,-1,50
 423 -5 423 -5 411 -1 c 1,51,52
 273 -1 273 -1 170 36 c 0,53,54
 84 66 84 66 46 129 c 0,55,56
 27 162 27 162 27 207 c 0,57,58
 27 304 27 304 67.5 390.5 c 128,-1,59
 108 477 108 477 175.5 542 c 128,-1,60
 243 607 243 607 330.5 644.5 c 128,-1,61
 418 682 418 682 513 682 c 0,62,63
 649 682 649 682 746 624 c 0,64,65
 796 593 796 593 828 544.5 c 128,-1,66
 860 496 860 496 860 438 c 128,-1,67
 860 380 860 380 830 352 c 0,68,69
 784 308 784 308 711 308 c 128,-1,70
 638 308 638 308 592 342 c 1,0,1
574 420 m 1,71,72
 570 440 570 440 540 440 c 0,73,74
 506 440 506 440 470 423 c 0,75,76
 403 391 403 391 384 354 c 0,77,78
 378 343 378 343 378 334.5 c 128,-1,79
 378 326 378 326 382 318 c 1,80,81
 388 310 388 310 399 310 c 128,-1,82
 410 310 410 310 427 312 c 128,-1,83
 444 314 444 314 476 328 c 0,84,85
 554 364 554 364 574 420 c 1,71,72
EndSplineSet
EndChar

StartChar: A
Encoding: 65 65 36
Width: 656
Flags: W
LayerCount: 2
Fore
SplineSet
549 366 m 2,0,-1
 577 366 l 2,1,2
 594 366 594 366 609.5 363 c 128,-1,3
 625 360 625 360 625 341 c 1,4,5
 632 301 632 301 578 302 c 0,6,7
 563 303 563 303 550.5 304 c 128,-1,8
 538 305 538 305 530 304.5 c 128,-1,9
 522 304 522 304 523 299 c 0,10,11
 533 270 533 270 544.5 234 c 128,-1,12
 556 198 556 198 570 162 c 0,13,14
 606 73 606 73 638 34 c 1,15,16
 621 13 621 13 598.5 -1 c 128,-1,17
 576 -15 576 -15 574.5 -15 c 128,-1,18
 573 -15 573 -15 572 -14 c 2,19,-1
 431 283 l 1,20,-1
 158 216 l 1,21,-1
 148 174 l 1,22,23
 119 59 119 59 83 14 c 1,24,25
 77 4 77 4 58 12 c 0,26,27
 26 24 26 24 26 32 c 0,28,29
 26 34 26 34 47 90 c 128,-1,30
 68 146 68 146 89.5 203.5 c 128,-1,31
 111 261 111 261 134.5 324 c 128,-1,32
 158 387 158 387 179 444 c 128,-1,33
 200 501 200 501 217 546.5 c 128,-1,34
 234 592 234 592 241 612.5 c 128,-1,35
 248 633 248 633 250.5 648.5 c 128,-1,36
 253 664 253 664 258 675 c 0,37,38
 268 698 268 698 308 698 c 1,39,40
 351 674 351 674 374.5 635.5 c 128,-1,41
 398 597 398 597 414.5 553 c 128,-1,42
 431 509 431 509 447 464 c 128,-1,43
 463 419 463 419 490 382 c 0,44,45
 499 368 499 368 517 367 c 128,-1,46
 535 366 535 366 549 366 c 2,0,-1
299 582 m 1,47,48
 291 521 291 521 263 457 c 128,-1,49
 235 393 235 393 218 357.5 c 128,-1,50
 201 322 201 322 189 292 c 1,51,52
 257 292 257 292 356 332 c 0,53,54
 381 343 381 343 404 352 c 1,55,56
 357 553 357 553 299 582 c 1,47,48
EndSplineSet
EndChar

StartChar: B
Encoding: 66 66 37
Width: 728
Flags: W
LayerCount: 2
Fore
SplineSet
65 664 m 1,0,1
 139 680 139 680 205 680 c 128,-1,2
 271 680 271 680 322.5 675 c 128,-1,3
 374 670 374 670 426 656 c 0,4,5
 536 625 536 625 562 572 c 1,6,7
 569 561 569 561 569 546 c 0,8,9
 569 502 569 502 492 451 c 0,10,11
 441 417 441 417 346 382 c 1,12,13
 579 369 579 369 662 314 c 1,14,15
 708 285 708 285 708 246 c 0,16,17
 708 192 708 192 632 134 c 0,18,19
 549 72 549 72 420 31 c 0,20,21
 301 -7 301 -7 199 -7 c 0,22,23
 121 -7 121 -7 65 16 c 1,24,25
 63 80 63 80 60 148 c 0,26,27
 52 299 52 299 52 402.5 c 128,-1,28
 52 506 52 506 59 618 c 1,29,30
 48 618 48 618 39 620.5 c 128,-1,31
 30 623 30 623 30 640 c 0,32,33
 30 664 30 664 65 664 c 1,0,1
155 66 m 1,34,35
 316 75 316 75 419 104.5 c 128,-1,36
 522 134 522 134 567.5 168.5 c 128,-1,37
 613 203 613 203 613 235 c 0,38,39
 613 277 613 277 553 302 c 0,40,41
 488 328 488 328 380.5 328 c 128,-1,42
 273 328 273 328 131 299 c 1,43,-1
 155 66 l 1,34,35
248 615 m 2,44,-1
 223 615 l 2,45,46
 141 615 141 615 131 598 c 1,47,-1
 121 397 l 1,48,49
 211 397 211 397 340 440 c 0,50,51
 424 469 424 469 463 504 c 0,52,53
 483 522 483 522 483 541 c 128,-1,54
 483 560 483 560 468.5 572.5 c 128,-1,55
 454 585 454 585 431.5 593 c 128,-1,56
 409 601 409 601 381.5 605.5 c 128,-1,57
 354 610 354 610 328 612 c 0,58,59
 288 615 288 615 248 615 c 2,44,-1
EndSplineSet
EndChar

StartChar: C
Encoding: 67 67 38
Width: 725
Flags: W
LayerCount: 2
Fore
SplineSet
522 555 m 1,0,1
 457 619 457 619 378 619 c 0,2,3
 303 619 303 619 234 562 c 0,4,5
 147 490 147 490 114 376 c 0,6,7
 102 335 102 335 102 308 c 128,-1,8
 102 281 102 281 104 266 c 1,9,10
 104 167 104 167 171 114 c 0,11,12
 234 65 234 65 332 65 c 1,13,14
 466 76 466 76 589 168 c 0,15,16
 623 194 623 194 661 218 c 1,17,18
 675 218 675 218 689.5 214 c 128,-1,19
 704 210 704 210 704 191 c 1,20,21
 605 105 605 105 537 67 c 1,22,23
 411 -1 411 -1 309 -1 c 0,24,25
 302 -1 302 -1 296 -1 c 0,26,27
 185 -1 185 -1 106 68 c 0,28,29
 22 141 22 141 22 250 c 0,30,31
 22 332 22 332 51.5 407 c 128,-1,32
 81 482 81 482 132.5 539.5 c 128,-1,33
 184 597 184 597 254.5 631 c 128,-1,34
 325 665 325 665 406 665 c 0,35,36
 475 665 475 665 496 646 c 0,37,38
 522 623 522 623 522 555 c 1,0,1
EndSplineSet
EndChar

StartChar: D
Encoding: 68 68 39
Width: 664
Flags: W
LayerCount: 2
Fore
SplineSet
105 614 m 1,0,1
 179 640 179 640 301 640 c 0,2,3
 524 640 524 640 606 530 c 0,4,5
 638 488 638 488 638 423 c 1,6,7
 639 414 639 414 639 405 c 0,8,9
 639 305 639 305 522 202 c 1,10,11
 415 105 415 105 258 46 c 0,12,13
 154 6 154 6 86 6 c 0,14,15
 58 6 58 6 38 14 c 1,16,-1
 38 638 l 1,17,-1
 52 638 l 2,18,19
 75 638 75 638 89 630.5 c 128,-1,20
 103 623 103 623 105 614 c 1,0,1
571 415 m 1,21,22
 562 504 562 504 472 547 c 0,23,24
 405 579 405 579 304 579 c 1,25,-1
 286 578 l 1,26,27
 191 576 191 576 122 548 c 1,28,-1
 122 71 l 1,29,30
 192 71 192 71 297 122 c 0,31,32
 479 212 479 212 547 331 c 0,33,34
 571 373 571 373 571 415 c 1,21,22
EndSplineSet
EndChar

StartChar: E
Encoding: 69 69 40
Width: 606
Flags: W
LayerCount: 2
Fore
SplineSet
353 635 m 1,0,1
 453 635 453 635 486 622 c 1,2,-1
 486 573 l 1,3,4
 459 569 459 569 412 568.5 c 128,-1,5
 365 568 365 568 312 567 c 0,6,7
 164 564 164 564 110 552 c 1,8,9
 93 472 93 472 94 443 c 128,-1,10
 95 414 95 414 96 398 c 0,11,12
 100 359 100 359 100 306 c 1,13,14
 168 306 168 306 255.5 318 c 128,-1,15
 343 330 343 330 391 335.5 c 128,-1,16
 439 341 439 341 490 341 c 1,17,-1
 490 286 l 1,18,-1
 107 238 l 1,19,-1
 113 74 l 1,20,21
 212 74 212 74 315.5 83.5 c 128,-1,22
 419 93 419 93 472.5 97.5 c 128,-1,23
 526 102 526 102 586 102 c 1,24,25
 586 82 586 82 574 64 c 1,26,27
 550 32 550 32 531 45 c 1,28,29
 355 26 355 26 216.5 15 c 128,-1,30
 78 4 78 4 30 0 c 1,31,-1
 34 638 l 1,32,33
 60 630 60 630 130 630 c 1,34,-1
 353 635 l 1,0,1
EndSplineSet
EndChar

StartChar: F
Encoding: 70 70 41
Width: 709
Flags: W
LayerCount: 2
Fore
SplineSet
94 166 m 1,0,1
 38 174 38 174 38 192 c 0,2,3
 38 205 38 205 57 222 c 128,-1,4
 76 239 76 239 95 257 c 1,5,6
 95 317 95 317 77 391.5 c 128,-1,7
 59 466 59 466 51 507 c 128,-1,8
 43 548 43 548 43 582 c 128,-1,9
 43 616 43 616 53.5 625 c 128,-1,10
 64 634 64 634 84 634 c 128,-1,11
 104 634 104 634 110 628.5 c 128,-1,12
 116 623 116 623 118 615 c 128,-1,13
 120 607 120 607 120.5 598 c 128,-1,14
 121 589 121 589 124 581 c 0,15,16
 129 562 129 562 155 562 c 0,17,18
 222 563 222 563 289 573.5 c 128,-1,19
 356 584 356 584 422 595 c 0,20,21
 554 617 554 617 607.5 617 c 128,-1,22
 661 617 661 617 692 614 c 1,23,24
 693 595 693 595 696 581 c 128,-1,25
 699 567 699 567 699 558 c 0,26,27
 699 541 699 541 666 546 c 1,28,29
 143 527 143 527 143 468 c 0,30,31
 143 403 143 403 152 356.5 c 128,-1,32
 161 310 161 310 165.5 298 c 128,-1,33
 170 286 170 286 176 286 c 0,34,35
 233 286 233 286 291.5 296 c 128,-1,36
 350 306 350 306 408.5 317.5 c 128,-1,37
 467 329 467 329 526 339 c 128,-1,38
 585 349 585 349 642 349 c 0,39,40
 643 349 643 349 643 341.5 c 128,-1,41
 643 334 643 334 642 325 c 0,42,43
 639 301 639 301 642 301 c 1,44,45
 599 277 599 277 486 262 c 0,46,47
 437 255 437 255 386 249 c 128,-1,48
 335 243 335 243 292 236 c 0,49,50
 193 222 193 222 177 199 c 1,51,-1
 166 3 l 1,52,53
 155 -8 155 -8 141 -8 c 1,54,-1
 104 -5 l 2,55,56
 99 -5 99 -5 94 -5 c 1,57,-1
 94 166 l 1,0,1
EndSplineSet
EndChar

StartChar: G
Encoding: 71 71 42
Width: 709
Flags: W
LayerCount: 2
Fore
SplineSet
496 -49 m 1,0,-1
 496 134 l 1,1,2
 401 69 401 69 364 48 c 0,3,4
 278 1 278 1 213 1 c 0,5,6
 135 1 135 1 79 58 c 0,7,8
 22 117 22 117 22 193 c 1,9,10
 27 273 27 273 56 355 c 0,11,12
 116 529 116 529 255 610 c 0,13,14
 324 651 324 651 414 651 c 0,15,16
 416 651 416 651 418 651 c 2,17,-1
 445 652 l 1,18,19
 491 652 491 652 487 616 c 1,20,21
 407 612 407 612 337 579 c 128,-1,22
 267 546 267 546 215.5 490.5 c 128,-1,23
 164 435 164 435 134.5 361 c 128,-1,24
 105 287 105 287 105 210 c 128,-1,25
 105 133 105 133 145 99 c 128,-1,26
 185 65 185 65 248 65 c 0,27,28
 302 65 302 65 398 112 c 0,29,30
 459 142 459 142 489 180 c 0,31,32
 504 198 504 198 504 218 c 2,33,-1
 504 366 l 1,34,35
 474 366 474 366 364.5 343 c 128,-1,36
 255 320 255 320 238 317 c 1,37,38
 233 320 233 320 226 323.5 c 128,-1,39
 219 327 219 327 218 334 c 0,40,41
 216 349 216 349 262 380 c 1,42,43
 273 386 273 386 394 403.5 c 128,-1,44
 515 421 515 421 548 426 c 128,-1,45
 581 431 581 431 603 434 c 1,46,47
 613 432 613 432 628 434.5 c 128,-1,48
 643 437 643 437 656 436 c 0,49,50
 688 435 688 435 686 401 c 1,51,-1
 603 367 l 1,52,53
 584 306 584 306 584 137 c 1,54,-1
 586 -12 l 2,55,56
 586 -32 586 -32 586 -49 c 1,57,58
 556 -64 556 -64 528 -64 c 128,-1,59
 500 -64 500 -64 496 -49 c 1,0,-1
EndSplineSet
EndChar

StartChar: H
Encoding: 72 72 43
Width: 620
Flags: W
LayerCount: 2
Fore
SplineSet
155 282 m 1,0,1
 152 248 152 248 152 185.5 c 128,-1,2
 152 123 152 123 171 34 c 1,3,-1
 92 -6 l 1,4,-1
 56 266 l 1,5,6
 21 271 21 271 21 290 c 0,7,8
 21 304 21 304 37.5 323 c 128,-1,9
 54 342 54 342 62 354.5 c 128,-1,10
 70 367 70 367 71.5 382.5 c 128,-1,11
 73 398 73 398 76 438 c 128,-1,12
 79 478 79 478 81.5 523 c 128,-1,13
 84 568 84 568 86.5 608 c 128,-1,14
 89 648 89 648 89 664 c 1,15,16
 111 686 111 686 121 691 c 0,17,18
 146 704 146 704 155 681 c 1,19,-1
 149 366 l 1,20,21
 396 366 396 366 446 398 c 1,22,-1
 446 714 l 1,23,24
 452 731 452 731 502 731 c 0,25,26
 513 731 513 731 520 730 c 1,27,28
 520 711 520 711 521.5 672.5 c 128,-1,29
 523 634 523 634 524.5 585 c 128,-1,30
 526 536 526 536 528 481.5 c 128,-1,31
 530 427 530 427 532 378 c 0,32,33
 535 276 535 276 537 228 c 0,34,35
 544 108 544 108 586 34 c 1,36,37
 541 16 541 16 487 16 c 1,38,39
 441 130 441 130 438 315 c 1,40,41
 372 317 372 317 348 317 c 128,-1,42
 324 317 324 317 294 314 c 1,43,44
 232 310 232 310 155 282 c 1,0,1
EndSplineSet
EndChar

StartChar: I
Encoding: 73 73 44
Width: 155
Flags: W
LayerCount: 2
Fore
SplineSet
105 16 m 2,0,1
 105 -1 105 -1 81 -1 c 0,2,3
 63 -1 63 -1 38 16 c 1,4,5
 26 43 26 43 26 145 c 128,-1,6
 26 247 26 247 28 313.5 c 128,-1,7
 30 380 30 380 32 436 c 0,8,9
 38 558 38 558 38 565 c 1,10,11
 67 582 67 582 86 582 c 128,-1,12
 105 582 105 582 105 565 c 2,13,-1
 105 16 l 2,0,1
EndSplineSet
EndChar

StartChar: J
Encoding: 74 74 45
Width: 542
Flags: W
LayerCount: 2
Fore
SplineSet
429 327 m 1,0,-1
 426 516 l 2,1,2
 426 561 426 561 428.5 595.5 c 128,-1,3
 431 630 431 630 443 630 c 2,4,-1
 510 630 l 1,5,6
 510 614 510 614 513 568 c 128,-1,7
 516 522 516 522 517 475.5 c 128,-1,8
 518 429 518 429 518 396 c 128,-1,9
 518 363 518 363 517 310.5 c 128,-1,10
 516 258 516 258 507 195 c 0,11,12
 486 50 486 50 427 16 c 0,13,14
 382 -9 382 -9 284 4 c 0,15,16
 185 18 185 18 110 62 c 0,17,18
 22 113 22 113 9 182 c 1,19,20
 9 205 9 205 24 222 c 0,21,22
 51 254 51 254 73 254 c 1,23,24
 74 197 74 197 104 160 c 0,25,26
 174 76 174 76 329 76 c 0,27,28
 355 76 355 76 380 79 c 1,29,30
 429 105 429 105 429 327 c 1,0,-1
EndSplineSet
EndChar

StartChar: K
Encoding: 75 75 46
Width: 620
Flags: W
LayerCount: 2
Fore
SplineSet
43 15 m 0,0,1
 43 19 43 19 45.5 27 c 128,-1,2
 48 35 48 35 50.5 68 c 128,-1,3
 53 101 53 101 54.5 147.5 c 128,-1,4
 56 194 56 194 57.5 249.5 c 128,-1,5
 59 305 59 305 60.5 363 c 128,-1,6
 62 421 62 421 64 476.5 c 128,-1,7
 66 532 66 532 70 578 c 0,8,9
 79 678 79 678 94 697 c 1,10,11
 102 720 102 720 148 720 c 2,12,13
 148 720 148 720 162 720 c 1,14,15
 162 682 162 682 153.5 560 c 128,-1,16
 145 438 145 438 144 415 c 1,17,18
 209 448 209 448 269.5 486.5 c 128,-1,19
 330 525 330 525 382.5 557.5 c 128,-1,20
 435 590 435 590 478 611.5 c 128,-1,21
 521 633 521 633 542 633 c 0,22,23
 577 633 577 633 577 606 c 0,24,25
 577 585 577 585 545 559.5 c 128,-1,26
 513 534 513 534 465 506.5 c 128,-1,27
 417 479 417 479 360.5 451 c 128,-1,28
 304 423 304 423 256 396.5 c 128,-1,29
 208 370 208 370 176 347 c 128,-1,30
 144 324 144 324 144 307 c 1,31,32
 162 296 162 296 203.5 277.5 c 128,-1,33
 245 259 245 259 296.5 235.5 c 128,-1,34
 348 212 348 212 403.5 185.5 c 128,-1,35
 459 159 459 159 505 132 c 0,36,37
 609 73 609 73 609 34 c 0,38,39
 609 21 609 21 592 16 c 0,40,41
 585 14 585 14 578 14 c 2,42,-1
 568 14 l 2,43,44
 520 14 520 14 478 37 c 128,-1,45
 436 60 436 60 388.5 92 c 128,-1,46
 341 124 341 124 281 158.5 c 128,-1,47
 221 193 221 193 136 216 c 1,48,-1
 136 16 l 1,49,50
 134 12 134 12 118 7 c 0,51,52
 95 0 95 0 69 0 c 128,-1,53
 43 0 43 0 43 15 c 0,0,1
EndSplineSet
EndChar

StartChar: L
Encoding: 76 76 47
Width: 709
Flags: W
LayerCount: 2
Fore
SplineSet
80 437 m 1,0,-1
 78 686 l 1,1,-1
 158 683 l 1,2,-1
 149 97 l 1,3,-1
 676 82 l 1,4,5
 692 77 692 77 692 65 c 128,-1,6
 692 53 692 53 677 40 c 0,7,8
 648 14 648 14 611 14 c 0,9,10
 602 14 602 14 592 16 c 1,11,-1
 55 21 l 1,12,13
 80 114 80 114 80 437 c 1,0,-1
EndSplineSet
EndChar

StartChar: M
Encoding: 77 77 48
Width: 847
Flags: W
LayerCount: 2
Fore
SplineSet
123 167 m 1,0,-1
 127 94 l 2,1,2
 127 88 127 88 126.5 72 c 128,-1,3
 126 56 126 56 114.5 43.5 c 128,-1,4
 103 31 103 31 86.5 31 c 128,-1,5
 70 31 70 31 61 32 c 1,6,7
 28 32 28 32 28 61 c 0,8,9
 28 85 28 85 50 254.5 c 128,-1,10
 72 424 72 424 78 473 c 128,-1,11
 84 522 84 522 88.5 555.5 c 128,-1,12
 93 589 93 589 95 605 c 128,-1,13
 97 621 97 621 101 637 c 128,-1,14
 105 653 105 653 113 663 c 0,15,16
 128 682 128 682 171 682 c 1,17,18
 243 646 243 646 319 478 c 0,19,20
 373 358 373 358 391 326 c 128,-1,21
 409 294 409 294 426 282 c 1,22,-1
 626 630 l 1,23,24
 647 645 647 645 658 645 c 0,25,26
 690 645 690 645 707 616 c 128,-1,27
 724 587 724 587 735.5 545.5 c 128,-1,28
 747 504 747 504 755.5 454 c 128,-1,29
 764 404 764 404 770.5 349.5 c 128,-1,30
 777 295 777 295 783 243 c 0,31,32
 797 118 797 118 804.5 86 c 128,-1,33
 812 54 812 54 812 40.5 c 128,-1,34
 812 27 812 27 803 14.5 c 128,-1,35
 794 2 794 2 778 2 c 128,-1,36
 762 2 762 2 746 14.5 c 128,-1,37
 730 27 730 27 726.5 45.5 c 128,-1,38
 723 64 723 64 719.5 94 c 128,-1,39
 716 124 716 124 711 161.5 c 128,-1,40
 706 199 706 199 701 240.5 c 128,-1,41
 696 282 696 282 691 320 c 128,-1,42
 686 358 686 358 682 387.5 c 128,-1,43
 678 417 678 417 676 432 c 1,44,45
 676 452 676 452 675 469 c 128,-1,46
 674 486 674 486 667 490 c 128,-1,47
 660 494 660 494 645.5 480.5 c 128,-1,48
 631 467 631 467 605 426 c 0,49,50
 549 339 549 339 443 133 c 1,51,52
 429 108 429 108 406 122 c 1,53,54
 379 137 379 137 360 199 c 1,55,-1
 176 590 l 1,56,57
 152 542 152 542 132 272 c 0,58,59
 129 239 129 239 128 216 c 1,60,61
 123 191 123 191 123 167 c 1,0,-1
EndSplineSet
EndChar

StartChar: N
Encoding: 78 78 49
Width: 642
Flags: W
LayerCount: 2
Fore
SplineSet
608 353 m 1,0,1
 608 49 608 49 583 -3 c 1,2,-1
 510 3 l 1,3,4
 455 98 455 98 325 270 c 0,5,6
 274 338 274 338 223.5 405 c 128,-1,7
 173 472 173 472 131 538 c 1,8,9
 111 449 111 449 111 182 c 0,10,11
 111 80 111 80 107 10 c 1,12,13
 88 -8 88 -8 65.5 -8 c 128,-1,14
 43 -8 43 -8 34 -3.5 c 128,-1,15
 25 1 25 1 25 11.5 c 128,-1,16
 25 22 25 22 27.5 44.5 c 128,-1,17
 30 67 30 67 33.5 120 c 128,-1,18
 37 173 37 173 40 232 c 0,19,20
 48 386 48 386 48 497.5 c 128,-1,21
 48 609 48 609 46 681 c 1,22,23
 68 701 68 701 80 710 c 128,-1,24
 92 719 92 719 107 709.5 c 128,-1,25
 122 700 122 700 145.5 668.5 c 128,-1,26
 169 637 169 637 212 575 c 0,27,28
 359 366 359 366 501 183 c 1,29,-1
 520 681 l 1,30,31
 531 701 531 701 542 708.5 c 128,-1,32
 553 716 553 716 571 716 c 0,33,34
 606 716 606 716 606 652 c 1,35,-1
 605 615 l 1,36,-1
 608 353 l 1,0,1
EndSplineSet
EndChar

StartChar: O
Encoding: 79 79 50
Width: 686
Flags: W
LayerCount: 2
Fore
SplineSet
46 168 m 0,0,1
 22 222 22 222 22 295 c 128,-1,2
 22 368 22 368 45.5 424.5 c 128,-1,3
 69 481 69 481 110 522 c 0,4,5
 197 607 197 607 328 607 c 0,6,7
 465 607 465 607 554 544 c 0,8,9
 654 472 654 472 654 338 c 0,10,11
 654 172 654 172 577.5 93 c 128,-1,12
 501 14 501 14 339 14 c 0,13,14
 114 14 114 14 46 168 c 0,0,1
104 315 m 0,15,16
 104 79 104 79 342 79 c 0,17,18
 459 79 459 79 532 149 c 0,19,20
 605 218 605 218 605 330 c 0,21,22
 605 435 605 435 518 490 c 1,23,24
 444 538 444 538 331 538 c 0,25,26
 241 538 241 538 172 473 c 0,27,28
 104 408 104 408 104 315 c 0,15,16
EndSplineSet
EndChar

StartChar: P
Encoding: 80 80 51
Width: 653
Flags: W
LayerCount: 2
Fore
SplineSet
83 -2 m 1,0,-1
 38 0 l 1,1,-1
 38 233 l 1,2,3
 43 308 43 308 46 366 c 128,-1,4
 49 424 49 424 57 466 c 128,-1,5
 65 508 65 508 83 536.5 c 128,-1,6
 101 565 101 565 137 582 c 0,7,8
 202 614 202 614 376 614 c 0,9,10
 451 614 451 614 503 599.5 c 128,-1,11
 555 585 555 585 580 572 c 0,12,13
 637 544 637 544 637 494 c 128,-1,14
 637 444 637 444 608.5 403.5 c 128,-1,15
 580 363 580 363 534.5 333.5 c 128,-1,16
 489 304 489 304 432 285 c 128,-1,17
 375 266 375 266 318 254 c 0,18,19
 216 234 216 234 122 234 c 1,20,-1
 118 10 l 2,21,22
 118 -2 118 -2 83 -2 c 1,0,-1
121 347 m 0,23,24
 121 297 121 297 164 297 c 0,25,26
 170 297 170 297 185 297.5 c 128,-1,27
 200 298 200 298 237.5 300.5 c 128,-1,28
 275 303 275 303 317 310.5 c 128,-1,29
 359 318 359 318 401.5 330 c 128,-1,30
 444 342 444 342 478 360 c 0,31,32
 555 402 555 402 555 467 c 1,33,34
 540 532 540 532 436 550 c 0,35,36
 405 556 405 556 380.5 556 c 128,-1,37
 356 556 356 556 322.5 553.5 c 128,-1,38
 289 551 289 551 245 538 c 128,-1,39
 201 525 201 525 171 503 c 128,-1,40
 141 481 141 481 138 452 c 0,41,42
 137 440 137 440 133 424 c 0,43,44
 121 373 121 373 121 347 c 0,23,24
EndSplineSet
EndChar

StartChar: Q
Encoding: 81 81 52
Width: 730
Flags: W
LayerCount: 2
Fore
SplineSet
27 244 m 0,0,1
 27 308 27 308 49 380.5 c 128,-1,2
 71 453 71 453 114 509 c 128,-1,3
 157 565 157 565 220 599 c 128,-1,4
 283 633 283 633 365 633 c 1,5,6
 377 634 377 634 389 634 c 0,7,8
 519 634 519 634 593 556 c 0,9,10
 660 485 660 485 660 369 c 0,11,12
 660 255 660 255 592 158 c 1,13,14
 591 153 591 153 591 142.5 c 128,-1,15
 591 132 591 132 605.5 121 c 128,-1,16
 620 110 620 110 641.5 101 c 128,-1,17
 663 92 663 92 678 82 c 128,-1,18
 693 72 693 72 693 63.5 c 128,-1,19
 693 55 693 55 692 50 c 1,20,21
 681 42 681 42 662 37.5 c 128,-1,22
 643 33 643 33 636.5 34.5 c 128,-1,23
 630 36 630 36 619 43.5 c 128,-1,24
 608 51 608 51 598 60 c 0,25,26
 571 81 571 81 551 84 c 1,27,28
 513 48 513 48 434 22 c 1,29,30
 234 -41 234 -41 108 65 c 0,31,32
 27 134 27 134 27 244 c 0,0,1
333 65 m 0,33,34
 393 65 393 65 418 70 c 0,35,36
 472 81 472 81 493 116 c 1,37,-1
 310 282 l 2,38,39
 309 283 309 283 309 285 c 2,40,-1
 309 290 l 2,41,42
 309 308 309 308 323 312.5 c 128,-1,43
 337 317 337 317 357.5 317 c 128,-1,44
 378 317 378 317 402.5 301 c 128,-1,45
 427 285 427 285 450 263.5 c 128,-1,46
 473 242 473 242 495.5 219 c 128,-1,47
 518 196 518 196 542 182 c 1,48,49
 593 260 593 260 594 352 c 0,50,51
 595 380 595 380 595 415 c 1,52,53
 590 451 590 451 578 480 c 0,54,55
 554 541 554 541 457 560 c 0,56,57
 410 570 410 570 368 570 c 128,-1,58
 326 570 326 570 318 570 c 0,59,60
 256 570 256 570 204 512 c 0,61,62
 163 465 163 465 134 382 c 1,63,64
 109 315 109 315 109 258 c 0,65,66
 109 154 109 154 168 109.5 c 128,-1,67
 227 65 227 65 333 65 c 0,33,34
EndSplineSet
EndChar

StartChar: R
Encoding: 82 82 53
Width: 730
Flags: W
LayerCount: 2
Fore
SplineSet
118 594 m 1,0,1
 173 647 173 647 317 647 c 0,2,3
 407 647 407 647 468 629 c 128,-1,4
 529 611 529 611 559.5 591 c 128,-1,5
 590 571 590 571 590 547 c 0,6,7
 590 492 590 492 462 438 c 0,8,9
 443 429 443 429 362.5 401.5 c 128,-1,10
 282 374 282 374 254 364 c 0,11,12
 193 341 193 341 173 328 c 1,13,14
 173 323 173 323 177 319.5 c 128,-1,15
 181 316 181 316 196 307.5 c 128,-1,16
 211 299 211 299 241 283.5 c 128,-1,17
 271 268 271 268 324 239 c 0,18,19
 482 153 482 153 649 55 c 1,20,21
 657 49 657 49 670 38.5 c 128,-1,22
 683 28 683 28 683 15.5 c 128,-1,23
 683 3 683 3 675 -2 c 128,-1,24
 667 -7 667 -7 656 -9.5 c 128,-1,25
 645 -12 645 -12 633 -12 c 2,26,-1
 613 -12 l 2,27,28
 593 -12 593 -12 529.5 31 c 128,-1,29
 466 74 466 74 419.5 106 c 128,-1,30
 373 138 373 138 325 168 c 0,31,32
 212 241 212 241 146 263 c 1,33,-1
 146 34 l 2,34,35
 146 14 146 14 112 14 c 2,36,-1
 101 14 l 2,37,38
 80 14 80 14 70 35 c 0,39,40
 56 67 56 67 56 153 c 1,41,-1
 59 354 l 1,42,43
 59 502 59 502 46 614 c 1,44,45
 70 655 70 655 105 611 c 0,46,47
 113 601 113 601 118 594 c 1,0,1
456 582 m 1,48,-1
 391 583 l 1,49,50
 165 583 165 583 131 531 c 0,51,52
 121 517 121 517 121 495.5 c 128,-1,53
 121 474 121 474 123 458 c 0,54,55
 128 417 128 417 146 399 c 1,56,57
 149 398 149 398 156.5 398 c 128,-1,58
 164 398 164 398 184.5 402 c 128,-1,59
 205 406 205 406 239.5 416.5 c 128,-1,60
 274 427 274 427 313 442 c 128,-1,61
 352 457 352 457 388 473 c 0,62,63
 501 524 501 524 501 556 c 0,64,65
 501 574 501 574 456 582 c 1,48,-1
EndSplineSet
EndChar

StartChar: S
Encoding: 83 83 54
Width: 658
Flags: W
LayerCount: 2
Fore
SplineSet
30.5 120.5 m 128,-1,1
 46 135 46 135 54.5 140.5 c 128,-1,2
 63 146 63 146 66 149 c 1,3,4
 71 58 71 58 189 58 c 0,5,6
 282 58 282 58 406 116 c 1,7,8
 494 156 494 156 524 198 c 0,9,10
 534 211 534 211 534 219.5 c 128,-1,11
 534 228 534 228 531 233 c 1,12,-1
 116 326 l 2,13,14
 98 330 98 330 81 343 c 0,15,16
 50 365 50 365 50 383 c 0,17,18
 50 452 50 452 148 508 c 0,19,20
 256 569 256 569 437 600 c 0,21,22
 478 607 478 607 498 608 c 1,23,24
 504 606 504 606 516.5 604.5 c 128,-1,25
 529 603 529 603 542 600 c 0,26,27
 573 593 573 593 568 574 c 1,28,29
 568 540 568 540 438 520 c 0,30,31
 270 495 270 495 228.5 478 c 128,-1,32
 187 461 187 461 168.5 443 c 128,-1,33
 150 425 150 425 149 400 c 0,34,35
 149 395 149 395 172 389 c 128,-1,36
 195 383 195 383 227 374.5 c 128,-1,37
 259 366 259 366 310 352 c 0,38,39
 434 318 434 318 614 266 c 1,40,41
 624 244 624 244 624 225 c 0,42,43
 624 172 624 172 562 123 c 0,44,45
 492 68 492 68 368 30 c 0,46,47
 265 -1 265 -1 204 -1 c 0,48,49
 153 -1 153 -1 107 17 c 128,-1,50
 61 35 61 35 38 52 c 128,-1,51
 15 69 15 69 15 87.5 c 128,-1,0
 15 106 15 106 30.5 120.5 c 128,-1,1
EndSplineSet
EndChar

StartChar: T
Encoding: 84 84 55
Width: 638
Flags: W
LayerCount: 2
Fore
SplineSet
490 491 m 1,0,-1
 401 493 l 2,1,2
 366 493 366 493 320 486 c 1,3,4
 318 447 318 447 312 385 c 0,5,6
 291 165 291 165 291 99.5 c 128,-1,7
 291 34 291 34 293 7 c 1,8,-1
 199 0 l 1,9,-1
 230 494 l 1,10,-1
 17 506 l 2,11,12
 9 506 9 506 4.5 519 c 128,-1,13
 0 532 0 532 0 543 c 128,-1,14
 0 554 0 554 9 567 c 128,-1,15
 18 580 18 580 30 580 c 0,16,17
 103 577 103 577 177 570 c 0,18,19
 314 558 314 558 410 558 c 1,20,-1
 472 560 l 2,21,22
 545 562 545 562 617 576 c 1,23,24
 633 573 633 573 637 526 c 0,25,26
 638 516 638 516 638 510 c 1,27,28
 572 491 572 491 490 491 c 1,0,-1
EndSplineSet
EndChar

StartChar: U
Encoding: 85 85 56
Width: 575
Flags: W
LayerCount: 2
Fore
SplineSet
526 16 m 0,0,1
 526 -2 526 -2 495 -2 c 0,2,3
 480 -2 480 -2 467.5 2.5 c 128,-1,4
 455 7 455 7 452 10 c 1,5,-1
 462 138 l 1,6,7
 370 59 370 59 328 39 c 0,8,9
 262 6 262 6 193 6 c 0,10,11
 180 6 180 6 166 7 c 0,12,13
 20 23 20 23 20 194 c 0,14,15
 20 272 20 272 60 459 c 0,16,17
 73 517 73 517 77 565 c 1,18,19
 80 566 80 566 90 566 c 2,20,21
 90 566 90 566 102 566 c 1,22,23
 107 567 107 567 111 567 c 0,24,25
 143 567 143 567 143 519 c 0,26,27
 143 486 143 486 130 437 c 0,28,29
 90 276 90 276 90 214 c 0,30,31
 90 149 90 149 124 112 c 0,32,33
 146 88 146 88 193 83 c 0,34,35
 199 83 199 83 205 83 c 0,36,37
 368 83 368 83 419 240 c 0,38,39
 449 332 449 332 454 462 c 0,40,41
 457 522 457 522 459 581 c 1,42,43
 470 611 470 611 489 611 c 256,44,45
 508 611 508 611 531 594 c 1,46,47
 534 536 534 536 534 480 c 1,48,-1
 524 98 l 1,49,50
 524 57 524 57 526 16 c 0,0,1
EndSplineSet
EndChar

StartChar: V
Encoding: 86 86 57
Width: 642
Flags: W
LayerCount: 2
Fore
SplineSet
261 16 m 1,0,1
 234 88 234 88 161 230.5 c 128,-1,2
 88 373 88 373 64 420 c 1,3,4
 11 529 11 529 11 548 c 0,5,6
 11 561 11 561 62 581 c 1,7,8
 97 516 97 516 127.5 451.5 c 128,-1,9
 158 387 158 387 188 330 c 0,10,11
 259 191 259 191 304 138 c 1,12,13
 320 154 320 154 376 274 c 2,14,-1
 458 447 l 2,15,16
 524 587 524 587 543 630 c 1,17,18
 578 672 578 672 602 672 c 256,19,20
 626 672 626 672 626 630 c 1,21,-1
 342 7 l 1,22,23
 325 -4 325 -4 298.5 -4 c 128,-1,24
 272 -4 272 -4 261 16 c 1,0,1
EndSplineSet
EndChar

StartChar: W
Encoding: 87 87 58
Width: 963
Flags: W
LayerCount: 2
Fore
SplineSet
763 166 m 1,0,1
 813 328 813 328 879 758 c 1,2,3
 942 758 942 758 945 719 c 0,4,5
 946 707 946 707 946.5 702 c 128,-1,6
 947 697 947 697 943 667.5 c 128,-1,7
 939 638 939 638 931.5 585 c 128,-1,8
 924 532 924 532 913 462 c 128,-1,9
 902 392 902 392 888 316 c 0,10,11
 854 137 854 137 818 14 c 1,12,13
 782 -11 782 -11 762 6 c 1,14,15
 753 15 753 15 746 30.5 c 128,-1,16
 739 46 739 46 730 66 c 1,17,18
 717 83 717 83 682 156 c 128,-1,19
 647 229 647 229 625.5 272 c 128,-1,20
 604 315 604 315 584 352 c 0,21,22
 538 435 538 435 507 449 c 1,23,24
 471 393 471 393 379 142 c 0,25,26
 363 98 363 98 350 60.5 c 128,-1,27
 337 23 337 23 328 0 c 1,28,-1
 266 3 l 1,29,-1
 16 581 l 2,30,31
 14 586 14 586 14 591 c 128,-1,32
 14 596 14 596 17.5 601 c 128,-1,33
 21 606 21 606 30 610 c 0,34,35
 47 616 47 616 64 616 c 128,-1,36
 81 616 81 616 88.5 609.5 c 128,-1,37
 96 603 96 603 100.5 593 c 128,-1,38
 105 583 105 583 108 571 c 128,-1,39
 111 559 111 559 119.5 540 c 128,-1,40
 128 521 128 521 144.5 484 c 128,-1,41
 161 447 161 447 180 406 c 128,-1,42
 199 365 199 365 218 324.5 c 128,-1,43
 237 284 237 284 254 250 c 0,44,45
 290 175 290 175 299 166 c 1,46,47
 415 452 415 452 442 505.5 c 128,-1,48
 469 559 469 559 476 571 c 0,49,50
 487 588 487 588 493 588 c 0,51,52
 536 588 536 588 638 396 c 0,53,54
 666 345 666 345 690 298 c 0,55,56
 749 184 749 184 763 166 c 1,0,1
EndSplineSet
EndChar

StartChar: X
Encoding: 88 88 59
Width: 614
Flags: W
LayerCount: 2
Fore
SplineSet
298 225 m 1,0,1
 272 204 272 204 249.5 168 c 128,-1,2
 227 132 227 132 203.5 98 c 128,-1,3
 180 64 180 64 154 39 c 128,-1,4
 128 14 128 14 97.5 14 c 128,-1,5
 67 14 67 14 55 22.5 c 128,-1,6
 43 31 43 31 43 44.5 c 128,-1,7
 43 58 43 58 44 66 c 1,8,-1
 234 291 l 1,9,10
 182 355 182 355 146.5 400 c 128,-1,11
 111 445 111 445 88 474 c 128,-1,12
 65 503 65 503 52.5 519.5 c 128,-1,13
 40 536 40 536 34.5 543.5 c 128,-1,14
 29 551 29 551 27 555 c 1,15,16
 27 575 27 575 54 583 c 0,17,18
 77 590 77 590 94 581 c 1,19,-1
 286 349 l 1,20,-1
 525 631 l 1,21,-1
 583 584 l 1,22,-1
 343 299 l 1,23,24
 377 253 377 253 420.5 220.5 c 128,-1,25
 464 188 464 188 502 159.5 c 128,-1,26
 540 131 540 131 565.5 102 c 128,-1,27
 591 73 591 73 591 34 c 1,28,29
 588 11 588 11 570 3 c 0,30,31
 566 1 566 1 556 1 c 128,-1,32
 546 1 546 1 526 16 c 1,33,-1
 298 225 l 1,0,1
EndSplineSet
EndChar

StartChar: Y
Encoding: 89 89 60
Width: 547
Flags: W
LayerCount: 2
Fore
SplineSet
278 -18 m 1,0,1
 262 -18 262 -18 244 -8 c 0,2,3
 209 13 209 13 216 29 c 1,4,5
 228 50 228 50 247 113 c 2,6,-1
 274 203 l 1,7,8
 288 246 288 246 302 298 c 1,9,-1
 35 570 l 1,10,11
 28 579 28 579 28 586 c 128,-1,12
 28 593 28 593 36 597 c 0,13,14
 49 603 49 603 67.5 603 c 128,-1,15
 86 603 86 603 105.5 597 c 128,-1,16
 125 591 125 591 154 567 c 0,17,18
 211 519 211 519 341 364 c 1,19,20
 400 536 400 536 426 585.5 c 128,-1,21
 452 635 452 635 467.5 649.5 c 128,-1,22
 483 664 483 664 495.5 665 c 128,-1,23
 508 666 508 666 517 664 c 128,-1,24
 526 662 526 662 530 650 c 1,25,26
 499 584 499 584 470.5 500.5 c 128,-1,27
 442 417 442 417 412 328 c 0,28,29
 333 92 333 92 278 -18 c 1,0,1
EndSplineSet
EndChar

StartChar: Z
Encoding: 90 90 61
Width: 803
Flags: W
LayerCount: 2
Fore
SplineSet
770 16 m 1,0,1
 523 -3 523 -3 316 -3 c 0,2,3
 28 -3 28 -3 28 34 c 0,4,5
 28 42 28 42 38 50 c 1,6,-1
 470 532 l 1,7,8
 430 534 430 534 404.5 534 c 128,-1,9
 379 534 379 534 347 533.5 c 128,-1,10
 315 533 315 533 265 529 c 0,11,12
 118 517 118 517 62 514 c 0,13,14
 47 514 47 514 43.5 523 c 128,-1,15
 40 532 40 532 38 565 c 1,16,17
 261 589 261 589 547 599 c 0,18,19
 561 599 561 599 574 595 c 128,-1,20
 587 591 587 591 587 574 c 1,21,22
 559 496 559 496 394 320 c 0,23,24
 200 114 200 114 169 73 c 1,25,26
 224 62 224 62 298 62 c 128,-1,27
 372 62 372 62 448 66.5 c 128,-1,28
 524 71 524 71 606 78 c 128,-1,29
 688 85 688 85 762 90 c 1,30,-1
 770 16 l 1,0,1
EndSplineSet
EndChar

StartChar: bracketleft
Encoding: 91 91 62
Width: 435
Flags: W
LayerCount: 2
Fore
SplineSet
31 779 m 1,0,1
 64 784 64 784 103.5 793 c 128,-1,2
 143 802 143 802 184 811 c 0,3,4
 287 834 287 834 334 834 c 1,5,6
 334 821 334 821 336.5 807 c 128,-1,7
 339 793 339 793 328 787 c 1,8,9
 310 782 310 782 276 775.5 c 128,-1,10
 242 769 242 769 206 760 c 0,11,12
 118 740 118 740 93 722 c 1,13,14
 92 690 92 690 92 644 c 128,-1,15
 92 598 92 598 98 525 c 128,-1,16
 104 452 104 452 114 364 c 128,-1,17
 124 276 124 276 133 188 c 128,-1,18
 142 100 142 100 142 7 c 1,19,-1
 397 42 l 1,20,21
 397 37 397 37 399.5 26 c 128,-1,22
 402 15 402 15 404 2.5 c 128,-1,23
 406 -10 406 -10 406 -20 c 128,-1,24
 406 -30 406 -30 401 -31 c 2,25,-1
 65 -84 l 1,26,-1
 31 779 l 1,0,1
EndSplineSet
EndChar

StartChar: backslash
Encoding: 92 92 63
Width: 514
Flags: W
LayerCount: 2
Fore
SplineSet
442 -2 m 1,0,1
 200 270 200 270 28 540 c 0,2,3
 0 585 0 585 0 587 c 0,4,5
 0 588 0 588 10 573 c 1,6,7
 10 592 10 592 24.5 596 c 128,-1,8
 39 600 39 600 54 600 c 1,9,10
 112 543 112 543 163 469 c 128,-1,11
 214 395 214 395 265.5 318 c 128,-1,12
 317 241 317 241 372.5 168.5 c 128,-1,13
 428 96 428 96 494 42 c 1,14,15
 494 22 494 22 477 10 c 128,-1,16
 460 -2 460 -2 442 -2 c 1,0,1
EndSplineSet
EndChar

StartChar: bracketright
Encoding: 93 93 64
Width: 554
Flags: W
LayerCount: 2
Fore
SplineSet
419 658 m 0,0,1
 419 348 419 348 459 -69 c 1,2,3
 450 -70 450 -70 421 -72.5 c 128,-1,4
 392 -75 392 -75 353.5 -78.5 c 128,-1,5
 315 -82 315 -82 271 -85 c 128,-1,6
 227 -88 227 -88 188 -91 c 0,7,8
 111 -97 111 -97 83 -97 c 0,9,10
 80 -97 80 -97 80 -42 c 1,11,12
 130 -39 130 -39 176 -39 c 1,13,-1
 196 -40 l 1,14,15
 305 -40 305 -40 346 8 c 0,16,17
 370 35 370 35 370 102.5 c 128,-1,18
 370 170 370 170 366.5 253.5 c 128,-1,19
 363 337 363 337 356 422 c 0,20,21
 343 595 343 595 321 749 c 1,22,23
 310 750 310 750 291 750 c 128,-1,24
 272 750 272 750 241.5 744 c 128,-1,25
 211 738 211 738 176 729 c 0,26,27
 79 704 79 704 31 704 c 0,28,29
 28 704 28 704 20 709 c 0,30,31
 0 723 0 723 0 739 c 128,-1,32
 0 755 0 755 9 766 c 1,33,34
 9 768 9 768 135 786 c 128,-1,35
 261 804 261 804 296.5 808.5 c 128,-1,36
 332 813 332 813 358 817 c 1,37,-1
 388 819 l 1,38,39
 418 818 418 818 423 800 c 1,40,41
 419 734 419 734 419 658 c 0,0,1
EndSplineSet
EndChar

StartChar: asciicircum
Encoding: 94 94 65
Width: 314
Flags: W
LayerCount: 2
Fore
SplineSet
29.5 515 m 128,-1,1
 18 520 18 520 18 539 c 128,-1,2
 18 558 18 558 28.5 576 c 128,-1,3
 39 594 39 594 58 614 c 0,4,5
 100 658 100 658 162 687 c 1,6,7
 213 654 213 654 230 640 c 0,8,9
 258 615 258 615 294 559 c 1,10,11
 300 547 300 547 300 536.5 c 128,-1,12
 300 526 300 526 296 520 c 0,13,14
 285 504 285 504 260 519 c 1,15,16
 223 546 223 546 216.5 552 c 128,-1,17
 210 558 210 558 198 571 c 128,-1,18
 186 584 186 584 155 614 c 1,19,20
 94 572 94 572 72 536 c 0,21,22
 65 524 65 524 59 510 c 1,23,0
 41 510 41 510 29.5 515 c 128,-1,1
EndSplineSet
EndChar

StartChar: underscore
Encoding: 95 95 66
Width: 703
Flags: W
LayerCount: 2
Fore
SplineSet
33 0 m 1,0,-1
 32 18 l 1,1,-1
 32 38 l 1,2,3
 121 74 121 74 315 85 c 0,4,5
 534 97 534 97 625 117 c 1,6,7
 639 117 639 117 651.5 113 c 128,-1,8
 664 109 664 109 664 94 c 0,9,10
 664 73 664 73 647 50 c 1,11,12
 306 41 306 41 33 0 c 1,0,-1
EndSplineSet
EndChar

StartChar: grave
Encoding: 96 96 67
Width: 176
Flags: W
LayerCount: 2
Fore
SplineSet
47 588 m 0,0,1
 47 616 47 616 62 616 c 0,2,3
 71 616 71 616 84 602 c 2,4,-1
 151 537 l 1,5,-1
 134 494 l 1,6,7
 68 539 68 539 56 559 c 0,8,9
 52 567 52 567 49.5 575 c 128,-1,10
 47 583 47 583 47 588 c 0,0,1
EndSplineSet
EndChar

StartChar: a
Encoding: 97 97 68
Width: 521
Flags: W
LayerCount: 2
Fore
SplineSet
420 166 m 1,0,1
 345 48 345 48 220 20 c 0,2,3
 191 14 191 14 167.5 14 c 128,-1,4
 144 14 144 14 128.5 14.5 c 128,-1,5
 113 15 113 15 94 19 c 128,-1,6
 75 23 75 23 59 32 c 0,7,8
 22 53 22 53 22 91 c 1,9,10
 18 109 18 109 18 131.5 c 128,-1,11
 18 154 18 154 28 191 c 128,-1,12
 38 228 38 228 64.5 271 c 128,-1,13
 91 314 91 314 129 350 c 0,14,15
 208 426 208 426 300 448 c 0,16,17
 327 454 327 454 349.5 454 c 128,-1,18
 372 454 372 454 390 451 c 1,19,20
 448 451 448 451 468 372 c 0,21,22
 481 322 481 322 483.5 232.5 c 128,-1,23
 486 143 486 143 488.5 94.5 c 128,-1,24
 491 46 491 46 501 6 c 1,25,-1
 442 6 l 1,26,27
 438 33 438 33 436 54 c 128,-1,28
 434 75 434 75 432 93 c 0,29,30
 427 135 427 135 420 166 c 1,0,1
416 321 m 0,31,32
 416 379 416 379 359 379 c 1,33,34
 352 380 352 380 345 380 c 0,35,36
 272 380 272 380 191 310 c 0,37,38
 153 278 153 278 126 238 c 0,39,40
 86 181 86 181 86 136 c 0,41,42
 86 77 86 77 154 66 c 1,43,44
 244 68 244 68 326 148 c 0,45,46
 361 183 361 183 384 224 c 0,47,48
 416 279 416 279 416 321 c 0,31,32
EndSplineSet
EndChar

StartChar: b
Encoding: 98 98 69
Width: 575
Flags: W
LayerCount: 2
Fore
SplineSet
33 580 m 1,0,-1
 30 709 l 2,1,2
 30 725 30 725 41 734 c 128,-1,3
 52 743 52 743 68 743 c 128,-1,4
 84 743 84 743 97 734.5 c 128,-1,5
 110 726 110 726 107 711 c 1,6,-1
 114 279 l 1,7,8
 177 363 177 363 284 420 c 0,9,10
 373 468 373 468 440 468 c 0,11,12
 499 468 499 468 531 430 c 0,13,14
 555 400 555 400 555 350.5 c 128,-1,15
 555 301 555 301 536.5 264.5 c 128,-1,16
 518 228 518 228 488 194.5 c 128,-1,17
 458 161 458 161 419 132 c 128,-1,18
 380 103 380 103 340 80 c 0,19,20
 264 36 264 36 190 7 c 1,21,22
 184 9 184 9 170 8 c 128,-1,23
 156 7 156 7 136 7 c 0,24,25
 82 7 82 7 41 20 c 1,26,27
 31 115 31 115 31 309 c 1,28,-1
 33 580 l 1,0,-1
117 89 m 0,29,30
 117 78 117 78 137.5 78 c 128,-1,31
 158 78 158 78 188 86 c 128,-1,32
 218 94 218 94 260.5 113.5 c 128,-1,33
 303 133 303 133 346 164 c 0,34,35
 446 235 446 235 497 331 c 1,36,37
 484 388 484 388 419 388 c 0,38,39
 360 388 360 388 286 344 c 0,40,41
 181 281 181 281 136 188 c 0,42,43
 117 151 117 151 117 113 c 0,44,45
 117 103 117 103 117 97 c 128,-1,46
 117 91 117 91 117 89 c 0,29,30
EndSplineSet
EndChar

StartChar: c
Encoding: 99 99 70
Width: 648
Flags: W
LayerCount: 2
Fore
SplineSet
511 136 m 128,-1,1
 550 150 550 150 585.5 150 c 128,-1,2
 621 150 621 150 621 128 c 0,3,4
 621 123 621 123 618.5 112.5 c 128,-1,5
 616 102 616 102 591.5 87.5 c 128,-1,6
 567 73 567 73 531.5 60 c 128,-1,7
 496 47 496 47 454 36 c 128,-1,8
 412 25 412 25 372 17 c 0,9,10
 289 0 289 0 254 0 c 128,-1,11
 219 0 219 0 178.5 8 c 128,-1,12
 138 16 138 16 103 34 c 0,13,14
 22 76 22 76 22 158 c 0,15,16
 22 164 22 164 22 182 c 128,-1,17
 22 200 22 200 37 233.5 c 128,-1,18
 52 267 52 267 82 300.5 c 128,-1,19
 112 334 112 334 152 362 c 0,20,21
 236 422 236 422 328 440 c 0,22,23
 360 447 360 447 381.5 447 c 128,-1,24
 403 447 403 447 417 446.5 c 128,-1,25
 431 446 431 446 446 444.5 c 128,-1,26
 461 443 461 443 472 437 c 0,27,28
 498 424 498 424 498 386 c 0,29,30
 498 362 498 362 464 339 c 0,31,32
 455 333 455 333 448 328 c 1,33,34
 443 351 443 351 435 367 c 128,-1,35
 427 383 427 383 400 383 c 1,36,37
 282 358 282 358 197 308 c 0,38,39
 101 251 101 251 101 188 c 0,40,41
 101 181 101 181 102 173 c 1,42,43
 102 109 102 109 151 82 c 0,44,45
 188 62 188 62 246.5 62 c 128,-1,46
 305 62 305 62 348 75.5 c 128,-1,47
 391 89 391 89 431.5 105.5 c 128,-1,0
 472 122 472 122 511 136 c 128,-1,1
EndSplineSet
EndChar

StartChar: d
Encoding: 100 100 71
Width: 525
Flags: W
LayerCount: 2
Fore
SplineSet
494.5 615.5 m 128,-1,1
 489 524 489 524 484.5 436.5 c 128,-1,2
 480 349 480 349 480 250.5 c 128,-1,3
 480 152 480 152 494 42 c 1,4,5
 494 19 494 19 485.5 9 c 128,-1,6
 477 -1 477 -1 457 -1 c 0,7,8
 410 -1 410 -1 410 77 c 2,9,-1
 410 110 l 1,10,11
 268 4 268 4 170 4 c 0,12,13
 131 4 131 4 90.5 23 c 128,-1,14
 50 42 50 42 14 100 c 1,15,16
 9 124 9 124 9 149 c 128,-1,17
 9 174 9 174 18.5 209.5 c 128,-1,18
 28 245 28 245 57.5 283 c 128,-1,19
 87 321 87 321 129 350 c 0,20,21
 221 412 221 412 328 412 c 0,22,23
 374 412 374 412 416 398 c 1,24,25
 416 416 416 416 418.5 461 c 128,-1,26
 421 506 421 506 424 556 c 0,27,28
 430 686 430 686 432 709.5 c 128,-1,29
 434 733 434 733 437.5 749.5 c 128,-1,30
 441 766 441 766 448 778 c 0,31,32
 463 803 463 803 500 803 c 1,33,0
 500 707 500 707 494.5 615.5 c 128,-1,1
82 157 m 0,34,35
 82 78 82 78 139 78 c 0,36,37
 148 78 148 78 159 80 c 1,38,39
 200 80 200 80 260 104 c 0,40,41
 374 149 374 149 399 182 c 1,42,-1
 399 315 l 2,43,44
 399 350 399 350 342 350 c 1,45,46
 335 351 335 351 323.5 351 c 128,-1,47
 312 351 312 351 288 346 c 128,-1,48
 264 341 264 341 234 328 c 128,-1,49
 204 315 204 315 175 296 c 0,50,51
 114 255 114 255 91 200 c 0,52,53
 82 179 82 179 82 157 c 0,34,35
EndSplineSet
EndChar

StartChar: e
Encoding: 101 101 72
Width: 554
Flags: W
LayerCount: 2
Fore
SplineSet
231 70 m 0,0,1
 319 70 319 70 496 150 c 1,2,3
 507 150 507 150 514 142.5 c 128,-1,4
 521 135 521 135 521 125 c 1,5,6
 481 57 481 57 368 19 c 128,-1,7
 255 -19 255 -19 157 6 c 0,8,9
 46 35 46 35 22 131 c 1,10,11
 20 150 20 150 20 182 c 128,-1,12
 20 214 20 214 36.5 266.5 c 128,-1,13
 53 319 53 319 93 366 c 128,-1,14
 133 413 133 413 187 440 c 128,-1,15
 241 467 241 467 302 467 c 0,16,17
 360 467 360 467 432 427 c 0,18,19
 466 408 466 408 486 384 c 128,-1,20
 506 360 506 360 506 335 c 0,21,22
 506 328 506 328 505 321 c 0,23,24
 503 260 503 260 446 244 c 0,25,26
 421 237 421 237 388 237 c 1,27,-1
 244 243 l 1,28,29
 172 243 172 243 134 212 c 0,30,31
 112 195 112 195 103 161 c 1,32,33
 128 70 128 70 231 70 c 0,0,1
363 402 m 128,-1,35
 339 409 339 409 323 409 c 128,-1,36
 307 409 307 409 271 398.5 c 128,-1,37
 235 388 235 388 207 375 c 0,38,39
 138 343 138 343 138 308 c 1,40,41
 218 301 218 301 258 301 c 0,42,43
 369 301 369 301 408 320 c 1,44,45
 432 330 432 330 432 345 c 0,46,47
 432 363 432 363 409.5 379 c 128,-1,34
 387 395 387 395 363 402 c 128,-1,35
EndSplineSet
EndChar

StartChar: f
Encoding: 102 102 73
Width: 608
Flags: W
LayerCount: 2
Fore
SplineSet
601 334 m 0,0,1
 606 334 606 334 606 307 c 128,-1,2
 606 280 606 280 608 270 c 1,3,-1
 265 228 l 1,4,-1
 283 6 l 1,5,-1
 202 10 l 1,6,7
 202 100 202 100 182 216 c 1,8,-1
 52 166 l 1,9,10
 39 166 39 166 30 181 c 0,11,12
 14 207 14 207 14 228 c 1,13,-1
 166 282 l 1,14,15
 146 454 146 454 146 561.5 c 128,-1,16
 146 669 146 669 164 729 c 128,-1,17
 182 789 182 789 216.5 809.5 c 128,-1,18
 251 830 251 830 290 830 c 128,-1,19
 329 830 329 830 369.5 813 c 128,-1,20
 410 796 410 796 447 770 c 128,-1,21
 484 744 484 744 510 711.5 c 128,-1,22
 536 679 536 679 536 648 c 0,23,24
 536 624 536 624 531 614 c 1,25,26
 491 670 491 670 434 714 c 0,27,28
 366 766 366 766 306 766 c 0,29,30
 249 766 249 766 230 685 c 0,31,32
 221 643 221 643 221 566.5 c 128,-1,33
 221 490 221 490 225 426.5 c 128,-1,34
 229 363 229 363 249 299 c 1,35,36
 311 299 311 299 388 310 c 0,37,38
 536 333 536 333 601 334 c 0,0,1
EndSplineSet
EndChar

StartChar: g
Encoding: 103 103 74
Width: 528
Flags: W
LayerCount: 2
Fore
SplineSet
316 -428 m 1,0,-1
 302 -427 l 1,1,2
 272 -427 272 -427 238 -431 c 1,3,-1
 200 -431 l 2,4,5
 140 -431 140 -431 106 -408 c 0,6,7
 88 -396 88 -396 88 -372 c 1,8,-1
 318 -361 l 1,9,10
 424 -358 424 -358 424 -247 c 0,11,12
 424 -243 424 -243 424 -233.5 c 128,-1,13
 424 -224 424 -224 424 -192 c 2,14,-1
 429 130 l 2,15,16
 429 147 429 147 428 158 c 1,17,18
 266 7 266 7 116 7 c 0,19,20
 103 7 103 7 90 8 c 1,21,22
 23 8 23 8 23 67 c 1,23,24
 25 113 25 113 50 168.5 c 128,-1,25
 75 224 75 224 114.5 275.5 c 128,-1,26
 154 327 154 327 204 368 c 0,27,28
 281 431 281 431 353 431 c 0,29,30
 437 431 437 431 491 342 c 1,31,32
 507 104 507 104 507 4 c 128,-1,33
 507 -96 507 -96 504 -160 c 128,-1,34
 501 -224 501 -224 490.5 -277 c 128,-1,35
 480 -330 480 -330 463 -361 c 128,-1,36
 446 -392 446 -392 423 -406 c 0,37,38
 385 -428 385 -428 316 -428 c 1,0,-1
376 358 m 0,39,40
 364 362 364 362 342.5 362 c 128,-1,41
 321 362 321 362 287 344 c 128,-1,42
 253 326 253 326 222 297.5 c 128,-1,43
 191 269 191 269 164 234 c 0,44,45
 98 148 98 148 98 97 c 0,46,47
 98 81 98 81 107 73 c 1,48,49
 114 69 114 69 124.5 69 c 128,-1,50
 135 69 135 69 155 72.5 c 128,-1,51
 175 76 175 76 209.5 90.5 c 128,-1,52
 244 105 244 105 281 128 c 128,-1,53
 318 151 318 151 348 179 c 0,54,55
 418 243 418 243 418 304 c 0,56,57
 418 341 418 341 376 358 c 0,39,40
EndSplineSet
EndChar

StartChar: h
Encoding: 104 104 75
Width: 507
Flags: W
LayerCount: 2
Fore
SplineSet
497 14 m 1,0,1
 488 -3 488 -3 450.5 -3 c 128,-1,2
 413 -3 413 -3 413 24 c 0,3,4
 413 142 413 142 408 186 c 0,5,6
 399 283 399 283 370 290 c 1,7,8
 298 304 298 304 252.5 304 c 128,-1,9
 207 304 207 304 177.5 276.5 c 128,-1,10
 148 249 148 249 132.5 185.5 c 128,-1,11
 117 122 117 122 110 7 c 1,12,-1
 33 7 l 1,13,14
 35 64 35 64 35 113 c 128,-1,15
 35 162 35 162 33 229.5 c 128,-1,16
 31 297 31 297 28 377 c 1,17,18
 23 469 23 469 23 532.5 c 128,-1,19
 23 596 23 596 31 649 c 1,20,21
 41 668 41 668 60 668 c 0,22,23
 83 668 83 668 96 651.5 c 128,-1,24
 109 635 109 635 110 622 c 1,25,-1
 105 457 l 1,26,27
 105 364 105 364 114 318 c 1,28,29
 204 378 204 378 300 378 c 0,30,31
 331 378 331 378 366 373 c 1,32,33
 441 334 441 334 464 290 c 0,34,35
 475 267 475 267 478 241 c 128,-1,36
 481 215 481 215 482 182 c 0,37,38
 488 68 488 68 497 14 c 1,0,1
EndSplineSet
EndChar

StartChar: i
Encoding: 105 105 76
Width: 155
Flags: W
LayerCount: 2
Fore
SplineSet
117 470 m 1,0,1
 130 283 130 283 139 37 c 1,2,3
 133 6 133 6 91 6 c 0,4,5
 80 6 80 6 68.5 10.5 c 128,-1,6
 57 15 57 15 54 23 c 1,7,-1
 54 470 l 1,8,-1
 117 470 l 1,0,1
24 606 m 1,9,10
 24 641 24 641 65 641 c 0,11,12
 92 641 92 641 109 629 c 1,13,14
 112 618 112 618 112 607.5 c 128,-1,15
 112 597 112 597 104 587 c 256,16,17
 96 577 96 577 80 577 c 128,-1,18
 64 577 64 577 48 584.5 c 128,-1,19
 32 592 32 592 24 606 c 1,9,10
EndSplineSet
EndChar

StartChar: j
Encoding: 106 106 77
Width: 182
Flags: W
LayerCount: 2
Fore
SplineSet
173 -200 m 0,0,1
 173 -367 173 -367 85 -367 c 0,2,3
 76 -367 76 -367 62.5 -366.5 c 128,-1,4
 49 -366 49 -366 22.5 -362.5 c 128,-1,5
 -4 -359 -4 -359 -31 -350 c 0,6,7
 -96 -328 -96 -328 -114 -286 c 1,8,9
 -114 -283 -114 -283 -109 -272 c 0,10,11
 -100 -252 -100 -252 -100 -249 c 1,12,13
 -67 -274 -67 -274 -29 -296 c 128,-1,14
 9 -318 9 -318 52 -318 c 0,15,16
 81 -318 81 -318 98 -276 c 1,17,18
 114 -240 114 -240 114 -204 c 0,19,20
 114 -107 114 -107 100 48 c 0,21,22
 80 281 80 281 80 344.5 c 128,-1,23
 80 408 80 408 82 448 c 1,24,25
 79 472 79 472 104 484 c 0,26,27
 123 493 123 493 146 493 c 1,28,29
 137 431 137 431 137 395 c 128,-1,30
 137 359 137 359 137.5 320.5 c 128,-1,31
 138 282 138 282 143.5 208 c 128,-1,32
 149 134 149 134 156 60 c 0,33,34
 173 -101 173 -101 173 -200 c 0,0,1
110 707 m 1,35,36
 126 696 126 696 126 672 c 256,37,38
 126 648 126 648 108 643 c 0,39,40
 107 643 107 643 100.5 643 c 128,-1,41
 94 643 94 643 79 656 c 1,42,43
 79 688 79 688 94 702 c 0,44,45
 100 707 100 707 110 707 c 1,35,36
EndSplineSet
EndChar

StartChar: k
Encoding: 107 107 78
Width: 629
Flags: W
LayerCount: 2
Fore
SplineSet
126 182 m 1,0,-1
 131 95 l 1,1,2
 131 15 131 15 93 -2 c 0,3,4
 85 -5 85 -5 74 -5 c 128,-1,5
 63 -5 63 -5 48 0 c 1,6,-1
 49 374 l 2,7,8
 49 455 49 455 39.5 536.5 c 128,-1,9
 30 618 30 618 30 699 c 0,10,11
 30 731 30 731 64 731 c 2,12,-1
 72 731 l 2,13,14
 79 731 79 731 81 730 c 1,15,16
 96 668 96 668 101 580 c 0,17,18
 112 385 112 385 121 318 c 1,19,20
 138 327 138 327 197 369 c 128,-1,21
 256 411 256 411 292 436.5 c 128,-1,22
 328 462 328 462 360 484 c 0,23,24
 435 533 435 533 454 533 c 0,25,26
 470 533 470 533 479 514 c 1,27,28
 429 451 429 451 318 374 c 0,29,30
 273 343 273 343 228.5 312.5 c 128,-1,31
 184 282 184 282 147 249 c 1,32,33
 214 231 214 231 274 211.5 c 128,-1,34
 334 192 334 192 390 176 c 0,35,36
 519 138 519 138 612 133 c 1,37,38
 612 106 612 106 607 98 c 0,39,40
 598 84 598 84 570 82 c 1,41,-1
 562 82 l 1,42,43
 501 99 501 99 400 120 c 0,44,45
 201 161 201 161 126 182 c 1,0,-1
EndSplineSet
EndChar

StartChar: l
Encoding: 108 108 79
Width: 161
Flags: W
LayerCount: 2
Fore
SplineSet
41 484.5 m 128,-1,1
 39 527 39 527 38.5 547.5 c 128,-1,2
 38 568 38 568 22 648 c 1,3,4
 31 660 31 660 39.5 671 c 128,-1,5
 48 682 48 682 64 682 c 0,6,7
 99 682 99 682 118 387 c 1,8,9
 128 216 128 216 128 45 c 0,10,11
 128 -1 128 -1 64 -1 c 1,12,-1
 56 0 l 1,13,14
 56 52 56 52 53 133 c 128,-1,15
 50 214 50 214 48.5 274 c 128,-1,16
 47 334 47 334 45 388 c 128,-1,0
 43 442 43 442 41 484.5 c 128,-1,1
EndSplineSet
EndChar

StartChar: m
Encoding: 109 109 80
Width: 797
Flags: W
LayerCount: 2
Fore
SplineSet
110 16 m 1,0,1
 69 -1 69 -1 55.5 -1 c 128,-1,2
 42 -1 42 -1 37 2 c 128,-1,3
 32 5 32 5 26 16 c 1,4,5
 26 49 26 49 28.5 99 c 128,-1,6
 31 149 31 149 33 206 c 128,-1,7
 35 263 35 263 35 321 c 128,-1,8
 35 379 35 379 29 427 c 1,9,10
 29 459 29 459 72 459 c 0,11,12
 82 459 82 459 87.5 423 c 128,-1,13
 93 387 93 387 95.5 367 c 128,-1,14
 98 347 98 347 100 338 c 1,15,16
 126 385 126 385 203 412 c 1,17,18
 244 425 244 425 280 425 c 128,-1,19
 316 425 316 425 343.5 416.5 c 128,-1,20
 371 408 371 408 390.5 385.5 c 128,-1,21
 410 363 410 363 410 326 c 1,22,23
 436 375 436 375 527 414 c 1,24,25
 610 451 610 451 676 451 c 0,26,27
 771 451 771 451 769 379 c 1,28,-1
 790 7 l 2,29,30
 790 2 790 2 761 0 c 0,31,32
 705 -4 705 -4 705 10 c 0,33,34
 704 30 704 30 704 50 c 2,35,-1
 709 211 l 1,36,37
 709 324 709 324 687 390 c 1,38,39
 621 385 621 385 585.5 368.5 c 128,-1,40
 550 352 550 352 523 327.5 c 128,-1,41
 496 303 496 303 475 262 c 0,42,43
 428 170 428 170 428 18 c 1,44,45
 422 -3 422 -3 389 -3 c 0,46,47
 367 -3 367 -3 353 4.5 c 128,-1,48
 339 12 339 12 342 18 c 1,49,50
 361 124 361 124 361 183 c 0,51,52
 361 230 361 230 351.5 272.5 c 128,-1,53
 342 315 342 315 328 370 c 1,54,55
 184 370 184 370 134 255 c 0,56,57
 112 204 112 204 109.5 159.5 c 128,-1,58
 107 115 107 115 107 83.5 c 128,-1,59
 107 52 107 52 110 16 c 1,0,1
EndSplineSet
EndChar

StartChar: n
Encoding: 110 110 81
Width: 512
Flags: W
LayerCount: 2
Fore
SplineSet
417 219 m 1,0,1
 417 338 417 338 404 394 c 1,2,3
 412 409 412 409 380 409 c 0,4,5
 346 409 346 409 292 392 c 128,-1,6
 238 375 238 375 204 358 c 0,7,8
 123 319 123 319 114 282 c 1,9,-1
 114 10 l 1,10,-1
 47 10 l 1,11,12
 34 44 34 44 34 201 c 0,13,14
 34 341 34 341 39.5 407 c 128,-1,15
 45 473 45 473 48 482 c 1,16,17
 74 499 74 499 90 499 c 0,18,19
 115 499 115 499 115 440 c 0,20,21
 115 417 115 417 112.5 395.5 c 128,-1,22
 110 374 110 374 110 366 c 1,23,24
 272 485 272 485 361 485 c 0,25,26
 462 485 462 485 476 322 c 1,27,28
 482 265 482 265 482 164 c 1,29,-1
 481 85 l 2,30,31
 481 41 481 41 483 0 c 1,32,33
 473 -6 473 -6 467 -6 c 1,34,35
 464 -5 464 -5 454 -3 c 128,-1,36
 444 -1 444 -1 428 0 c 1,37,38
 418 40 418 40 417 81.5 c 128,-1,39
 416 123 416 123 416 158 c 2,40,-1
 417 219 l 1,0,1
EndSplineSet
EndChar

StartChar: o
Encoding: 111 111 82
Width: 576
Flags: W
LayerCount: 2
Fore
SplineSet
52 190 m 0,0,1
 52 308 52 308 154 380 c 0,2,3
 235 437 235 437 349 449 c 0,4,5
 355 449 355 449 377 449 c 128,-1,6
 399 449 399 449 436 436 c 0,7,8
 518 408 518 408 548 337 c 0,9,10
 560 309 560 309 560 289.5 c 128,-1,11
 560 270 560 270 559 262 c 1,12,13
 559 137 559 137 464 65 c 0,14,15
 376 -1 376 -1 244 -1 c 0,16,17
 149 -1 149 -1 100.5 43 c 128,-1,18
 52 87 52 87 52 190 c 0,0,1
121 166 m 1,19,20
 121 104 121 104 154 82 c 0,21,22
 179 66 179 66 238 66 c 128,-1,23
 297 66 297 66 342 75 c 128,-1,24
 387 84 387 84 422 106 c 0,25,26
 497 154 497 154 497 255 c 0,27,28
 497 315 497 315 465 353 c 0,29,30
 430 394 430 394 373 394 c 1,31,32
 334 387 334 387 294.5 379 c 128,-1,33
 255 371 255 371 220 348 c 0,34,35
 144 299 144 299 121 166 c 1,19,20
EndSplineSet
EndChar

StartChar: p
Encoding: 112 112 83
Width: 570
Flags: W
LayerCount: 2
Fore
SplineSet
123 401 m 1,0,1
 259 448 259 448 358 448 c 0,2,3
 484 448 484 448 526 382 c 0,4,5
 545 351 545 351 545 315 c 0,6,7
 545 265 545 265 513.5 212 c 128,-1,8
 482 159 482 159 430 116 c 0,9,10
 309 17 309 17 136 -7 c 1,11,12
 136 -18 136 -18 136.5 -42.5 c 128,-1,13
 137 -67 137 -67 137.5 -97 c 128,-1,14
 138 -127 138 -127 138.5 -161 c 128,-1,15
 139 -195 139 -195 140 -226 c 0,16,17
 143 -303 143 -303 144.5 -314 c 128,-1,18
 146 -325 146 -325 146 -332 c 0,19,20
 146 -357 146 -357 130 -369.5 c 128,-1,21
 114 -382 114 -382 88 -382 c 0,22,23
 83 -382 83 -382 78 -382 c 1,24,-1
 62 422 l 1,25,26
 71 435 71 435 86 434 c 128,-1,27
 101 433 101 433 110 426 c 128,-1,28
 119 419 119 419 123 401 c 1,0,1
415 366 m 0,29,30
 382 383 382 383 344.5 383 c 128,-1,31
 307 383 307 383 270 376 c 0,32,33
 186 360 186 360 146 305 c 0,34,35
 128 279 128 279 128 241 c 0,36,37
 128 237 128 237 128 233 c 2,38,-1
 128 60 l 1,39,40
 334 106 334 106 420 188 c 0,41,42
 470 235 470 235 470 285 c 0,43,44
 470 338 470 338 415 366 c 0,29,30
EndSplineSet
EndChar

StartChar: q
Encoding: 113 113 84
Width: 526
Flags: W
LayerCount: 2
Fore
SplineSet
485 -354 m 1,0,-1
 458 -355 l 1,1,-1
 435 -355 l 1,2,-1
 420 82 l 1,3,4
 381 45 381 45 302 20 c 0,5,6
 230 -3 230 -3 173 -3 c 0,7,8
 127 -3 127 -3 96.5 10 c 128,-1,9
 66 23 66 23 51.5 38.5 c 128,-1,10
 37 54 37 54 36.5 71 c 128,-1,11
 36 88 36 88 36 98 c 0,12,13
 36 156 36 156 64 211 c 128,-1,14
 92 266 92 266 144 310 c 128,-1,15
 196 354 196 354 258.5 377 c 128,-1,16
 321 400 321 400 380 400 c 2,17,-1
 394 400 l 2,18,19
 423 400 423 400 447 379 c 128,-1,20
 471 358 471 358 487 332 c 1,21,22
 487 158 487 158 488 -11 c 128,-1,23
 489 -180 489 -180 500 -354 c 1,24,-1
 485 -354 l 1,0,-1
400 286 m 1,25,26
 400 333 400 333 380 333 c 0,27,28
 279 333 279 333 198 274 c 1,29,30
 112 209 112 209 112 112 c 0,31,32
 112 64 112 64 166 62 c 0,33,34
 181 62 181 62 205.5 62 c 128,-1,35
 230 62 230 62 265 68.5 c 128,-1,36
 300 75 300 75 328 92 c 1,37,38
 394 129 394 129 394 204 c 1,39,-1
 400 286 l 1,25,26
EndSplineSet
EndChar

StartChar: r
Encoding: 114 114 85
Width: 565
Flags: W
LayerCount: 2
Fore
SplineSet
518 365 m 1,0,1
 476 395 476 395 410 395 c 0,2,3
 348 395 348 395 295 372 c 0,4,5
 195 330 195 330 158 264 c 0,6,7
 142 234 142 234 142 200 c 0,8,9
 142 194 142 194 142 166.5 c 128,-1,10
 142 139 142 139 152 92.5 c 128,-1,11
 162 46 162 46 162 -2 c 1,12,13
 141 -3 141 -3 128 -7 c 128,-1,14
 115 -11 115 -11 106 -11 c 128,-1,15
 97 -11 97 -11 90.5 -3 c 128,-1,16
 84 5 84 5 76 28 c 1,17,18
 75 34 75 34 72 62 c 128,-1,19
 69 90 69 90 64.5 130 c 128,-1,20
 60 170 60 170 54.5 217.5 c 128,-1,21
 49 265 49 265 44 311 c 0,22,23
 33 411 33 411 27 458 c 1,24,25
 27 482 27 482 62 482 c 0,26,27
 83 482 83 482 95 464.5 c 128,-1,28
 107 447 107 447 114 424.5 c 128,-1,29
 121 402 121 402 123.5 380 c 128,-1,30
 126 358 126 358 128 349 c 1,31,32
 260 467 260 467 456 467 c 0,33,34
 478 467 478 467 502 466 c 1,35,36
 508 467 508 467 517 467 c 128,-1,37
 526 467 526 467 535 455 c 0,38,39
 546 441 546 441 546 421 c 0,40,41
 546 371 546 371 518 365 c 1,0,1
EndSplineSet
EndChar

StartChar: s
Encoding: 115 115 86
Width: 514
Flags: W
LayerCount: 2
Fore
SplineSet
369 258 m 0,0,1
 479 258 479 258 479 202 c 0,2,3
 479 160 479 160 418 104 c 0,4,5
 327 21 327 21 173 -29 c 1,6,7
 166 -29 166 -29 157.5 -15 c 128,-1,8
 149 -1 149 -1 144.5 6.5 c 128,-1,9
 140 14 140 14 138 16 c 1,10,11
 253 54 253 54 327 108 c 0,12,13
 377 144 377 144 377 167 c 128,-1,14
 377 190 377 190 318 190 c 128,-1,15
 259 190 259 190 145 162 c 1,16,17
 93 164 93 164 55 199 c 0,18,19
 22 230 22 230 22 261.5 c 128,-1,20
 22 293 22 293 40 319.5 c 128,-1,21
 58 346 58 346 88 369 c 128,-1,22
 118 392 118 392 158 411 c 0,23,24
 256 458 256 458 361 458 c 0,25,26
 392 458 392 458 421 452 c 1,27,28
 445 452 445 452 449 431 c 128,-1,29
 453 410 453 410 453 362 c 1,30,31
 394 389 394 389 320 389 c 0,32,33
 228 389 228 389 168 352 c 1,34,35
 106 316 106 316 104 258 c 0,36,37
 104 230 104 230 145 230 c 1,38,-1
 218 238 l 1,39,40
 312 258 312 258 369 258 c 0,0,1
EndSplineSet
EndChar

StartChar: t
Encoding: 116 116 87
Width: 414
Flags: W
LayerCount: 2
Fore
SplineSet
178 96 m 1,0,-1
 180 256 l 2,1,2
 180 294 180 294 173 321 c 1,3,-1
 18 321 l 1,4,-1
 16 390 l 1,5,-1
 166 390 l 1,6,-1
 166 648 l 1,7,8
 169 657 169 657 178 666 c 0,9,10
 192 680 192 680 201.5 680 c 128,-1,11
 211 680 211 680 218 678 c 128,-1,12
 225 676 225 676 233 664 c 1,13,14
 249 598 249 598 249 465 c 0,15,16
 249 432 249 432 252 400 c 1,17,18
 284 404 284 404 316 404 c 2,19,20
 316 404 316 404 368 404 c 0,21,22
 387 404 387 404 403 406 c 1,23,-1
 400 334 l 1,24,-1
 254 338 l 1,25,-1
 259 -7 l 1,26,27
 241 -15 241 -15 228 -15 c 0,28,29
 178 -15 178 -15 178 96 c 1,0,-1
EndSplineSet
EndChar

StartChar: u
Encoding: 117 117 88
Width: 520
Flags: W
LayerCount: 2
Fore
SplineSet
22 133 m 1,0,1
 22 149 22 149 19.5 177.5 c 128,-1,2
 17 206 17 206 15 240 c 128,-1,3
 13 274 13 274 13 309 c 128,-1,4
 13 344 13 344 19 373 c 0,5,6
 32 438 32 438 73 438 c 1,7,8
 101 430 101 430 110.5 418 c 128,-1,9
 120 406 120 406 120 388.5 c 128,-1,10
 120 371 120 371 111 345 c 0,11,12
 78 258 78 258 78 188 c 0,13,14
 78 165 78 165 81 139 c 1,15,16
 97 72 97 72 191 72 c 0,17,18
 240 72 240 72 284 89 c 0,19,20
 368 120 368 120 398 162 c 1,21,22
 407 208 407 208 407 242.5 c 128,-1,23
 407 277 407 277 404.5 304 c 128,-1,24
 402 331 402 331 398.5 363.5 c 128,-1,25
 395 396 395 396 394 435 c 1,26,27
 407 441 407 441 419.5 441 c 128,-1,28
 432 441 432 441 445.5 428 c 128,-1,29
 459 415 459 415 468.5 379 c 128,-1,30
 478 343 478 343 481 294.5 c 128,-1,31
 484 246 484 246 484.5 194 c 128,-1,32
 485 142 485 142 485 93.5 c 128,-1,33
 485 45 485 45 489 10 c 1,34,35
 477 -1 477 -1 466 -1 c 0,36,37
 426 -1 426 -1 407 79 c 1,38,39
 394 68 394 68 363 52 c 0,40,41
 297 16 297 16 207 4 c 0,42,43
 190 2 190 2 169 2 c 128,-1,44
 148 2 148 2 116.5 10 c 128,-1,45
 85 18 85 18 57 47 c 128,-1,46
 29 76 29 76 22 133 c 1,0,1
EndSplineSet
EndChar

StartChar: v
Encoding: 118 118 89
Width: 531
Flags: W
LayerCount: 2
Fore
SplineSet
36 387 m 0,0,1
 34 392 34 392 34 398.5 c 128,-1,2
 34 405 34 405 39 416 c 128,-1,3
 44 427 44 427 53.5 435 c 128,-1,4
 63 443 63 443 74.5 442.5 c 128,-1,5
 86 442 86 442 93 428 c 2,6,-1
 261 116 l 1,7,8
 269 128 269 128 286.5 160.5 c 128,-1,9
 304 193 304 193 326.5 234 c 128,-1,10
 349 275 349 275 373.5 319.5 c 128,-1,11
 398 364 398 364 419 401 c 0,12,13
 467 486 467 486 476 486 c 0,14,15
 497 486 497 486 506.5 470.5 c 128,-1,16
 516 455 516 455 516 447 c 128,-1,17
 516 439 516 439 516 436 c 1,18,19
 460 314 460 314 412.5 211 c 128,-1,20
 365 108 365 108 349.5 77.5 c 128,-1,21
 334 47 334 47 322 29 c 0,22,23
 301 -2 301 -2 281 -2 c 128,-1,24
 261 -2 261 -2 235 29.5 c 128,-1,25
 209 61 209 61 176 114 c 0,26,27
 118 210 118 210 36 387 c 0,0,1
EndSplineSet
EndChar

StartChar: w
Encoding: 119 119 90
Width: 828
Flags: W
LayerCount: 2
Fore
SplineSet
407 276 m 1,0,1
 385 203 385 203 370.5 141 c 128,-1,2
 356 79 356 79 342 38 c 1,3,4
 320 -21 320 -21 292 -21 c 0,5,6
 277 -21 277 -21 258 -7 c 1,7,8
 212 42 212 42 128 210 c 0,9,10
 46 374 46 374 46 415 c 0,11,12
 46 433 46 433 57 437.5 c 128,-1,13
 68 442 68 442 82 438 c 0,14,15
 116 428 116 428 130 407 c 0,16,17
 137 397 137 397 147 372 c 2,18,-1
 172 310 l 2,19,20
 214 205 214 205 255 118 c 1,21,22
 277 152 277 152 297 206 c 2,23,-1
 328 292 l 2,24,25
 368 405 368 405 400 407 c 1,26,27
 425 423 425 423 550 230 c 0,28,29
 603 148 603 148 616 132 c 1,30,31
 625 132 625 132 637.5 192 c 128,-1,32
 650 252 650 252 659.5 293.5 c 128,-1,33
 669 335 669 335 683 371 c 0,34,35
 716 455 716 455 759 455 c 0,36,37
 773 455 773 455 778.5 445.5 c 128,-1,38
 784 436 784 436 784 430 c 128,-1,39
 784 424 784 424 784 421 c 0,40,41
 772 387 772 387 759 343.5 c 128,-1,42
 746 300 746 300 731.5 254.5 c 128,-1,43
 717 209 717 209 702.5 164.5 c 128,-1,44
 688 120 688 120 674 84 c 1,45,46
 641 6 641 6 619 0 c 1,47,48
 602 -8 602 -8 564 39 c 0,49,50
 547 61 547 61 528 91 c 128,-1,51
 509 121 509 121 488 153 c 0,52,53
 437 233 437 233 407 276 c 1,0,1
EndSplineSet
EndChar

StartChar: x
Encoding: 120 120 91
Width: 482
Flags: W
LayerCount: 2
Fore
SplineSet
26 30 m 1,0,1
 75 79 75 79 125 142 c 128,-1,2
 175 205 175 205 186 226 c 1,3,-1
 102 318 l 2,4,5
 86 335 86 335 71 352 c 128,-1,6
 56 369 56 369 44 382 c 128,-1,7
 32 395 32 395 25 404 c 2,8,-1
 18 412 l 1,9,-1
 76 474 l 1,10,11
 121 419 121 419 142.5 390.5 c 128,-1,12
 164 362 164 362 177 345 c 0,13,14
 199 317 199 317 241 276 c 1,15,16
 255 296 255 296 291 348 c 0,17,18
 351 437 351 437 387 480 c 1,19,20
 410 480 410 480 424 464 c 128,-1,21
 438 448 438 448 438 434 c 1,22,23
 412 378 412 378 363 316 c 0,24,25
 345 294 345 294 330 273.5 c 128,-1,26
 315 253 315 253 306 229 c 1,27,28
 367 186 367 186 452 83 c 0,29,30
 471 60 471 60 479 48 c 1,31,32
 479 41 479 41 468 27 c 0,33,34
 451 3 451 3 438 -3 c 1,35,36
 419 6 419 6 398.5 29.5 c 128,-1,37
 378 53 378 53 355 81 c 128,-1,38
 332 109 332 109 307.5 137 c 128,-1,39
 283 165 283 165 256 183 c 1,40,41
 233 157 233 157 192 108 c 0,42,43
 117 18 117 18 92 0 c 1,44,45
 73 -4 73 -4 38 18 c 0,46,47
 29 23 29 23 26 30 c 1,0,1
EndSplineSet
EndChar

StartChar: y
Encoding: 121 121 92
Width: 562
Flags: W
LayerCount: 2
Fore
SplineSet
238 -377 m 1,0,1
 217 -424 217 -424 188 -424 c 0,2,3
 174 -424 174 -424 167.5 -411.5 c 128,-1,4
 161 -399 161 -399 167 -382 c 1,5,6
 189 -289 189 -289 230.5 -170 c 128,-1,7
 272 -51 272 -51 286 -10 c 1,8,9
 251 25 251 25 176 130 c 0,10,11
 22 346 22 346 22 367 c 0,12,13
 22 368 22 368 23 369 c 2,14,-1
 61 407 l 1,15,16
 140 334 140 334 267 159 c 0,17,18
 299 115 299 115 318 85 c 1,19,20
 339 127 339 127 351 157.5 c 128,-1,21
 363 188 363 188 370.5 206.5 c 128,-1,22
 378 225 378 225 391 256 c 0,23,24
 425 339 425 339 485 467 c 1,25,26
 494 471 494 471 504 471 c 0,27,28
 529 471 529 471 540 458 c 0,29,30
 544 453 544 453 544 446.5 c 128,-1,31
 544 440 544 440 542 434 c 2,32,-1
 238 -377 l 1,0,1
EndSplineSet
EndChar

StartChar: z
Encoding: 122 122 93
Width: 507
Flags: W
LayerCount: 2
Fore
SplineSet
138 -4 m 0,0,1
 38 -4 38 -4 38 40 c 0,2,3
 38 68 38 68 82 113 c 128,-1,4
 126 158 126 158 159 186.5 c 128,-1,5
 192 215 192 215 222 242 c 0,6,7
 293 307 293 307 338 362 c 1,8,9
 329 362 329 362 311 362 c 128,-1,10
 293 362 293 362 258.5 359.5 c 128,-1,11
 224 357 224 357 186 353 c 0,12,13
 83 342 83 342 51 342 c 128,-1,14
 19 342 19 342 19 356 c 0,15,16
 19 373 19 373 38.5 387 c 128,-1,17
 58 401 58 401 66.5 401 c 128,-1,18
 75 401 75 401 79.5 402 c 128,-1,19
 84 403 84 403 95 404.5 c 128,-1,20
 106 406 106 406 126.5 408.5 c 128,-1,21
 147 411 147 411 182 414 c 0,22,23
 251 421 251 421 398 433 c 1,24,25
 446 427 446 427 446 398 c 0,26,27
 446 361 446 361 376 290 c 0,28,29
 314 228 314 228 243.5 165 c 128,-1,30
 173 102 173 102 145 72 c 1,31,32
 184 69 184 69 213 69 c 1,33,-1
 377 76 l 1,34,35
 415 76 415 76 446 72.5 c 128,-1,36
 477 69 477 69 484 66 c 0,37,38
 500 57 500 57 500 32 c 0,39,40
 500 22 500 22 496 10 c 1,41,42
 471 13 471 13 444 13 c 128,-1,43
 417 13 417 13 373 10 c 128,-1,44
 329 7 329 7 267 2 c 0,45,46
 182 -4 182 -4 138 -4 c 0,0,1
EndSplineSet
EndChar

StartChar: braceleft
Encoding: 123 123 94
Width: 361
Flags: W
LayerCount: 2
Fore
SplineSet
251.5 902 m 128,-1,1
 240 876 240 876 234 829.5 c 128,-1,2
 228 783 228 783 228 710 c 128,-1,3
 228 637 228 637 238 524 c 1,4,5
 238 503 238 503 222.5 489.5 c 128,-1,6
 207 476 207 476 188 464.5 c 128,-1,7
 169 453 169 453 153.5 441 c 128,-1,8
 138 429 138 429 138 410 c 1,9,10
 136 405 136 405 136 396.5 c 128,-1,11
 136 388 136 388 147 370 c 0,12,13
 173 331 173 331 223 299 c 0,14,15
 244 286 244 286 248.5 286 c 128,-1,16
 253 286 253 286 254 286 c 1,17,18
 248 227 248 227 248 188.5 c 128,-1,19
 248 150 248 150 252.5 105.5 c 128,-1,20
 257 61 257 61 273.5 23 c 128,-1,21
 290 -15 290 -15 313.5 -32.5 c 128,-1,22
 337 -50 337 -50 360.5 -56.5 c 128,-1,23
 384 -63 384 -63 404.5 -63 c 128,-1,24
 425 -63 425 -63 435 -66 c 1,25,-1
 431 -138 l 1,26,27
 263 -127 263 -127 220 -2 c 0,28,29
 198 61 198 61 193 137 c 128,-1,30
 188 213 188 213 183 259 c 1,31,32
 177 271 177 271 158 285 c 128,-1,33
 139 299 139 299 118 316 c 0,34,35
 61 362 61 362 52 404 c 1,36,37
 57 441 57 441 73 461.5 c 128,-1,38
 89 482 89 482 107.5 495.5 c 128,-1,39
 126 509 126 509 144 521.5 c 128,-1,40
 162 534 162 534 172 557 c 1,41,42
 170 595 170 595 166 643 c 0,43,44
 160 703 160 703 160 751 c 128,-1,45
 160 799 160 799 165.5 843.5 c 128,-1,46
 171 888 171 888 190 926 c 0,47,48
 232 1010 232 1010 338 1010 c 1,49,-1
 338 956 l 1,50,51
 297 959 297 959 280 943.5 c 128,-1,0
 263 928 263 928 251.5 902 c 128,-1,1
EndSplineSet
EndChar

StartChar: bar
Encoding: 124 124 95
Width: 149
Flags: W
LayerCount: 2
Fore
SplineSet
103 -68 m 2,0,-1
 77 -68 l 2,1,2
 59 -68 59 -68 55 -70 c 1,3,-1
 52 980 l 1,4,-1
 111 980 l 1,5,-1
 111 -66 l 2,6,7
 111 -68 111 -68 103 -68 c 2,0,-1
EndSplineSet
EndChar

StartChar: braceright
Encoding: 125 125 96
Width: 490
Flags: W
LayerCount: 2
Fore
SplineSet
28 -218 m 1,0,-1
 24 -146 l 1,1,2
 34 -143 34 -143 55.5 -143 c 128,-1,3
 77 -143 77 -143 101 -136.5 c 128,-1,4
 125 -130 125 -130 150 -112 c 0,5,6
 219 -63 219 -63 219 97 c 0,7,8
 219 143 219 143 213 202 c 1,9,10
 214 202 214 202 219 202 c 128,-1,11
 224 202 224 202 245 215 c 0,12,13
 298 246 298 246 325 288 c 0,14,15
 334 303 334 303 334 311 c 128,-1,16
 334 319 334 319 332 324 c 1,17,18
 332 343 332 343 315.5 355 c 128,-1,19
 299 367 299 367 279.5 378 c 128,-1,20
 260 389 260 389 244 402.5 c 128,-1,21
 228 416 228 416 228.5 443 c 128,-1,22
 229 470 229 470 229 515 c 128,-1,23
 229 560 229 560 222.5 618 c 128,-1,24
 216 676 216 676 200.5 721.5 c 128,-1,25
 185 767 185 767 164 792 c 128,-1,26
 143 817 143 817 122 830.5 c 128,-1,27
 101 844 101 844 82 848 c 128,-1,28
 63 852 63 852 52 856 c 1,29,-1
 52 910 l 1,30,31
 162 910 162 910 225 828 c 0,32,33
 273 766 273 766 290 650 c 1,34,35
 299 597 299 597 299 545.5 c 128,-1,36
 299 494 299 494 298 469 c 1,37,38
 308 446 308 446 328 429.5 c 128,-1,39
 348 413 348 413 369 397.5 c 128,-1,40
 390 382 390 382 406 365 c 128,-1,41
 422 348 422 348 425 325 c 1,42,43
 423 275 423 275 360 226 c 0,44,45
 336 207 336 207 314 194.5 c 128,-1,46
 292 182 292 182 286 175 c 1,47,48
 281 130 281 130 278 84.5 c 128,-1,49
 275 39 275 39 268 -3.5 c 128,-1,50
 261 -46 261 -46 247.5 -83 c 128,-1,51
 234 -120 234 -120 207 -148 c 0,52,53
 150 -209 150 -209 28 -218 c 1,0,-1
EndSplineSet
EndChar

StartChar: asciitilde
Encoding: 126 126 97
Width: 455
Flags: W
LayerCount: 2
Fore
SplineSet
148 567 m 0,0,1
 116 567 116 567 62 486 c 1,2,3
 56 486 56 486 42.5 490 c 128,-1,4
 29 494 29 494 26 507 c 1,5,6
 41 555 41 555 71 592 c 128,-1,7
 101 629 101 629 134 642 c 0,8,9
 142 645 142 645 152 645 c 128,-1,10
 162 645 162 645 176.5 634.5 c 128,-1,11
 191 624 191 624 209 605 c 128,-1,12
 227 586 227 586 246 569 c 128,-1,13
 265 552 265 552 286.5 552 c 128,-1,14
 308 552 308 552 320.5 559 c 128,-1,15
 333 566 333 566 343.5 579 c 128,-1,16
 354 592 354 592 366.5 611 c 128,-1,17
 379 630 379 630 402 654 c 1,18,19
 408 654 408 654 419.5 646.5 c 128,-1,20
 431 639 431 639 431.5 631.5 c 128,-1,21
 432 624 432 624 432 613 c 128,-1,22
 432 602 432 602 424 583.5 c 128,-1,23
 416 565 416 565 398 546 c 0,24,25
 347 496 347 496 283 496 c 0,26,27
 237 496 237 496 210 526 c 1,28,29
 190 544 190 544 176 555.5 c 128,-1,30
 162 567 162 567 148 567 c 0,0,1
EndSplineSet
EndChar

StartChar: cent
Encoding: 162 162 99
Width: 648
Flags: W
LayerCount: 2
Fore
SplineSet
346 -68 m 2,0,-1
 319 -68 l 2,1,2
 300 -68 300 -68 298 -70 c 1,3,-1
 297 4 l 1,4,5
 269 0 269 0 244 0 c 128,-1,6
 219 0 219 0 178.5 8 c 128,-1,7
 138 16 138 16 103 34 c 0,8,9
 22 76 22 76 22 158 c 1,10,11
 21 164 21 164 21 171 c 0,12,13
 21 245 21 245 102 321 c 0,14,15
 183 398 183 398 296 432 c 1,16,-1
 296 570 l 1,17,-1
 355 570 l 1,18,-1
 354 445 l 1,19,20
 389 449 389 449 409 449 c 0,21,22
 498 449 498 449 498 386 c 0,23,24
 498 362 498 362 464 339 c 0,25,26
 455 333 455 333 448 328 c 1,27,28
 439 373 439 373 417 380 c 0,29,30
 404 384 404 384 354 372 c 1,31,-1
 354 78 l 1,32,33
 385 87 385 87 415 99.5 c 128,-1,34
 445 112 445 112 474 124 c 0,35,36
 542 150 542 150 581.5 150 c 128,-1,37
 621 150 621 150 621 128 c 0,38,39
 621 103 621 103 591.5 86.5 c 128,-1,40
 562 70 562 70 523 56 c 0,41,42
 447 30 447 30 354 14 c 1,43,-1
 354 -66 l 2,44,45
 354 -68 354 -68 346 -68 c 2,0,-1
254 62 m 0,46,47
 279 62 279 62 297 65 c 1,48,-1
 296 354 l 1,49,50
 152 298 152 298 112 228 c 0,51,52
 101 209 101 209 101 194.5 c 128,-1,53
 101 180 101 180 102 173 c 1,54,55
 102 109 102 109 151 82 c 0,56,57
 188 62 188 62 254 62 c 0,46,47
EndSplineSet
EndChar

StartChar: sterling
Encoding: 163 163 100
Width: 552
Flags: W
LayerCount: 2
Fore
SplineSet
29 246 m 1,0,1
 -22 246 -22 246 -22 271 c 0,2,3
 -22 285 -22 285 -10 290 c 128,-1,4
 2 295 2 295 16 297 c 128,-1,5
 30 299 30 299 53 301.5 c 128,-1,6
 76 304 76 304 93 307 c 1,7,8
 96 370 96 370 99.5 416 c 128,-1,9
 103 462 103 462 112.5 493.5 c 128,-1,10
 122 525 122 525 139 544 c 128,-1,11
 156 563 156 563 186 573 c 0,12,13
 265 599 265 599 324 599 c 0,14,15
 396 599 396 599 443.5 576 c 128,-1,16
 491 553 491 553 513.5 523 c 128,-1,17
 536 493 536 493 536 474 c 128,-1,18
 536 455 536 455 518.5 455 c 128,-1,19
 501 455 501 455 466 490 c 0,20,21
 441 516 441 516 398 530 c 0,22,23
 342 548 342 548 312 548 c 128,-1,24
 282 548 282 548 256.5 540.5 c 128,-1,25
 231 533 231 533 206 509.5 c 128,-1,26
 181 486 181 486 167 442 c 1,27,-1
 152 318 l 1,28,-1
 235 317 l 2,29,30
 276 317 276 317 288 294 c 0,31,32
 292 285 292 285 286 275 c 128,-1,33
 280 265 280 265 262 259 c 1,34,-1
 151 258 l 1,35,-1
 124 66 l 1,36,37
 164 73 164 73 194 78.5 c 128,-1,38
 224 84 224 84 249.5 87 c 128,-1,39
 275 90 275 90 298.5 90 c 128,-1,40
 322 90 322 90 348 86 c 0,41,42
 390 79 390 79 476 52 c 0,43,44
 482 50 482 50 485 43.5 c 128,-1,45
 488 37 488 37 485 30 c 0,46,47
 477 14 477 14 455.5 11 c 128,-1,48
 434 8 434 8 418.5 11.5 c 128,-1,49
 403 15 403 15 384 20 c 0,50,51
 329 34 329 34 292.5 34 c 128,-1,52
 256 34 256 34 242 31.5 c 128,-1,53
 228 29 228 29 216.5 25 c 128,-1,54
 205 21 205 21 194 16 c 0,55,56
 151 0 151 0 78 0 c 0,57,58
 68 0 68 0 57 0 c 1,59,60
 72 67 72 67 77 250 c 1,61,-1
 29 246 l 1,0,1
EndSplineSet
EndChar

StartChar: currency
Encoding: 164 164 101
Width: 576
Flags: W
LayerCount: 2
Fore
SplineSet
451 111 m 1,0,1
 366 50 366 50 238 50 c 0,2,3
 193 50 193 50 159 59 c 1,4,5
 151 51 151 51 128.5 33 c 128,-1,6
 106 15 106 15 96 6 c 1,7,8
 81 -5 81 -5 76 -5 c 128,-1,9
 71 -5 71 -5 60.5 -3 c 128,-1,10
 50 -1 50 -1 37 4 c 0,11,12
 6 14 6 14 -1 29 c 1,13,-1
 86 104 l 1,14,15
 46 148 46 148 46 241 c 128,-1,16
 46 334 46 334 110 398 c 1,17,-1
 30 477 l 1,18,-1
 102 544 l 1,19,20
 154 488 154 488 184 454 c 1,21,22
 253 491 253 491 343 500 c 0,23,24
 350 500 350 500 372.5 500 c 128,-1,25
 395 500 395 500 430 487 c 1,26,27
 440 500 440 500 460.5 524 c 128,-1,28
 481 548 481 548 491.5 560.5 c 128,-1,29
 502 573 502 573 509 580 c 1,30,31
 538 580 538 580 554.5 562.5 c 128,-1,32
 571 545 571 545 571 530 c 1,33,34
 564 518 564 518 548 493 c 2,35,-1
 523 456 l 2,36,37
 515 444 515 444 510 437 c 1,38,39
 555 387 555 387 555 328 c 0,40,41
 555 321 555 321 554 314 c 1,42,43
 554 237 554 237 513 174 c 1,44,45
 560 130 560 130 600 82 c 1,46,47
 600 73 600 73 587 59 c 0,48,49
 565 33 565 33 550 26 c 1,50,51
 527 35 527 35 502.5 58.5 c 128,-1,52
 478 82 478 82 451 111 c 1,0,1
107 207 m 1,53,54
 107 145 107 145 140 124 c 0,55,56
 166 107 166 107 224.5 107 c 128,-1,57
 283 107 283 107 328 116.5 c 128,-1,58
 373 126 373 126 408 148 c 0,59,60
 483 196 483 196 483 297 c 0,61,62
 483 356 483 356 451 394 c 0,63,64
 416 435 416 435 359 435 c 1,65,66
 320 429 320 429 280.5 421 c 128,-1,67
 241 413 241 413 207 390 c 0,68,69
 130 339 130 339 107 207 c 1,53,54
EndSplineSet
EndChar

StartChar: yen
Encoding: 165 165 102
Width: 547
Flags: W
LayerCount: 2
Fore
SplineSet
121 186 m 0,0,1
 214 200 214 200 261 205 c 1,2,-1
 261 248 l 1,3,-1
 150 234 l 2,4,5
 145 234 145 234 137.5 233.5 c 128,-1,6
 130 233 130 233 122 234 c 0,7,8
 103 237 103 237 101 251 c 1,9,-1
 121 287 l 2,10,11
 123 289 123 289 261 304 c 1,12,-1
 262 349 l 1,13,-1
 -5 622 l 1,14,15
 -10 629 -10 629 -10 634 c 128,-1,16
 -10 639 -10 639 -6 645.5 c 128,-1,17
 -2 652 -2 652 10 658 c 1,18,19
 35 673 35 673 48 673 c 1,20,21
 64 661 64 661 76.5 652.5 c 128,-1,22
 89 644 89 644 101.5 634 c 128,-1,23
 114 624 114 624 129 609.5 c 128,-1,24
 144 595 144 595 167 570 c 0,25,26
 200 535 200 535 301 415 c 1,27,28
 383 655 383 655 431 696 c 0,29,30
 447 709 447 709 459.5 710 c 128,-1,31
 472 711 472 711 484 696.5 c 128,-1,32
 496 682 496 682 501 670 c 1,33,34
 485 636 485 636 465 598 c 128,-1,35
 445 560 445 560 424 518 c 0,36,37
 371 411 371 411 345 339 c 1,38,-1
 343 314 l 1,39,40
 366 317 366 317 386 319.5 c 128,-1,41
 406 322 406 322 424 325 c 1,42,43
 440 330 440 330 448.5 325 c 128,-1,44
 457 320 457 320 458.5 310.5 c 128,-1,45
 460 301 460 301 455.5 290 c 128,-1,46
 451 279 451 279 442 273 c 1,47,-1
 341 259 l 1,48,-1
 338 214 l 1,49,50
 396 221 396 221 458 234 c 1,51,52
 481 234 481 234 487 222 c 128,-1,53
 493 210 493 210 493 201 c 128,-1,54
 493 192 493 192 491 184 c 1,55,56
 409 182 409 182 336 165 c 1,57,-1
 328 3 l 1,58,59
 325 -4 325 -4 314 -12 c 0,60,61
 288 -31 288 -31 266 -18 c 0,62,63
 254 -12 254 -12 252 10 c 1,64,65
 260 25 260 25 262 149 c 1,66,67
 187 134 187 134 128 134 c 0,68,69
 104 134 104 134 104 169 c 0,70,71
 104 173 104 173 110.5 179.5 c 128,-1,72
 117 186 117 186 121 186 c 0,0,1
EndSplineSet
EndChar

StartChar: brokenbar
Encoding: 166 166 103
Width: 131
Flags: W
LayerCount: 2
Fore
SplineSet
28 16 m 1,0,-1
 36 290 l 1,1,-1
 102 290 l 1,2,-1
 94 34 l 1,3,4
 92 16 92 16 66 8 c 0,5,6
 40 1 40 1 28 16 c 1,0,-1
37 314 m 1,7,8
 40 431 40 431 44 532 c 1,9,10
 42 554 42 554 52 560 c 128,-1,11
 62 566 62 566 74.5 566 c 128,-1,12
 87 566 87 566 96.5 564 c 128,-1,13
 106 562 106 562 110 548 c 1,14,-1
 102 314 l 1,15,-1
 37 314 l 1,7,8
EndSplineSet
EndChar

StartChar: section
Encoding: 167 167 104
Width: 514
Flags: W
LayerCount: 2
Fore
SplineSet
381 503 m 0,0,1
 494 503 494 503 494 448 c 0,2,3
 494 404 494 404 429 346 c 0,4,5
 394 315 394 315 346 286 c 1,6,7
 409 280 409 280 433.5 260.5 c 128,-1,8
 458 241 458 241 458 218 c 0,9,10
 458 189 458 189 426 156.5 c 128,-1,11
 394 124 394 124 346 97 c 0,12,13
 235 35 235 35 99 24 c 0,14,15
 90 24 90 24 71 60 c 0,16,17
 67 67 67 67 65 69 c 1,18,19
 195 91 195 91 288 136 c 0,20,21
 360 171 360 171 360 190.5 c 128,-1,22
 360 210 360 210 300.5 210 c 128,-1,23
 241 210 241 210 133 191 c 1,24,25
 81 193 81 193 43 228 c 0,26,27
 10 259 10 259 10 294 c 0,28,29
 10 361 10 361 108 419 c 1,30,31
 75 434 75 434 56.5 460 c 128,-1,32
 38 486 38 486 38 512 c 0,33,34
 38 563 38 563 104 614 c 0,35,36
 204 690 204 690 349 702 c 0,37,38
 363 703 363 703 385.5 703 c 128,-1,39
 408 703 408 703 437 697 c 1,40,41
 461 697 461 697 465 676 c 128,-1,42
 469 655 469 655 469 607 c 1,43,44
 410 634 410 634 336 634 c 0,45,46
 196 634 196 634 138 556 c 0,47,48
 121 533 121 533 120 502 c 0,49,50
 120 485 120 485 132.5 480 c 128,-1,51
 145 475 145 475 161 475 c 1,52,-1
 234 483 l 1,53,54
 323 503 323 503 381 503 c 0,0,1
391 413 m 0,55,56
 391 441 391 441 344 441 c 0,57,58
 306 441 306 441 260.5 425 c 128,-1,59
 215 409 215 409 180 388 c 0,60,61
 101 340 101 340 92 286 c 1,62,63
 92 260 92 260 132 260 c 0,64,65
 143 260 143 260 155 261 c 1,66,67
 248 291 248 291 317 336 c 0,68,69
 391 383 391 383 391 413 c 0,55,56
EndSplineSet
EndChar

StartChar: dieresis
Encoding: 168 168 105
Width: 380
Flags: W
LayerCount: 2
Fore
SplineSet
90 597 m 0,0,1
 66 597 66 597 66 631 c 0,2,3
 66 643 66 643 116 664 c 1,4,5
 137 664 137 664 144.5 655 c 128,-1,6
 152 646 152 646 152 632 c 128,-1,7
 152 618 152 618 146 611.5 c 128,-1,8
 140 605 140 605 131 602 c 0,9,10
 119 597 119 597 90 597 c 0,0,1
234 597 m 0,11,12
 210 597 210 597 210 631 c 0,13,14
 210 644 210 644 261 664 c 1,15,16
 297 664 297 664 297 630 c 0,17,18
 297 599 297 599 255 598 c 0,19,20
 244 597 244 597 234 597 c 0,11,12
EndSplineSet
EndChar

StartChar: copyright
Encoding: 169 169 106
Width: 646
Flags: W
LayerCount: 2
Fore
SplineSet
116 44 m 1,0,1
 80 67 80 67 59 101.5 c 128,-1,2
 38 136 38 136 38 176 c 128,-1,3
 38 216 38 216 50 271 c 128,-1,4
 62 326 62 326 80.5 373 c 128,-1,5
 99 420 99 420 125.5 464 c 128,-1,6
 152 508 152 508 186 542 c 0,7,8
 261 615 261 615 356 615 c 0,9,10
 484 615 484 615 552 521 c 1,11,12
 615 436 615 436 615 310 c 0,13,14
 615 161 615 161 520 78 c 0,15,16
 427 -2 427 -2 273 -2 c 0,17,18
 184 -2 184 -2 116 44 c 1,0,1
97 183 m 0,19,20
 97 48 97 48 289 48 c 0,21,22
 427 48 427 48 496.5 119 c 128,-1,23
 566 190 566 190 566 321 c 0,24,25
 566 325 566 325 566 329 c 0,26,27
 566 444 566 444 509 505 c 128,-1,28
 452 566 452 566 353 566 c 0,29,30
 342 566 342 566 333.5 566 c 128,-1,31
 325 566 325 566 318 566 c 0,32,33
 265 566 265 566 213 494 c 1,34,35
 164 428 164 428 129 325 c 0,36,37
 97 231 97 231 97 183 c 0,19,20
164 246 m 0,38,39
 164 252 164 252 164 258 c 0,40,41
 164 300 164 300 184 344.5 c 128,-1,42
 204 389 204 389 238 425.5 c 128,-1,43
 272 462 272 462 308.5 481 c 128,-1,44
 345 500 345 500 375 500 c 0,45,46
 382 500 382 500 395 499.5 c 128,-1,47
 408 499 408 499 422.5 490.5 c 128,-1,48
 437 482 437 482 437 455 c 128,-1,49
 437 428 437 428 426.5 416 c 128,-1,50
 416 404 416 404 408 395 c 1,51,52
 406 415 406 415 401 429 c 128,-1,53
 396 443 396 443 380 443 c 1,54,55
 315 424 315 424 264 378 c 0,56,57
 209 328 209 328 209 273 c 0,58,59
 209 267 209 267 209.5 248 c 128,-1,60
 210 229 210 229 217.5 210.5 c 128,-1,61
 225 192 225 192 238 182 c 1,62,63
 258 164 258 164 292 164 c 128,-1,64
 326 164 326 164 350.5 175.5 c 128,-1,65
 375 187 375 187 398 201.5 c 128,-1,66
 421 216 421 216 443.5 227.5 c 128,-1,67
 466 239 466 239 481 239 c 128,-1,68
 496 239 496 239 501.5 235.5 c 128,-1,69
 507 232 507 232 507 224.5 c 128,-1,70
 507 217 507 217 505.5 207 c 128,-1,71
 504 197 504 197 490 184.5 c 128,-1,72
 476 172 476 172 455.5 161 c 128,-1,73
 435 150 435 150 411 140.5 c 128,-1,74
 387 131 387 131 364 124 c 0,75,76
 316 109 316 109 296.5 109 c 128,-1,77
 277 109 277 109 254 116 c 128,-1,78
 231 123 231 123 211 138 c 0,79,80
 164 175 164 175 164 246 c 0,38,39
EndSplineSet
EndChar

StartChar: guillemotleft
Encoding: 171 171 108
Width: 718
Flags: W
LayerCount: 2
Fore
SplineSet
84 229 m 1,0,1
 116 254 116 254 159 288 c 128,-1,2
 202 322 202 322 246 356 c 0,3,4
 354 441 354 441 401 467 c 1,5,6
 414 467 414 467 420 445 c 0,7,8
 423 436 423 436 423 427 c 128,-1,9
 423 418 423 418 419 412 c 1,10,-1
 184 233 l 1,11,12
 199 225 199 225 227 212.5 c 128,-1,13
 255 200 255 200 289 183 c 0,14,15
 370 143 370 143 431 103 c 1,16,17
 430 102 430 102 427 95 c 128,-1,18
 424 88 424 88 420 80 c 0,19,20
 411 59 411 59 409 59 c 1,21,22
 379 78 379 78 323 97.5 c 128,-1,23
 267 117 267 117 233 130.5 c 128,-1,24
 199 144 199 144 170 158 c 0,25,26
 102 192 102 192 84 229 c 1,0,1
318 251 m 1,27,28
 350 276 350 276 392.5 310.5 c 128,-1,29
 435 345 435 345 480 380 c 0,30,31
 585 461 585 461 634 490 c 1,32,33
 647 488 647 488 654 467 c 0,34,35
 660 448 660 448 653 434 c 1,36,-1
 418 255 l 1,37,38
 433 247 433 247 460.5 234.5 c 128,-1,39
 488 222 488 222 522 205 c 0,40,41
 614 159 614 159 665 126 c 1,42,43
 664 124 664 124 661 117 c 128,-1,44
 658 110 658 110 654 102 c 0,45,46
 645 82 645 82 642 82 c 1,47,48
 612 101 612 101 556 120.5 c 128,-1,49
 500 140 500 140 466.5 153 c 128,-1,50
 433 166 433 166 403 181 c 0,51,52
 335 215 335 215 318 251 c 1,27,28
EndSplineSet
EndChar

StartChar: logicalnot
Encoding: 172 172 109
Width: 614
Flags: W
LayerCount: 2
Fore
SplineSet
587 341 m 1,0,1
 582 286 582 286 582 263 c 2,2,-1
 582 230 l 2,3,4
 582 195 582 195 573 121 c 1,5,6
 559 120 559 120 548 120 c 128,-1,7
 537 120 537 120 528 122 c 0,8,9
 511 127 511 127 511 169 c 1,10,-1
 514 273 l 1,11,-1
 73 266 l 1,12,-1
 76 331 l 1,13,14
 92 330 92 330 122.5 330 c 128,-1,15
 153 330 153 330 213 335 c 2,16,-1
 340 346 l 1,17,18
 422 352 422 352 481.5 352 c 128,-1,19
 541 352 541 352 587 341 c 1,0,1
EndSplineSet
EndChar

StartChar: registered
Encoding: 174 174 110
Width: 646
Flags: W
LayerCount: 2
Fore
SplineSet
116 44 m 1,0,1
 80 67 80 67 59 101.5 c 128,-1,2
 38 136 38 136 38 176 c 128,-1,3
 38 216 38 216 50 271 c 128,-1,4
 62 326 62 326 80.5 373 c 128,-1,5
 99 420 99 420 125.5 464 c 128,-1,6
 152 508 152 508 186 542 c 0,7,8
 261 615 261 615 356 615 c 0,9,10
 484 615 484 615 552 521 c 1,11,12
 615 436 615 436 615 310 c 0,13,14
 615 161 615 161 520 78 c 0,15,16
 427 -2 427 -2 273 -2 c 0,17,18
 184 -2 184 -2 116 44 c 1,0,1
97 183 m 0,19,20
 97 48 97 48 289 48 c 0,21,22
 447 48 447 48 517 143 c 1,23,24
 511 142 511 142 504 142 c 2,25,-1
 494 142 l 2,26,27
 485 142 485 142 457.5 159 c 128,-1,28
 430 176 430 176 394 198 c 0,29,30
 300 258 300 258 253 274 c 1,31,-1
 253 164 l 2,32,33
 253 156 253 156 243 155.5 c 128,-1,34
 233 155 233 155 230 155 c 0,35,36
 213 155 213 155 209.5 175.5 c 128,-1,37
 206 196 206 196 206 228 c 2,38,-1
 208 341 l 2,39,40
 208 388 208 388 202 440 c 1,41,42
 215 465 215 465 238 430 c 1,43,44
 267 456 267 456 341 456 c 0,45,46
 386 456 386 456 423 446 c 1,47,48
 482 432 482 432 482 407 c 0,49,50
 482 377 482 377 386 346 c 0,51,52
 279 311 279 311 266 304 c 1,53,54
 266 301 266 301 271.5 298 c 128,-1,55
 277 295 277 295 302 283 c 0,56,57
 391 239 391 239 453.5 205.5 c 128,-1,58
 516 172 516 172 521 168.5 c 128,-1,59
 526 165 526 165 528 161 c 1,60,61
 566 225 566 225 566 321 c 0,62,63
 566 325 566 325 566 329 c 0,64,65
 566 444 566 444 509 505 c 128,-1,66
 452 566 452 566 353 566 c 0,67,68
 342 566 342 566 333.5 566 c 128,-1,69
 325 566 325 566 318 566 c 0,70,71
 265 566 265 566 213 494 c 1,72,73
 164 428 164 428 129 325 c 0,74,75
 97 231 97 231 97 183 c 0,19,20
374 425 m 2,76,77
 264 425 264 425 245 401 c 0,78,79
 240 394 240 394 240 384 c 128,-1,80
 240 374 240 374 241 366 c 0,81,82
 244 347 244 347 253 338 c 0,83,84
 255 337 255 337 260 337 c 128,-1,85
 265 337 265 337 282.5 341 c 128,-1,86
 300 345 300 345 326 354 c 0,87,88
 387 374 387 374 412 389 c 128,-1,89
 437 404 437 404 437 412.5 c 128,-1,90
 437 421 437 421 413 425 c 1,91,-1
 374 425 l 2,76,77
EndSplineSet
EndChar

StartChar: macron
Encoding: 175 175 111
Width: 318
Flags: W
LayerCount: 2
Fore
SplineSet
80 534 m 1,0,1
 30 534 30 534 30 559 c 0,2,3
 30 573 30 573 41.5 578 c 128,-1,4
 53 583 53 583 81.5 587 c 128,-1,5
 110 591 110 591 153.5 598.5 c 128,-1,6
 197 606 197 606 245 611 c 1,7,8
 287 611 287 611 298 588 c 0,9,10
 299 584 299 584 299 579.5 c 128,-1,11
 299 575 299 575 294.5 567.5 c 128,-1,12
 290 560 290 560 272 554 c 1,13,-1
 80 534 l 1,0,1
EndSplineSet
EndChar

StartChar: degree
Encoding: 176 176 112
Width: 225
Flags: W
LayerCount: 2
Fore
SplineSet
34 315 m 128,-1,1
 25 330 25 330 25 357 c 128,-1,2
 25 384 25 384 37 404 c 0,3,4
 58 437 58 437 97 437 c 0,5,6
 149 437 149 437 180 395 c 0,7,8
 194 377 194 377 197 354 c 1,9,10
 197 303 197 303 176.5 286.5 c 128,-1,11
 156 270 156 270 114 270 c 0,12,13
 84 270 84 270 63.5 285 c 128,-1,0
 43 300 43 300 34 315 c 128,-1,1
150 370 m 1,14,15
 127 394 127 394 101 394 c 0,16,17
 70 394 70 394 64 364 c 0,18,19
 64 361 64 361 64 351.5 c 128,-1,20
 64 342 64 342 76 322 c 1,21,22
 94 307 94 307 104 306 c 128,-1,23
 114 305 114 305 122.5 305 c 128,-1,24
 131 305 131 305 141 313 c 1,25,26
 156 323 156 323 156 339.5 c 128,-1,27
 156 356 156 356 150 370 c 1,14,15
EndSplineSet
EndChar

StartChar: plusminus
Encoding: 177 177 113
Width: 537
Flags: W
LayerCount: 2
Fore
SplineSet
122 -5 m 1,0,1
 71 -5 71 -5 71 21 c 0,2,3
 71 34 71 34 82.5 39 c 128,-1,4
 94 44 94 44 109 46.5 c 128,-1,5
 124 49 124 49 161 55 c 128,-1,6
 198 61 198 61 242 69 c 1,7,8
 240 90 240 90 238 116 c 128,-1,9
 236 142 236 142 232 168 c 0,10,11
 223 227 223 227 210 266 c 1,12,13
 183 266 183 266 146 255 c 0,14,15
 71 233 71 233 43 232 c 0,16,17
 31 232 31 232 24.5 246.5 c 128,-1,18
 18 261 18 261 18 276 c 1,19,-1
 210 316 l 1,20,-1
 210 482 l 2,21,22
 210 501 210 501 245 501 c 0,23,24
 262 501 262 501 267 494.5 c 128,-1,25
 272 488 272 488 275 473 c 128,-1,26
 278 458 278 458 281 439 c 128,-1,27
 284 420 284 420 286.5 399 c 128,-1,28
 289 378 289 378 291.5 359 c 128,-1,29
 294 340 294 340 294 333 c 1,30,-1
 481 354 l 1,31,32
 481 331 481 331 479 320 c 128,-1,33
 477 309 477 309 460 303 c 128,-1,34
 443 297 443 297 404.5 292 c 128,-1,35
 366 287 366 287 293 274 c 1,36,37
 290 260 290 260 290 248.5 c 128,-1,38
 290 237 290 237 291.5 221.5 c 128,-1,39
 293 206 293 206 298 181 c 0,40,41
 310 113 310 113 311 82 c 1,42,43
 392 96 392 96 462 106 c 1,44,45
 503 106 503 106 514 83 c 0,46,47
 517 79 517 79 517 74.5 c 128,-1,48
 517 70 517 70 512.5 62 c 128,-1,49
 508 54 508 54 490 48 c 1,50,-1
 122 -5 l 1,0,1
EndSplineSet
EndChar

StartChar: acute
Encoding: 180 180 116
Width: 176
Flags: W
LayerCount: 2
Fore
SplineSet
94 605 m 1,0,1
 108 624 108 624 124 624 c 0,2,3
 134 624 134 624 139 614.5 c 128,-1,4
 144 605 144 605 143 596 c 128,-1,5
 142 587 142 587 138 579 c 128,-1,6
 134 571 134 571 125 560 c 0,7,8
 108 541 108 541 56 498 c 1,9,-1
 25 526 l 1,10,-1
 94 605 l 1,0,1
EndSplineSet
EndChar

StartChar: mu
Encoding: 181 181 117
Width: 502
Flags: W
LayerCount: 2
Fore
SplineSet
33 226 m 0,0,1
 33 446 33 446 76 446 c 0,2,3
 91 446 91 446 113 426 c 1,4,5
 112 388 112 388 108 357 c 0,6,7
 101 294 101 294 101 266 c 128,-1,8
 101 238 101 238 101.5 218.5 c 128,-1,9
 102 199 102 199 110 160 c 1,10,11
 135 120 135 120 200 93 c 0,12,13
 247 73 247 73 291 73 c 128,-1,14
 335 73 335 73 359 91.5 c 128,-1,15
 383 110 383 110 390 138 c 1,16,17
 398 184 398 184 398 212 c 0,18,19
 398 260 398 260 390.5 313.5 c 128,-1,20
 383 367 383 367 383 380.5 c 128,-1,21
 383 394 383 394 384 402 c 0,22,23
 387 424 387 424 414 430 c 1,24,25
 437 407 437 407 450 317 c 0,26,27
 458 258 458 258 458 206.5 c 128,-1,28
 458 155 458 155 457 128 c 0,29,30
 456 -19 456 -19 430 -26 c 0,31,32
 427 -27 427 -27 420 -27 c 128,-1,33
 413 -27 413 -27 397 -18 c 0,34,35
 394 -16 394 -16 394 3 c 0,36,37
 394 40 394 40 392 38 c 0,38,39
 348 3 348 3 285 3 c 0,40,41
 225 3 225 3 168 29 c 0,42,43
 117 52 117 52 101 79 c 1,44,45
 100 68 100 68 100 58 c 2,46,-1
 104 -30 l 1,47,48
 104 -93 104 -93 80 -106 c 0,49,50
 74 -110 74 -110 64 -110 c 128,-1,51
 54 -110 54 -110 42 -106 c 1,52,53
 43 -101 43 -101 43 -89.5 c 128,-1,54
 43 -78 43 -78 42 -55 c 128,-1,55
 41 -32 41 -32 39 14 c 0,56,57
 33 154 33 154 33 226 c 0,0,1
EndSplineSet
EndChar

StartChar: paragraph
Encoding: 182 182 118
Width: 388
Flags: W
LayerCount: 2
Fore
SplineSet
313 424 m 2,0,-1
 302 426 l 1,1,2
 296 426 296 426 294 245.5 c 128,-1,3
 292 65 292 65 292 34 c 2,4,-1
 291 2 l 1,5,6
 285 2 285 2 275 1.5 c 128,-1,7
 265 1 265 1 256 4 c 0,8,9
 234 11 234 11 236 40 c 0,10,11
 238 66 238 66 239 113 c 0,12,13
 241 209 241 209 242 220 c 1,14,15
 149 238 149 238 96 270 c 1,16,17
 18 319 18 319 18 374 c 128,-1,18
 18 429 18 429 88 460 c 0,19,20
 137 482 137 482 208 482 c 128,-1,21
 279 482 279 482 365 455 c 1,22,-1
 350 -1 l 1,23,-1
 310 2 l 2,24,25
 308 2 308 2 308 34 c 2,26,-1
 314 392 l 2,27,28
 314 424 314 424 313 424 c 2,0,-1
EndSplineSet
EndChar

StartChar: periodcentered
Encoding: 183 183 119
Width: 144
Flags: W
LayerCount: 2
Fore
SplineSet
15 240 m 1,0,1
 20 264 20 264 32 272.5 c 128,-1,2
 44 281 44 281 51 281 c 128,-1,3
 58 281 58 281 67 279.5 c 128,-1,4
 76 278 76 278 88 266.5 c 128,-1,5
 100 255 100 255 102 239 c 1,6,7
 102 215 102 215 92 207.5 c 128,-1,8
 82 200 82 200 69 200 c 128,-1,9
 56 200 56 200 48 202.5 c 128,-1,10
 40 205 40 205 32 210 c 0,11,12
 15 222 15 222 15 240 c 1,0,1
EndSplineSet
EndChar

StartChar: cedilla
Encoding: 184 184 120
Width: 273
Flags: W
LayerCount: 2
Fore
SplineSet
47 8 m 0,0,1
 47 28 47 28 59 28 c 256,2,3
 71 28 71 28 80 14.5 c 128,-1,4
 89 1 89 1 85 -2 c 1,5,6
 85 -29 85 -29 86 -50 c 128,-1,7
 87 -71 87 -71 105 -71 c 1,8,9
 127 -69 127 -69 152.5 -69 c 128,-1,10
 178 -69 178 -69 205 -79 c 0,11,12
 245 -95 245 -95 245 -132 c 0,13,14
 245 -172 245 -172 198 -204 c 0,15,16
 157 -233 157 -233 104 -233 c 0,17,18
 77 -233 77 -233 46 -223 c 0,19,20
 43 -223 43 -223 43 -218 c 128,-1,21
 43 -213 43 -213 43.5 -206 c 128,-1,22
 44 -199 44 -199 44.5 -192.5 c 128,-1,23
 45 -186 45 -186 43 -184 c 1,24,25
 54 -185 54 -185 70 -185 c 128,-1,26
 86 -185 86 -185 112 -180.5 c 128,-1,27
 138 -176 138 -176 162 -166.5 c 128,-1,28
 186 -157 186 -157 198 -146 c 0,29,30
 224 -122 224 -122 168 -114 c 0,31,32
 156 -112 156 -112 135 -112 c 128,-1,33
 114 -112 114 -112 82 -115 c 1,34,35
 48 -115 48 -115 48 -7 c 1,36,37
 47 2 47 2 47 8 c 0,0,1
EndSplineSet
EndChar

StartChar: guillemotright
Encoding: 187 187 123
Width: 670
Flags: W
LayerCount: 2
Fore
SplineSet
118 48 m 1,0,1
 73 65 73 65 68 84 c 1,2,3
 68 88 68 88 68 91 c 0,4,5
 68 122 68 122 139 164 c 0,6,7
 244 225 244 225 276 249.5 c 128,-1,8
 308 274 308 274 314 297 c 1,9,-1
 50 396 l 1,10,-1
 100 445 l 1,11,12
 149 410 149 410 190.5 396 c 128,-1,13
 232 382 232 382 270.5 373.5 c 128,-1,14
 309 365 309 365 347 353.5 c 128,-1,15
 385 342 385 342 426 311 c 1,16,17
 400 280 400 280 360.5 248.5 c 128,-1,18
 321 217 321 217 277.5 184 c 128,-1,19
 234 151 234 151 191.5 117 c 128,-1,20
 149 83 149 83 118 48 c 1,0,1
345 76 m 1,21,22
 257 110 257 110 322 161 c 0,23,24
 355 187 355 187 402.5 214 c 128,-1,25
 450 241 450 241 475 258 c 0,26,27
 534 296 534 296 542 325 c 1,28,-1
 277 424 l 1,29,-1
 327 473 l 1,30,31
 376 438 376 438 417.5 424 c 128,-1,32
 459 410 459 410 498 401.5 c 128,-1,33
 537 393 537 393 574.5 381.5 c 128,-1,34
 612 370 612 370 654 339 c 1,35,36
 628 308 628 308 588.5 276.5 c 128,-1,37
 549 245 549 245 505.5 212 c 128,-1,38
 462 179 462 179 419.5 145 c 128,-1,39
 377 111 377 111 345 76 c 1,21,22
EndSplineSet
EndChar

StartChar: AE
Encoding: 198 198 134
Width: 898
Flags: W
LayerCount: 2
Fore
SplineSet
731 559 m 2,0,-1
 592 562 l 1,1,2
 523 562 523 562 477 552 c 1,3,4
 458 464 458 464 460 439 c 128,-1,5
 462 414 462 414 463 398 c 0,6,7
 466 348 466 348 466 306 c 1,8,9
 538 306 538 306 599 314 c 0,10,11
 719 330 719 330 783 330 c 1,12,-1
 783 276 l 1,13,-1
 474 238 l 1,14,-1
 479 74 l 1,15,16
 594 74 594 74 665 80 c 0,17,18
 794 91 794 91 880 91 c 1,19,20
 884 89 884 89 884 82 c 128,-1,21
 884 75 884 75 877 66 c 0,22,23
 858 41 858 41 825 34 c 1,24,25
 714 22 714 22 604 15 c 128,-1,26
 494 8 494 8 397 0 c 1,27,-1
 397 3 l 1,28,29
 365 8 365 8 363 10 c 1,30,-1
 338 252 l 1,31,-1
 162 226 l 1,32,33
 158 211 158 211 151.5 184.5 c 128,-1,34
 145 158 145 158 136 129 c 0,35,36
 114 58 114 58 87 24 c 0,37,38
 81 16 81 16 63 22.5 c 128,-1,39
 45 29 45 29 37.5 34 c 128,-1,40
 30 39 30 39 30 52 c 128,-1,41
 30 65 30 65 40 103.5 c 128,-1,42
 50 142 50 142 68 193.5 c 128,-1,43
 86 245 86 245 108.5 302.5 c 128,-1,44
 131 360 131 360 154 414 c 0,45,46
 208 541 208 541 235 583 c 1,47,48
 256 629 256 629 280 652 c 0,49,50
 309 680 309 680 332 680 c 0,51,52
 378 680 378 680 401 638 c 1,53,54
 433 630 433 630 485 629 c 128,-1,55
 537 628 537 628 593 628 c 0,56,57
 738 628 738 628 780 612 c 1,58,-1
 780 562 l 1,59,60
 758 559 758 559 731 559 c 2,0,-1
346 355 m 2,61,-1
 350 482 l 1,62,63
 350 538 350 538 342 586 c 1,64,65
 217 403 217 403 193 302 c 1,66,67
 237 302 237 302 265 308 c 0,68,69
 318 320 318 320 349 321 c 1,70,71
 346 335 346 335 346 355 c 2,61,-1
EndSplineSet
EndChar

StartChar: Eth
Encoding: 208 208 144
Width: 698
Flags: W
LayerCount: 2
Fore
SplineSet
60 194 m 2,0,1
 10 194 10 194 10 219 c 0,2,3
 10 233 10 233 21.5 238 c 128,-1,4
 33 243 33 243 42.5 244.5 c 128,-1,5
 52 246 52 246 58.5 246.5 c 128,-1,6
 65 247 65 247 73 249 c 1,7,-1
 73 638 l 1,8,-1
 86 638 l 2,9,10
 110 638 110 638 123.5 630.5 c 128,-1,11
 137 623 137 623 139 614 c 1,12,13
 213 640 213 640 335 640 c 0,14,15
 559 640 559 640 642 530 c 0,16,17
 673 488 673 488 673 423 c 1,18,19
 674 415 674 415 674 393 c 128,-1,20
 674 371 674 371 657.5 332 c 128,-1,21
 641 293 641 293 607.5 253 c 128,-1,22
 574 213 574 213 528 177.5 c 128,-1,23
 482 142 482 142 431 112 c 128,-1,24
 380 82 380 82 328 60 c 0,25,26
 206 7 206 7 119 7 c 0,27,28
 92 7 92 7 73 14 c 1,29,-1
 73 194 l 1,30,-1
 60 194 l 2,0,1
157 548 m 1,31,-1
 157 262 l 1,32,33
 190 268 190 268 225 271 c 1,34,35
 267 271 267 271 278 248 c 0,36,37
 282 239 282 239 276 229.5 c 128,-1,38
 270 220 270 220 252 214 c 1,39,-1
 157 203 l 1,40,-1
 157 71 l 1,41,42
 227 71 227 71 332 122 c 0,43,44
 514 212 514 212 582 331 c 0,45,46
 606 373 606 373 606 415 c 1,47,48
 595 505 595 505 506 547 c 0,49,50
 439 579 439 579 335 579 c 128,-1,51
 231 579 231 579 157 548 c 1,31,-1
EndSplineSet
EndChar

StartChar: multiply
Encoding: 215 215 151
Width: 482
Flags: W
LayerCount: 2
Fore
SplineSet
249 209 m 1,0,1
 153 94 153 94 130 75 c 1,2,3
 109 75 109 75 97 84 c 128,-1,4
 85 93 85 93 82 98 c 1,5,6
 125 141 125 141 157.5 182.5 c 128,-1,7
 190 224 190 224 198 239 c 1,8,9
 163 277 163 277 138.5 305 c 128,-1,10
 114 333 114 333 95 353.5 c 128,-1,11
 76 374 76 374 76 375 c 2,12,-1
 118 421 l 1,13,14
 151 381 151 381 166.5 360 c 128,-1,15
 182 339 182 339 192 326 c 0,16,17
 209 303 209 303 238 276 c 1,18,19
 248 289 248 289 260 307.5 c 128,-1,20
 272 326 272 326 286 346 c 0,21,22
 317 392 317 392 344 425 c 1,23,24
 361 425 361 425 370.5 413.5 c 128,-1,25
 380 402 380 402 380 391 c 1,26,27
 361 350 361 350 337 319.5 c 128,-1,28
 313 289 313 289 302.5 274.5 c 128,-1,29
 292 260 292 260 286 242 c 1,30,31
 332 209 332 209 390 136 c 0,32,33
 404 119 404 119 410 110 c 1,34,35
 410 100 410 100 397.5 87.5 c 128,-1,36
 385 75 385 75 381 73 c 1,37,38
 367 80 367 80 352 97 c 128,-1,39
 337 114 337 114 320 134 c 0,40,41
 277 188 277 188 249 209 c 1,0,1
EndSplineSet
EndChar

StartChar: Thorn
Encoding: 222 222 158
Width: 518
Flags: W
LayerCount: 2
Fore
SplineSet
106 25 m 2,0,1
 106 1 106 1 77 1 c 1,2,-1
 60 5 l 1,3,4
 50 10 50 10 45 21 c 1,5,-1
 34 677 l 2,6,7
 33 681 33 681 33 691 c 128,-1,8
 33 701 33 701 44.5 710 c 128,-1,9
 56 719 56 719 71.5 719 c 128,-1,10
 87 719 87 719 100 710.5 c 128,-1,11
 113 702 113 702 110 687 c 1,12,-1
 115 438 l 1,13,14
 178 521 178 521 272 570 c 0,15,16
 338 605 338 605 391 605 c 0,17,18
 453 605 453 605 484 556 c 0,19,20
 504 524 504 524 504 474.5 c 128,-1,21
 504 425 504 425 485 386.5 c 128,-1,22
 466 348 466 348 434.5 313 c 128,-1,23
 403 278 403 278 362 249 c 0,24,25
 278 190 278 190 190 170 c 0,26,27
 162 164 162 164 142.5 164 c 128,-1,28
 123 164 123 164 110 166 c 1,29,-1
 106 25 l 2,0,1
118 246 m 0,30,31
 118 231 118 231 147 231 c 0,32,33
 181 231 181 231 226 250.5 c 128,-1,34
 271 270 271 270 308 297 c 0,35,36
 396 360 396 360 446 455 c 1,37,38
 432 518 432 518 365 518 c 0,39,40
 318 518 318 518 269 489 c 0,41,42
 172 432 172 432 133 344 c 0,43,44
 118 309 118 309 118 285.5 c 128,-1,45
 118 262 118 262 118 255 c 128,-1,46
 118 248 118 248 118 246 c 0,30,31
EndSplineSet
EndChar

StartChar: germandbls
Encoding: 223 223 159
Width: 728
Flags: W
LayerCount: 2
Fore
SplineSet
223 615 m 2,0,1
 141 615 141 615 131 598 c 1,2,-1
 146 -145 l 1,3,-1
 78 -145 l 1,4,5
 89 -75 89 -75 89 22.5 c 128,-1,6
 89 120 89 120 85.5 214.5 c 128,-1,7
 82 309 82 309 77.5 408 c 128,-1,8
 73 507 73 507 73 548 c 2,9,-1
 73 599 l 2,10,11
 73 627 73 627 105 648 c 0,12,13
 123 660 123 660 166.5 667.5 c 128,-1,14
 210 675 210 675 247 675 c 128,-1,15
 284 675 284 675 331.5 671.5 c 128,-1,16
 379 668 379 668 436 649 c 128,-1,17
 493 630 493 630 522.5 602 c 128,-1,18
 552 574 552 574 552 545 c 0,19,20
 552 501 552 501 492.5 456.5 c 128,-1,21
 433 412 433 412 314 371 c 1,22,23
 545 358 545 358 630 304 c 0,24,25
 676 275 676 275 676 235 c 0,26,27
 676 181 676 181 602 126 c 0,28,29
 519 64 519 64 392 22 c 0,30,31
 330 1 330 1 267 -9 c 1,32,-1
 260 69 l 1,33,34
 375 85 375 85 447.5 113 c 128,-1,35
 520 141 520 141 550.5 170 c 128,-1,36
 581 199 581 199 581 225 c 0,37,38
 581 262 581 262 533 285 c 0,39,40
 465 318 465 318 347 318 c 0,41,42
 288 318 288 318 214 309 c 1,43,-1
 210 414 l 1,44,45
 451 464 451 464 451 531 c 0,46,47
 451 578 451 578 366 600 c 0,48,49
 309 615 309 615 244 615 c 2,50,-1
 223 615 l 2,0,1
EndSplineSet
EndChar

StartChar: igrave
Encoding: 236 236 172
Width: 155
Flags: W
LayerCount: 2
Fore
SplineSet
139 37 m 1,0,1
 136 21 136 21 123 14 c 128,-1,2
 110 7 110 7 102 6.5 c 128,-1,3
 94 6 94 6 87 6 c 128,-1,4
 80 6 80 6 68.5 10.5 c 128,-1,5
 57 15 57 15 54 23 c 1,6,-1
 54 470 l 1,7,-1
 117 470 l 1,8,9
 130 283 130 283 139 37 c 1,0,1
28 640 m 0,10,11
 28 668 28 668 43 668 c 0,12,13
 52 668 52 668 65 654 c 2,14,-1
 132 589 l 1,15,-1
 115 546 l 1,16,17
 49 591 49 591 38 611 c 0,18,19
 33 619 33 619 30.5 627 c 128,-1,20
 28 635 28 635 28 640 c 0,10,11
EndSplineSet
EndChar

StartChar: iacute
Encoding: 237 237 173
Width: 155
Flags: W
LayerCount: 2
Fore
SplineSet
117 470 m 1,0,1
 130 283 130 283 139 37 c 1,2,3
 133 6 133 6 91 6 c 0,4,5
 80 6 80 6 68.5 10.5 c 128,-1,6
 57 15 57 15 54 23 c 1,7,-1
 54 470 l 1,8,-1
 117 470 l 1,0,1
102 639 m 1,9,10
 116 658 116 658 132 658 c 0,11,12
 142 658 142 658 147 648.5 c 128,-1,13
 152 639 152 639 151 630 c 128,-1,14
 150 621 150 621 146 613 c 128,-1,15
 142 605 142 605 133 594 c 0,16,17
 116 575 116 575 64 532 c 1,18,-1
 33 560 l 1,19,-1
 102 639 l 1,9,10
EndSplineSet
EndChar

StartChar: icircumflex
Encoding: 238 238 174
Width: 155
Flags: W
LayerCount: 2
Fore
SplineSet
117 470 m 1,0,1
 130 283 130 283 139 37 c 1,2,3
 133 6 133 6 91 6 c 0,4,5
 80 6 80 6 68.5 10.5 c 128,-1,6
 57 15 57 15 54 23 c 1,7,-1
 54 470 l 1,8,-1
 117 470 l 1,0,1
-56.5 515 m 128,-1,10
 -68 520 -68 520 -68 539 c 128,-1,11
 -68 558 -68 558 -57.5 576 c 128,-1,12
 -47 594 -47 594 -28 614 c 0,13,14
 14 658 14 658 76 687 c 1,15,16
 127 654 127 654 144 640 c 0,17,18
 172 615 172 615 208 559 c 1,19,20
 214 547 214 547 214 536.5 c 128,-1,21
 214 526 214 526 210 520 c 0,22,23
 199 504 199 504 174 519 c 1,24,25
 137 546 137 546 130.5 552 c 128,-1,26
 124 558 124 558 112 571 c 128,-1,27
 100 584 100 584 69 614 c 1,28,29
 8 572 8 572 -14 536 c 0,30,31
 -21 524 -21 524 -27 510 c 1,32,9
 -45 510 -45 510 -56.5 515 c 128,-1,10
EndSplineSet
EndChar

StartChar: idieresis
Encoding: 239 239 175
Width: 155
Flags: W
LayerCount: 2
Fore
SplineSet
117 470 m 1,0,1
 130 283 130 283 139 37 c 1,2,3
 133 6 133 6 91 6 c 0,4,5
 80 6 80 6 68.5 10.5 c 128,-1,6
 57 15 57 15 54 23 c 1,7,-1
 54 470 l 1,8,-1
 117 470 l 1,0,1
-14 597 m 0,9,10
 -38 597 -38 597 -38 631 c 0,11,12
 -38 643 -38 643 12 664 c 1,13,14
 33 664 33 664 40.5 655 c 128,-1,15
 48 646 48 646 48 632 c 128,-1,16
 48 618 48 618 42 611.5 c 128,-1,17
 36 605 36 605 27 602 c 0,18,19
 15 597 15 597 -14 597 c 0,9,10
130 597 m 0,20,21
 106 597 106 597 106 631 c 0,22,23
 106 644 106 644 157 664 c 1,24,25
 193 664 193 664 193 630 c 0,26,27
 193 599 193 599 151 598 c 0,28,29
 140 597 140 597 130 597 c 0,20,21
EndSplineSet
EndChar

StartChar: eth
Encoding: 240 240 176
Width: 594
Flags: W
LayerCount: 2
Fore
SplineSet
483 466 m 1,0,1
 541 351 541 351 541 238 c 0,2,3
 541 119 541 119 470 54 c 0,4,5
 438 25 438 25 389 11 c 0,6,7
 373 6 373 6 355 6 c 128,-1,8
 337 6 337 6 307 12 c 128,-1,9
 277 18 277 18 234.5 37 c 128,-1,10
 192 56 192 56 153 84 c 0,11,12
 69 143 69 143 53 202 c 0,13,14
 51 211 51 211 51 225.5 c 128,-1,15
 51 240 51 240 65 259 c 1,16,17
 104 299 104 299 146 312 c 128,-1,18
 188 325 188 325 213 325 c 128,-1,19
 238 325 238 325 266 324 c 128,-1,20
 294 323 294 323 349.5 310.5 c 128,-1,21
 405 298 405 298 466 286 c 1,22,23
 458 359 458 359 410 428 c 1,24,-1
 331 383 l 1,25,-1
 290 449 l 1,26,-1
 358 483 l 1,27,28
 315 551 315 551 238 580 c 1,29,30
 238 598 238 598 252.5 608.5 c 128,-1,31
 267 619 267 619 280 622 c 1,32,33
 342 590 342 590 361 577 c 0,34,35
 400 552 400 552 438 514 c 1,36,-1
 511 566 l 1,37,-1
 553 517 l 1,38,-1
 483 466 l 1,0,1
146 232 m 1,39,40
 146 148 146 148 215 106 c 0,41,42
 271 73 271 73 366 73 c 1,43,44
 424 77 424 77 450 118 c 0,45,46
 467 144 467 144 467 169.5 c 128,-1,47
 467 195 467 195 463 212 c 1,48,49
 361 252 361 252 277 252 c 128,-1,50
 193 252 193 252 146 232 c 1,39,40
EndSplineSet
EndChar

StartChar: thorn
Encoding: 254 254 190
Width: 531
Flags: W
LayerCount: 2
Fore
SplineSet
114 29 m 2,0,-1
 113 -18 l 2,1,2
 113 -47 113 -47 117 -78 c 0,3,4
 118 -86 118 -86 118 -92 c 0,5,6
 118 -118 118 -118 102.5 -130.5 c 128,-1,7
 87 -143 87 -143 72 -143 c 128,-1,8
 57 -143 57 -143 50 -142 c 1,9,-1
 24 582 l 1,10,11
 47 591 47 591 58.5 591 c 128,-1,12
 70 591 70 591 77 576 c 0,13,14
 91 550 91 550 95 420 c 1,15,16
 227 460 227 460 323 460 c 0,17,18
 449 460 449 460 491 400 c 0,19,20
 510 373 510 373 510 340 c 0,21,22
 510 295 510 295 480 249.5 c 128,-1,23
 450 204 450 204 399 166 c 0,24,25
 282 81 282 81 113 64 c 1,26,27
 114 46 114 46 114 29 c 2,0,-1
388 389 m 0,28,29
 354 402 354 402 316.5 402 c 128,-1,30
 279 402 279 402 242 395 c 0,31,32
 158 379 158 379 118 324 c 0,33,34
 100 298 100 298 100 260 c 0,35,36
 100 256 100 256 100 252 c 2,37,-1
 105 131 l 1,38,39
 309 177 309 177 396 246 c 0,40,41
 444 285 444 285 444 324 c 0,42,43
 444 367 444 367 388 389 c 0,28,29
EndSplineSet
EndChar

StartChar: itilde
Encoding: 297 297 230
Width: 155
Flags: W
LayerCount: 2
Fore
SplineSet
117 470 m 1,0,1
 130 283 130 283 139 37 c 1,2,3
 133 6 133 6 91 6 c 0,4,5
 80 6 80 6 68.5 10.5 c 128,-1,6
 57 15 57 15 54 23 c 1,7,-1
 54 470 l 1,8,-1
 117 470 l 1,0,1
-2 601 m 0,9,10
 -34 601 -34 601 -88 520 c 1,11,12
 -94 520 -94 520 -107.5 524 c 128,-1,13
 -121 528 -121 528 -124 541 c 1,14,15
 -109 589 -109 589 -79 626 c 128,-1,16
 -49 663 -49 663 -16 676 c 0,17,18
 -8 679 -8 679 2 679 c 128,-1,19
 12 679 12 679 26.5 668.5 c 128,-1,20
 41 658 41 658 59 639 c 128,-1,21
 77 620 77 620 96 603 c 128,-1,22
 115 586 115 586 136.5 586 c 128,-1,23
 158 586 158 586 170.5 593 c 128,-1,24
 183 600 183 600 193.5 613 c 128,-1,25
 204 626 204 626 216.5 645 c 128,-1,26
 229 664 229 664 252 688 c 1,27,28
 258 688 258 688 264.5 677.5 c 128,-1,29
 271 667 271 667 271.5 659.5 c 128,-1,30
 272 652 272 652 272 641 c 128,-1,31
 272 630 272 630 264.5 612 c 128,-1,32
 257 594 257 594 240 576 c 0,33,34
 196 529 196 529 134 529 c 0,35,36
 88 529 88 529 60 560 c 1,37,38
 40 578 40 578 26 589.5 c 128,-1,39
 12 601 12 601 -2 601 c 0,9,10
EndSplineSet
EndChar

StartChar: imacron
Encoding: 299 299 231
Width: 155
Flags: W
LayerCount: 2
Fore
SplineSet
117 470 m 1,0,1
 130 283 130 283 139 37 c 1,2,3
 133 6 133 6 91 6 c 0,4,5
 80 6 80 6 68.5 10.5 c 128,-1,6
 57 15 57 15 54 23 c 1,7,-1
 54 470 l 1,8,-1
 117 470 l 1,0,1
-18 534 m 1,9,10
 -68 534 -68 534 -68 559 c 0,11,12
 -68 573 -68 573 -56.5 578 c 128,-1,13
 -45 583 -45 583 -16.5 587 c 128,-1,14
 12 591 12 591 55.5 598.5 c 128,-1,15
 99 606 99 606 147 611 c 1,16,17
 189 611 189 611 200 588 c 0,18,19
 201 584 201 584 201 579.5 c 128,-1,20
 201 575 201 575 196.5 567.5 c 128,-1,21
 192 560 192 560 174 554 c 1,22,-1
 -18 534 l 1,9,10
EndSplineSet
EndChar

StartChar: dotlessi
Encoding: 305 305 236
Width: 155
Flags: W
LayerCount: 2
Fore
SplineSet
117 470 m 1,0,1
 130 283 130 283 139 37 c 1,2,3
 133 6 133 6 91 6 c 0,4,5
 80 6 80 6 68.5 10.5 c 128,-1,6
 57 15 57 15 54 23 c 1,7,-1
 54 470 l 1,8,-1
 117 470 l 1,0,1
EndSplineSet
EndChar

StartChar: jcircumflex
Encoding: 309 309 238
Width: 172
Flags: W
LayerCount: 2
Fore
SplineSet
163 -200 m 0,0,1
 163 -367 163 -367 75 -367 c 0,2,3
 66 -367 66 -367 52.5 -366.5 c 128,-1,4
 39 -366 39 -366 12.5 -362.5 c 128,-1,5
 -14 -359 -14 -359 -41 -350 c 0,6,7
 -106 -328 -106 -328 -124 -286 c 1,8,9
 -124 -281 -124 -281 -117 -265.5 c 128,-1,10
 -110 -250 -110 -250 -110 -249 c 1,11,12
 -77 -274 -77 -274 -39 -296 c 128,-1,13
 -1 -318 -1 -318 42 -318 c 0,14,15
 70 -318 70 -318 88 -276 c 0,16,17
 103 -240 103 -240 103 -204 c 0,18,19
 103 -119 103 -119 96.5 -38.5 c 128,-1,20
 90 42 90 42 84 122 c 0,21,22
 70 287 70 287 70 347.5 c 128,-1,23
 70 408 70 408 72 448 c 1,24,25
 69 472 69 472 94 484 c 0,26,27
 113 493 113 493 136 493 c 1,28,29
 127 431 127 431 127 395 c 128,-1,30
 127 359 127 359 127.5 320.5 c 128,-1,31
 128 282 128 282 133.5 208 c 128,-1,32
 139 134 139 134 146 60 c 0,33,34
 163 -101 163 -101 163 -200 c 0,0,1
-53.5 515 m 128,-1,36
 -65 520 -65 520 -65 539 c 128,-1,37
 -65 558 -65 558 -54.5 576 c 128,-1,38
 -44 594 -44 594 -25 614 c 0,39,40
 17 658 17 658 79 687 c 1,41,42
 130 654 130 654 147 640 c 0,43,44
 175 615 175 615 211 559 c 1,45,46
 217 547 217 547 217 536.5 c 128,-1,47
 217 526 217 526 212 520 c 1,48,49
 202 504 202 504 177 519 c 1,50,51
 140 546 140 546 133.5 552 c 128,-1,52
 127 558 127 558 115 571 c 128,-1,53
 103 584 103 584 72 614 c 1,54,55
 11 572 11 572 -10 536 c 0,56,57
 -18 524 -18 524 -24 510 c 1,58,35
 -42 510 -42 510 -53.5 515 c 128,-1,36
EndSplineSet
EndChar

StartChar: OE
Encoding: 338 338 263
Width: 1084
Flags: W
LayerCount: 2
Fore
SplineSet
855 622 m 1,0,1
 940 622 940 622 976 609 c 1,2,-1
 976 559 l 1,3,4
 948 555 948 555 848 554 c 0,5,6
 663 552 663 552 600 538 c 1,7,8
 583 460 583 460 584 430 c 128,-1,9
 585 400 585 400 586 384 c 0,10,11
 590 345 590 345 590 293 c 1,12,13
 651 293 651 293 742 304.5 c 128,-1,14
 833 316 833 316 881 321.5 c 128,-1,15
 929 327 929 327 979 327 c 1,16,-1
 979 273 l 1,17,-1
 597 225 l 1,18,-1
 602 61 l 1,19,20
 719 61 719 61 814 70 c 0,21,22
 989 88 989 88 1076 88 c 1,23,24
 1076 68 1076 68 1063 51 c 128,-1,25
 1050 34 1050 34 1040.5 29 c 128,-1,26
 1031 24 1031 24 1021 31 c 1,27,28
 895 17 895 17 520 -14 c 1,29,-1
 520 74 l 1,30,31
 475 17 475 17 398 -2 c 0,32,33
 369 -10 369 -10 317.5 -10 c 128,-1,34
 266 -10 266 -10 209 9.5 c 128,-1,35
 152 29 152 29 110 68 c 0,36,37
 22 151 22 151 22 299 c 0,38,39
 22 368 22 368 46.5 429 c 128,-1,40
 71 490 71 490 113.5 535.5 c 128,-1,41
 156 581 156 581 212.5 608 c 128,-1,42
 269 635 269 635 334 635 c 0,43,44
 450 635 450 635 523 526 c 1,45,-1
 524 625 l 1,46,47
 551 617 551 617 633 617 c 1,48,-1
 855 622 l 1,0,1
123.5 406.5 m 128,-1,50
 104 361 104 361 104 308.5 c 128,-1,51
 104 256 104 256 118.5 208 c 128,-1,52
 133 160 133 160 162 126 c 0,53,54
 222 54 222 54 337 54 c 128,-1,55
 452 54 452 54 500 148 c 0,56,57
 514 176 514 176 521 206 c 1,58,-1
 522 402 l 1,59,60
 495 519 495 519 408 554 c 0,61,62
 377 566 377 566 335 566 c 128,-1,63
 293 566 293 566 251 544 c 128,-1,64
 209 522 209 522 176 487 c 128,-1,49
 143 452 143 452 123.5 406.5 c 128,-1,50
EndSplineSet
EndChar

StartChar: oe
Encoding: 339 339 264
Width: 935
Flags: W
LayerCount: 2
Fore
SplineSet
24 169 m 0,0,1
 24 287 24 287 126 359 c 0,2,3
 207 416 207 416 321 428 c 0,4,5
 327 428 327 428 334 428 c 0,6,7
 384 428 384 428 417 405 c 128,-1,8
 450 382 450 382 464 341 c 1,9,10
 524 439 524 439 633 469 c 0,11,12
 666 478 666 478 685 478 c 128,-1,13
 704 478 704 478 714.5 478 c 128,-1,14
 725 478 725 478 757 470 c 0,15,16
 833 453 833 453 870 408 c 0,17,18
 885 389 885 389 885 374 c 128,-1,19
 885 359 885 359 883 350 c 1,20,21
 850 326 850 326 807.5 317.5 c 128,-1,22
 765 309 765 309 720.5 305.5 c 128,-1,23
 676 302 676 302 634 299 c 0,24,25
 541 292 541 292 511 246 c 0,26,27
 498 227 498 227 498 205.5 c 128,-1,28
 498 184 498 184 500 171 c 1,29,30
 525 80 525 80 628 80 c 0,31,32
 685 80 685 80 744 100 c 1,33,34
 816 126 816 126 893 161 c 1,35,36
 903 161 903 161 910.5 153.5 c 128,-1,37
 918 146 918 146 918 135 c 1,38,39
 882 73 882 73 784 36 c 0,40,41
 708 7 708 7 632 7 c 0,42,43
 561 7 561 7 513 30.5 c 128,-1,44
 465 54 465 54 441 90 c 1,45,46
 381 -22 381 -22 216 -22 c 0,47,48
 121 -22 121 -22 72.5 22 c 128,-1,49
 24 66 24 66 24 169 c 0,0,1
398.5 109 m 128,-1,51
 413 136 413 136 414.5 163 c 128,-1,52
 416 190 416 190 418 202 c 1,53,-1
 418 267 l 2,54,55
 418 330 418 330 390 358 c 0,56,57
 375 373 375 373 345 373 c 1,58,59
 306 366 306 366 266.5 358 c 128,-1,60
 227 350 227 350 192 328 c 0,61,62
 116 278 116 278 93 145 c 1,63,64
 93 83 93 83 126 62 c 0,65,66
 151 45 151 45 208.5 45 c 128,-1,67
 266 45 266 45 300.5 49.5 c 128,-1,68
 335 54 335 54 359.5 68 c 128,-1,50
 384 82 384 82 398.5 109 c 128,-1,51
777 382 m 1,69,70
 754 418 754 418 701 418 c 0,71,72
 663 418 663 418 635 407 c 0,73,74
 578 385 578 385 578 350 c 1,75,-1
 777 382 l 1,69,70
EndSplineSet
EndChar

StartChar: florin
Encoding: 402 402 307
Width: 608
Flags: W
LayerCount: 2
Fore
SplineSet
601 334 m 0,0,1
 606 334 606 334 606 307 c 128,-1,2
 606 280 606 280 608 270 c 1,3,-1
 265 228 l 1,4,-1
 286 -397 l 1,5,-1
 66 -418 l 1,6,-1
 68 -333 l 1,7,-1
 212 -330 l 1,8,9
 212 -241 212 -241 205 -118 c 128,-1,10
 198 5 198 5 195 60 c 0,11,12
 188 180 188 180 182 216 c 1,13,-1
 52 166 l 1,14,15
 39 166 39 166 30 181 c 0,16,17
 14 207 14 207 14 228 c 1,18,-1
 166 282 l 1,19,20
 146 454 146 454 146 561.5 c 128,-1,21
 146 669 146 669 164 729 c 128,-1,22
 182 789 182 789 216.5 809.5 c 128,-1,23
 251 830 251 830 290 830 c 128,-1,24
 329 830 329 830 369.5 813 c 128,-1,25
 410 796 410 796 447 770 c 128,-1,26
 484 744 484 744 510 711.5 c 128,-1,27
 536 679 536 679 536 648 c 0,28,29
 536 624 536 624 531 614 c 1,30,31
 491 670 491 670 434 714 c 0,32,33
 366 766 366 766 306 766 c 0,34,35
 249 766 249 766 230 685 c 0,36,37
 221 643 221 643 221 566.5 c 128,-1,38
 221 490 221 490 225 426.5 c 128,-1,39
 229 363 229 363 249 299 c 1,40,41
 311 299 311 299 388 310 c 0,42,43
 536 333 536 333 601 334 c 0,0,1
EndSplineSet
EndChar

StartChar: circumflex
Encoding: 710 710 314
Width: 314
Flags: W
LayerCount: 2
Fore
SplineSet
29.5 515 m 128,-1,1
 18 520 18 520 18 539 c 128,-1,2
 18 558 18 558 28.5 576 c 128,-1,3
 39 594 39 594 58 614 c 0,4,5
 100 658 100 658 162 687 c 1,6,7
 213 654 213 654 230 640 c 0,8,9
 258 615 258 615 294 559 c 1,10,11
 300 547 300 547 300 536.5 c 128,-1,12
 300 526 300 526 296 520 c 0,13,14
 285 504 285 504 260 519 c 1,15,16
 223 546 223 546 216.5 552 c 128,-1,17
 210 558 210 558 198 571 c 128,-1,18
 186 584 186 584 155 614 c 1,19,20
 94 572 94 572 72 536 c 0,21,22
 65 524 65 524 59 510 c 1,23,0
 41 510 41 510 29.5 515 c 128,-1,1
EndSplineSet
EndChar

StartChar: caron
Encoding: 711 711 315
Width: 314
Flags: W
LayerCount: 2
Fore
SplineSet
40 530 m 128,-1,1
 31 542 31 542 31 555 c 128,-1,2
 31 568 31 568 41 571 c 128,-1,3
 51 574 51 574 66 574 c 1,4,5
 77 555 77 555 93.5 540 c 128,-1,6
 110 525 110 525 147 505 c 1,7,8
 174 525 174 525 184 533.5 c 128,-1,9
 194 542 194 542 199.5 546 c 128,-1,10
 205 550 205 550 211.5 553.5 c 128,-1,11
 218 557 218 557 237 568 c 1,12,13
 258 578 258 578 266 568 c 0,14,15
 270 563 270 563 270 556.5 c 128,-1,16
 270 550 270 550 265 541 c 1,17,18
 236 504 236 504 218 492 c 0,19,20
 195 476 195 476 154 455 c 1,21,22
 103 474 103 474 76 496 c 128,-1,0
 49 518 49 518 40 530 c 128,-1,1
EndSplineSet
EndChar

StartChar: breve
Encoding: 728 728 316
Width: 252
Flags: W
LayerCount: 2
Fore
SplineSet
31 546.5 m 128,-1,1
 31 568 31 568 41 571 c 128,-1,2
 51 574 51 574 66 574 c 1,3,4
 70 542 70 542 86 532 c 128,-1,5
 102 522 102 522 111.5 522 c 128,-1,6
 121 522 121 522 133 523.5 c 128,-1,7
 145 525 145 525 163.5 537.5 c 128,-1,8
 182 550 182 550 190 566 c 1,9,10
 200 571 200 571 207.5 571 c 128,-1,11
 215 571 215 571 219.5 566 c 128,-1,12
 224 561 224 561 224 554.5 c 128,-1,13
 224 548 224 548 218 539 c 0,14,15
 190 496 190 496 163 485 c 128,-1,16
 136 474 136 474 121 474 c 0,17,18
 77 474 77 474 54 499.5 c 128,-1,0
 31 525 31 525 31 546.5 c 128,-1,1
EndSplineSet
EndChar

StartChar: dotaccent
Encoding: 729 729 317
Width: 144
Flags: W
LayerCount: 2
Fore
SplineSet
34 511 m 1,0,1
 39 535 39 535 51 543.5 c 128,-1,2
 63 552 63 552 70 552 c 128,-1,3
 77 552 77 552 86 550.5 c 128,-1,4
 95 549 95 549 107 537.5 c 128,-1,5
 119 526 119 526 121 510 c 1,6,7
 121 486 121 486 111 478.5 c 128,-1,8
 101 471 101 471 88 471 c 128,-1,9
 75 471 75 471 67 473.5 c 128,-1,10
 59 476 59 476 52 482 c 1,11,12
 34 494 34 494 34 511 c 1,0,1
EndSplineSet
EndChar

StartChar: ring
Encoding: 730 730 318
Width: 225
Flags: W
LayerCount: 2
Fore
SplineSet
40 466 m 128,-1,1
 31 481 31 481 31 507.5 c 128,-1,2
 31 534 31 534 43 554 c 0,3,4
 63 587 63 587 103 587 c 0,5,6
 129 587 129 587 152 575 c 0,7,8
 199 550 199 550 203 504 c 1,9,10
 203 454 203 454 182 437.5 c 128,-1,11
 161 421 161 421 121 421 c 0,12,13
 90 421 90 421 69.5 436 c 128,-1,0
 49 451 49 451 40 466 c 128,-1,1
156 521 m 1,14,15
 134 544 134 544 107 544 c 0,16,17
 76 544 76 544 70 514 c 0,18,19
 70 511 70 511 70 501.5 c 128,-1,20
 70 492 70 492 82 473 c 1,21,22
 103 456 103 456 120 456 c 0,23,24
 155 456 155 456 162 486 c 1,25,26
 162 491 162 491 162 499 c 128,-1,27
 162 507 162 507 156 521 c 1,14,15
EndSplineSet
EndChar

StartChar: ogonek
Encoding: 731 731 319
Width: 252
Flags: W
LayerCount: 2
Fore
SplineSet
207 -173 m 1,0,1
 182 -185 182 -185 166 -185 c 0,2,3
 120 -185 120 -185 93 -161 c 1,4,5
 38 -116 38 -116 38 -56 c 0,6,7
 38 -26 38 -26 54.5 -1.5 c 128,-1,8
 71 23 71 23 107 34 c 1,9,-1
 178 9 l 2,10,11
 176 9 176 9 173 9 c 0,12,13
 141 9 141 9 121 -4 c 0,14,15
 91 -24 91 -24 91 -55 c 0,16,17
 91 -87 91 -87 112 -105 c 0,18,19
 139 -128 139 -128 165.5 -128 c 128,-1,20
 192 -128 192 -128 218 -117 c 1,21,-1
 207 -173 l 1,0,1
EndSplineSet
EndChar

StartChar: tilde
Encoding: 732 732 320
Width: 455
Flags: W
LayerCount: 2
Fore
SplineSet
148 567 m 0,0,1
 116 567 116 567 62 486 c 1,2,3
 56 486 56 486 42.5 490 c 128,-1,4
 29 494 29 494 26 507 c 1,5,6
 41 555 41 555 71 592 c 128,-1,7
 101 629 101 629 134 642 c 0,8,9
 142 645 142 645 152 645 c 128,-1,10
 162 645 162 645 176.5 634.5 c 128,-1,11
 191 624 191 624 209 605 c 128,-1,12
 227 586 227 586 246 569 c 128,-1,13
 265 552 265 552 286.5 552 c 128,-1,14
 308 552 308 552 320.5 559 c 128,-1,15
 333 566 333 566 343.5 579 c 128,-1,16
 354 592 354 592 366.5 611 c 128,-1,17
 379 630 379 630 402 654 c 1,18,19
 408 654 408 654 414.5 643.5 c 128,-1,20
 421 633 421 633 421.5 625.5 c 128,-1,21
 422 618 422 618 422 607 c 128,-1,22
 422 596 422 596 414.5 578 c 128,-1,23
 407 560 407 560 390 542 c 0,24,25
 346 495 346 495 284 495 c 0,26,27
 238 495 238 495 210 526 c 1,28,29
 190 544 190 544 176 555.5 c 128,-1,30
 162 567 162 567 148 567 c 0,0,1
EndSplineSet
EndChar

StartChar: hungarumlaut
Encoding: 733 733 321
Width: 279
Flags: W
LayerCount: 2
Fore
SplineSet
97 633 m 1,0,1
 109 658 109 658 126 658 c 0,2,3
 134 658 134 658 140 651 c 128,-1,4
 146 644 146 644 148 635 c 1,5,6
 148 617 148 617 138 600 c 0,7,8
 122 573 122 573 81 520 c 1,9,-1
 44 542 l 1,10,-1
 97 633 l 1,0,1
242 624 m 1,11,12
 242 607 242 607 232 590 c 0,13,14
 219 568 219 568 174 510 c 1,15,-1
 138 532 l 1,16,-1
 190 622 l 1,17,18
 202 647 202 647 219.5 647 c 128,-1,19
 237 647 237 647 242 624 c 1,11,12
EndSplineSet
EndChar

StartChar: endash
Encoding: 8211 8211 330
Width: 318
Flags: W
LayerCount: 2
Fore
SplineSet
80 216 m 1,0,1
 30 216 30 216 30 242 c 0,2,3
 30 255 30 255 41.5 260 c 128,-1,4
 53 265 53 265 81.5 269 c 128,-1,5
 110 273 110 273 153.5 281 c 128,-1,6
 197 289 197 289 245 294 c 1,7,8
 265 294 265 294 279 287 c 0,9,10
 299 277 299 277 299 263 c 0,11,12
 299 258 299 258 294.5 250 c 128,-1,13
 290 242 290 242 272 236 c 1,14,-1
 80 216 l 1,0,1
EndSplineSet
EndChar

StartChar: emdash
Encoding: 8212 8212 331
Width: 421
Flags: W
LayerCount: 2
Fore
SplineSet
80 216 m 1,0,1
 30 216 30 216 30 242 c 0,2,3
 30 255 30 255 41.5 260 c 128,-1,4
 53 265 53 265 70 267.5 c 128,-1,5
 87 270 87 270 123 273.5 c 128,-1,6
 159 277 159 277 197.5 280.5 c 128,-1,7
 236 284 236 284 272.5 287 c 128,-1,8
 309 290 309 290 332 293 c 1,9,10
 352 293 352 293 366 286 c 0,11,12
 386 276 386 276 386 262 c 0,13,14
 386 257 386 257 381.5 249 c 128,-1,15
 377 241 377 241 359 235 c 1,16,-1
 80 216 l 1,0,1
EndSplineSet
EndChar

StartChar: quoteleft
Encoding: 8216 8216 332
Width: 166
Flags: W
LayerCount: 2
Fore
SplineSet
104 619 m 0,0,1
 128 619 128 619 128 584 c 0,2,3
 128 543 128 543 94 476 c 0,4,5
 84 456 84 456 75 442 c 1,6,-1
 27 438 l 1,7,-1
 83 614 l 1,8,9
 95 619 95 619 104 619 c 0,0,1
EndSplineSet
EndChar

StartChar: quoteright
Encoding: 8217 8217 333
Width: 166
Flags: W
LayerCount: 2
Fore
SplineSet
104 619 m 0,0,1
 128 619 128 619 128 584 c 0,2,3
 128 543 128 543 94 476 c 0,4,5
 84 456 84 456 75 442 c 1,6,-1
 27 438 l 1,7,-1
 83 614 l 1,8,9
 95 619 95 619 104 619 c 0,0,1
EndSplineSet
EndChar

StartChar: quotesinglbase
Encoding: 8218 8218 334
Width: 166
Flags: W
LayerCount: 2
Fore
SplineSet
112 191 m 0,0,1
 136 191 136 191 136 156 c 0,2,3
 136 115 136 115 102 48 c 0,4,5
 92 28 92 28 83 14 c 1,6,-1
 35 10 l 1,7,-1
 91 186 l 1,8,9
 103 191 103 191 112 191 c 0,0,1
EndSplineSet
EndChar

StartChar: quotedblleft
Encoding: 8220 8220 335
Width: 242
Flags: W
LayerCount: 2
Fore
SplineSet
146 594 m 1,0,-1
 147 622 l 1,1,-1
 146 663 l 1,2,3
 146 746 146 746 182 763 c 1,4,-1
 199 747 l 1,5,-1
 199 548 l 1,6,-1
 215 514 l 1,7,8
 212 511 212 511 199.5 504.5 c 128,-1,9
 187 498 187 498 182 498 c 0,10,11
 146 498 146 498 146 594 c 1,0,-1
54 585 m 1,12,-1
 55 614 l 1,13,-1
 54 656 l 1,14,15
 54 739 54 739 90 756 c 1,16,-1
 106 740 l 1,17,-1
 106 541 l 1,18,-1
 123 507 l 1,19,20
 119 503 119 503 107 496.5 c 128,-1,21
 95 490 95 490 90 490 c 0,22,23
 54 490 54 490 54 585 c 1,12,-1
EndSplineSet
EndChar

StartChar: quotedblright
Encoding: 8221 8221 336
Width: 242
Flags: W
LayerCount: 2
Fore
SplineSet
146 594 m 1,0,-1
 147 622 l 1,1,-1
 146 663 l 1,2,3
 146 746 146 746 182 763 c 1,4,-1
 199 747 l 1,5,-1
 199 548 l 1,6,-1
 215 514 l 1,7,8
 212 511 212 511 199.5 504.5 c 128,-1,9
 187 498 187 498 182 498 c 0,10,11
 146 498 146 498 146 594 c 1,0,-1
54 585 m 1,12,-1
 55 614 l 1,13,-1
 54 656 l 1,14,15
 54 739 54 739 90 756 c 1,16,-1
 106 740 l 1,17,-1
 106 541 l 1,18,-1
 123 507 l 1,19,20
 119 503 119 503 107 496.5 c 128,-1,21
 95 490 95 490 90 490 c 0,22,23
 54 490 54 490 54 585 c 1,12,-1
EndSplineSet
EndChar

StartChar: quotedblbase
Encoding: 8222 8222 337
Width: 287
Flags: W
LayerCount: 2
Fore
SplineSet
185 127 m 1,0,-1
 186 155 l 1,1,-1
 185 195 l 1,2,3
 185 277 185 277 221 297 c 1,4,-1
 238 280 l 1,5,-1
 238 81 l 1,6,-1
 254 47 l 1,7,8
 251 43 251 43 238.5 37 c 128,-1,9
 226 31 226 31 221 31 c 0,10,11
 185 31 185 31 185 127 c 1,0,-1
85 131 m 1,12,-1
 86 159 l 1,13,-1
 85 201 l 1,14,15
 85 282 85 282 121 301 c 1,16,-1
 138 284 l 1,17,-1
 138 85 l 1,18,-1
 154 52 l 1,19,20
 151 47 151 47 138.5 41 c 128,-1,21
 126 35 126 35 121 35 c 0,22,23
 85 35 85 35 85 131 c 1,12,-1
EndSplineSet
EndChar

StartChar: dagger
Encoding: 8224 8224 338
Width: 410
Flags: W
LayerCount: 2
Fore
SplineSet
229 0 m 2,0,1
 229 -2 229 -2 204 -2 c 2,2,-1
 168 -2 l 2,3,4
 156 -2 156 -2 154 -3 c 1,5,-1
 150 516 l 1,6,-1
 91 510 l 1,7,8
 49 510 49 510 30 524 c 0,9,10
 23 529 23 529 23 540 c 0,11,12
 23 560 23 560 70 566 c 0,13,14
 91 568 91 568 110.5 570.5 c 128,-1,15
 130 573 130 573 150 575 c 1,16,-1
 140 856 l 1,17,-1
 220 856 l 1,18,-1
 229 586 l 1,19,20
 237 587 237 587 312 594 c 1,21,22
 369 594 369 594 383 570 c 0,23,24
 386 566 386 566 386 561 c 128,-1,25
 386 556 386 556 379.5 547.5 c 128,-1,26
 373 539 373 539 349 532 c 1,27,-1
 229 522 l 1,28,-1
 229 0 l 2,0,1
EndSplineSet
EndChar

StartChar: daggerdbl
Encoding: 8225 8225 339
Width: 410
Flags: W
LayerCount: 2
Fore
SplineSet
229 0 m 2,0,1
 229 -2 229 -2 204 -2 c 2,2,-1
 168 -2 l 2,3,4
 156 -2 156 -2 154 -3 c 1,5,-1
 151 406 l 1,6,-1
 79 397 l 1,7,8
 47 401 47 401 36.5 407.5 c 128,-1,9
 26 414 26 414 27.5 423.5 c 128,-1,10
 29 433 29 433 50 450 c 0,11,12
 54 454 54 454 150 463 c 1,13,-1
 150 516 l 1,14,-1
 91 510 l 1,15,16
 49 510 49 510 30 524 c 0,17,18
 23 529 23 529 23 540 c 0,19,20
 23 560 23 560 70 566 c 0,21,22
 91 568 91 568 110.5 570.5 c 128,-1,23
 130 573 130 573 150 575 c 1,24,-1
 140 856 l 1,25,-1
 220 856 l 1,26,-1
 229 586 l 1,27,28
 237 587 237 587 312 594 c 1,29,30
 369 594 369 594 383 570 c 0,31,32
 389 560 389 560 381 549.5 c 128,-1,33
 373 539 373 539 349 532 c 1,34,-1
 229 522 l 1,35,-1
 229 472 l 1,36,37
 262 476 262 476 294.5 479.5 c 128,-1,38
 327 483 327 483 353 488 c 1,39,40
 369 493 369 493 378.5 487.5 c 128,-1,41
 388 482 388 482 388 472 c 0,42,43
 388 449 388 449 370 436 c 1,44,-1
 229 417 l 1,45,-1
 229 0 l 2,0,1
EndSplineSet
EndChar

StartChar: bullet
Encoding: 8226 8226 340
Width: 197
Flags: W
LayerCount: 2
Fore
SplineSet
33 257 m 1,0,1
 41 294 41 294 59.5 307.5 c 128,-1,2
 78 321 78 321 89 321 c 0,3,4
 122 321 122 321 142 301 c 128,-1,5
 162 281 162 281 165 255 c 1,6,7
 165 218 165 218 150 206 c 128,-1,8
 135 194 135 194 115 194 c 128,-1,9
 95 194 95 194 82.5 198 c 128,-1,10
 70 202 70 202 59 210 c 0,11,12
 33 231 33 231 33 257 c 1,0,1
EndSplineSet
EndChar

StartChar: ellipsis
Encoding: 8230 8230 341
Width: 433
Flags: W
LayerCount: 2
Fore
SplineSet
22 34 m 0,0,1
 22 42 22 42 40 50.5 c 128,-1,2
 58 59 58 59 72 66 c 1,3,4
 93 66 93 66 100.5 57.5 c 128,-1,5
 108 49 108 49 108 35 c 128,-1,6
 108 21 108 21 102 14 c 128,-1,7
 96 7 96 7 87 4 c 0,8,9
 72 -1 72 -1 47 -1 c 128,-1,10
 22 -1 22 -1 22 34 c 0,0,1
166 34 m 0,11,12
 166 42 166 42 184 50.5 c 128,-1,13
 202 59 202 59 216 66 c 1,14,15
 237 66 237 66 244.5 57.5 c 128,-1,16
 252 49 252 49 252 35 c 128,-1,17
 252 21 252 21 246 14 c 128,-1,18
 240 7 240 7 231 4 c 0,19,20
 216 -1 216 -1 191 -1 c 128,-1,21
 166 -1 166 -1 166 34 c 0,11,12
334 -1 m 0,22,23
 310 -1 310 -1 310 34 c 0,24,25
 310 42 310 42 335 54 c 2,26,-1
 361 66 l 1,27,28
 397 66 397 66 397 33 c 0,29,30
 397 -1 397 -1 334 -1 c 0,22,23
EndSplineSet
EndChar

StartChar: guilsinglleft
Encoding: 8249 8249 342
Width: 487
Flags: W
LayerCount: 2
Fore
SplineSet
84 229 m 1,0,1
 116 254 116 254 159 288 c 128,-1,2
 202 322 202 322 246 356 c 0,3,4
 354 441 354 441 401 467 c 1,5,6
 414 467 414 467 420 445 c 0,7,8
 423 436 423 436 423 427 c 128,-1,9
 423 418 423 418 419 412 c 1,10,-1
 184 233 l 1,11,12
 199 225 199 225 227 212.5 c 128,-1,13
 255 200 255 200 289 183 c 0,14,15
 370 143 370 143 431 103 c 1,16,17
 430 102 430 102 427 95 c 128,-1,18
 424 88 424 88 420 80 c 0,19,20
 411 59 411 59 409 59 c 1,21,22
 379 78 379 78 323 97.5 c 128,-1,23
 267 117 267 117 233 130.5 c 128,-1,24
 199 144 199 144 170 158 c 0,25,26
 102 192 102 192 84 229 c 1,0,1
EndSplineSet
EndChar

StartChar: guilsinglright
Encoding: 8250 8250 343
Width: 483
Flags: W
LayerCount: 2
Fore
SplineSet
118 48 m 1,0,1
 73 65 73 65 68 84 c 1,2,3
 68 88 68 88 68 91 c 0,4,5
 68 122 68 122 139 164 c 0,6,7
 244 225 244 225 276 249.5 c 128,-1,8
 308 274 308 274 314 297 c 1,9,-1
 50 396 l 1,10,-1
 100 445 l 1,11,12
 149 410 149 410 190.5 396 c 128,-1,13
 232 382 232 382 270.5 373.5 c 128,-1,14
 309 365 309 365 347 353.5 c 128,-1,15
 385 342 385 342 426 311 c 1,16,17
 400 280 400 280 360.5 248.5 c 128,-1,18
 321 217 321 217 277.5 184 c 128,-1,19
 234 151 234 151 191.5 117 c 128,-1,20
 149 83 149 83 118 48 c 1,0,1
EndSplineSet
EndChar

StartChar: fraction
Encoding: 8260 8260 344
Width: 466
Flags: W
LayerCount: 2
Fore
SplineSet
39 0 m 1,0,1
 21 0 21 0 21 32 c 2,2,-1
 21 42 l 2,3,4
 21 78 21 78 220 387 c 0,5,6
 335 564 335 564 413 664 c 0,7,8
 433 689 433 689 438 689 c 1,9,10
 444 693 444 693 448.5 693 c 128,-1,11
 453 693 453 693 453 681 c 128,-1,12
 453 669 453 669 434.5 628.5 c 128,-1,13
 416 588 416 588 387 535 c 128,-1,14
 358 482 358 482 323 422 c 128,-1,15
 288 362 288 362 248.5 299.5 c 128,-1,16
 209 237 209 237 171 180 c 0,17,18
 92 61 92 61 39 0 c 1,0,1
EndSplineSet
EndChar

StartChar: Euro
Encoding: 8364 8364 345
Width: 814
Flags: W
LayerCount: 2
Fore
SplineSet
59 175 m 0,0,1
 35 175 35 175 35 210 c 0,2,3
 35 213 35 213 41.5 219.5 c 128,-1,4
 48 226 48 226 52 226 c 0,5,6
 93 233 93 233 111 236 c 1,7,-1
 111 250 l 2,8,9
 111 280 111 280 115 310 c 1,10,-1
 78 306 l 2,11,12
 73 306 73 306 65.5 305.5 c 128,-1,13
 58 305 58 305 50 306 c 0,14,15
 31 309 31 309 29 323 c 1,16,-1
 49 359 l 2,17,18
 51 361 51 361 73 363.5 c 128,-1,19
 95 366 95 366 128 370 c 1,20,21
 165 498 165 498 264 580 c 0,22,23
 366 665 366 665 495 665 c 0,24,25
 564 665 564 665 586 646 c 0,26,27
 611 623 611 623 611 555 c 1,28,29
 542 594 542 594 475.5 594 c 128,-1,30
 409 594 409 594 354 566 c 128,-1,31
 299 538 299 538 259.5 488.5 c 128,-1,32
 220 439 220 439 205 378 c 1,33,34
 243 383 243 383 281.5 387.5 c 128,-1,35
 320 392 320 392 352 397 c 1,36,37
 368 402 368 402 376.5 397 c 128,-1,38
 385 392 385 392 386.5 382.5 c 128,-1,39
 388 373 388 373 383.5 362 c 128,-1,40
 379 351 379 351 370 345 c 1,41,-1
 194 321 l 1,42,43
 192 307 192 307 192 293 c 128,-1,44
 192 279 192 279 194 266 c 1,45,-1
 194 246 l 1,46,47
 216 249 216 249 237 251 c 128,-1,48
 258 253 258 253 281 256 c 0,49,50
 331 263 331 263 390 275 c 1,51,52
 424 275 424 275 424 241 c 0,53,54
 424 233 424 233 422 225 c 1,55,56
 342 225 342 225 254 203 c 0,57,58
 230 197 230 197 206 192 c 1,59,60
 229 127 229 127 287.5 96 c 128,-1,61
 346 65 346 65 422 65 c 1,62,63
 560 77 560 77 597 86 c 0,64,65
 663 102 663 102 734 147 c 1,66,67
 748 147 748 147 762.5 143.5 c 128,-1,68
 777 140 777 140 777 121 c 1,69,70
 697 50 697 50 607 24 c 128,-1,71
 517 -2 517 -2 416 -2 c 0,72,73
 401 -2 401 -2 371.5 -1.5 c 128,-1,74
 342 -1 342 -1 300 11.5 c 128,-1,75
 258 24 258 24 222 48 c 0,76,77
 148 97 148 97 122 178 c 1,78,79
 92 175 92 175 59 175 c 0,0,1
EndSplineSet
EndChar

StartChar: trademark
Encoding: 8482 8482 346
Width: 1239
Flags: W
LayerCount: 2
Fore
SplineSet
504 491 m 1,0,-1
 409 493 l 2,1,2
 368 493 368 493 320 486 c 1,3,4
 318 447 318 447 312 385 c 0,5,6
 291 165 291 165 291 99.5 c 128,-1,7
 291 34 291 34 293 7 c 1,8,-1
 199 0 l 1,9,-1
 230 494 l 1,10,-1
 17 506 l 2,11,12
 9 506 9 506 4.5 519 c 128,-1,13
 0 532 0 532 0 543 c 128,-1,14
 0 554 0 554 9 567 c 128,-1,15
 18 580 18 580 30 580 c 0,16,17
 90 577 90 577 150 572 c 0,18,19
 343 558 343 558 405.5 558 c 128,-1,20
 468 558 468 558 514 562 c 1,21,22
 520 589 520 589 535 601 c 128,-1,23
 550 613 550 613 585 613 c 128,-1,24
 620 613 620 613 648 588.5 c 128,-1,25
 676 564 676 564 699 525.5 c 128,-1,26
 722 487 722 487 741 440 c 128,-1,27
 760 393 760 393 777 348.5 c 128,-1,28
 794 304 794 304 809 267.5 c 128,-1,29
 824 231 824 231 840 213 c 1,30,-1
 1040 561 l 1,31,32
 1064 583 1064 583 1083 583 c 0,33,34
 1142 583 1142 583 1171 399 c 0,35,36
 1180 340 1180 340 1192 234 c 0,37,38
 1213 43 1213 43 1219.5 14 c 128,-1,39
 1226 -15 1226 -15 1226 -28.5 c 128,-1,40
 1226 -42 1226 -42 1217 -55 c 128,-1,41
 1208 -68 1208 -68 1192 -68 c 128,-1,42
 1176 -68 1176 -68 1160 -55.5 c 128,-1,43
 1144 -43 1144 -43 1140.5 -24.5 c 128,-1,44
 1137 -6 1137 -6 1133.5 24 c 128,-1,45
 1130 54 1130 54 1125.5 92 c 128,-1,46
 1121 130 1121 130 1115.5 171.5 c 128,-1,47
 1110 213 1110 213 1105 250 c 2,48,-1
 1096 318 l 2,49,50
 1092 348 1092 348 1090 362 c 1,51,52
 1090 383 1090 383 1089 399.5 c 128,-1,53
 1088 416 1088 416 1081 420 c 128,-1,54
 1074 424 1074 424 1060 410.5 c 128,-1,55
 1046 397 1046 397 1020 357 c 0,56,57
 967 276 967 276 858 63 c 1,58,59
 844 38 844 38 820 52 c 0,60,61
 792 68 792 68 774 130 c 1,62,-1
 599 501 l 1,63,64
 587 498 587 498 582 498 c 1,65,66
 566 440 566 440 548 225 c 0,67,68
 544 177 544 177 542 146 c 1,69,70
 538 122 538 122 538 99 c 1,71,-1
 542 28 l 2,72,73
 542 20 542 20 541 3 c 128,-1,74
 540 -14 540 -14 528.5 -26.5 c 128,-1,75
 517 -39 517 -39 500.5 -39 c 128,-1,76
 484 -39 484 -39 471 -38.5 c 128,-1,77
 458 -38 458 -38 449 -29 c 128,-1,78
 440 -20 440 -20 442.5 1.5 c 128,-1,79
 445 23 445 23 450 63 c 128,-1,80
 455 103 455 103 460.5 149 c 128,-1,81
 466 195 466 195 472 244.5 c 128,-1,82
 478 294 478 294 484 340 c 128,-1,83
 490 386 490 386 495 425.5 c 128,-1,84
 500 465 500 465 504 491 c 1,0,-1
EndSplineSet
EndChar

StartChar: minus
Encoding: 8722 8722 347
Width: 318
Flags: W
LayerCount: 2
Fore
SplineSet
80 216 m 1,0,1
 30 216 30 216 30 242 c 0,2,3
 30 255 30 255 41.5 260 c 128,-1,4
 53 265 53 265 81.5 269 c 128,-1,5
 110 273 110 273 153.5 281 c 128,-1,6
 197 289 197 289 245 294 c 1,7,8
 265 294 265 294 279 287 c 0,9,10
 299 277 299 277 299 263 c 0,11,12
 299 258 299 258 294.5 250 c 128,-1,13
 290 242 290 242 272 236 c 1,14,-1
 80 216 l 1,0,1
EndSplineSet
EndChar

StartChar: commaaccent
Encoding: 65539 -1 350
Width: 410
Flags: W
LayerCount: 2
Fore
SplineSet
194 -79 m 2,0,1
 200 -66 200 -66 207.5 -64 c 128,-1,2
 215 -62 215 -62 224 -62 c 128,-1,3
 233 -62 233 -62 240 -64 c 0,4,5
 262 -70 262 -70 262 -87 c 0,6,7
 262 -103 262 -103 207 -188 c 0,8,9
 197 -204 197 -204 192.5 -211.5 c 128,-1,10
 188 -219 188 -219 181 -226 c 0,11,12
 158 -251 158 -251 135 -251 c 0,13,14
 129 -251 129 -251 123 -249 c 1,15,-1
 194 -79 l 2,0,1
EndSplineSet
EndChar

